<svg viewBox="0 0 500 500" xmlns="http://www.w3.org/2000/svg"><path d="m442.3172 250.0048a192.4552 192.4552 0 0 1 -246.86 184.46 189.9266 189.9266 0 0 1 -18.32-6.43 191.8473 191.8473 0 0 1 -28.1-14.33c-.38-.23-.76-.46-1.13-.71-.93-.57-1.86-1.16-2.78-1.77-.3-.19-.6-.38-.9-.58a192.3737 192.3737 0 0 1 24.67-335.07c3.38-1.57 6.82-3.06 10.31-4.44a190.9606 190.9606 0 0 1 45.51-11.8h.01q3.75-.4951 7.56-.84 8.7447-.81 17.71-.81c106.2199.0002 192.32 86.1003 192.32 192.32z" fill="none" stroke="#000" stroke-linecap="round" stroke-miterlimit="10" stroke-width=".75"/><path d="m428.3128 292.5265 9.9992-141.613a7.7991 7.7991 0 0 0 -7.9118-8.4618l-247.1541.2125a9.2742 9.2742 0 0 0 -9.1117 8.4743l-9.9367 141.6255a7.8124 7.8124 0 0 0 7.9243 8.4618l247.0541-.2125a9.2617 9.2617 0 0 0 9.1367-8.4868z"/><path d="m425.1381 289.4393 9.9991-141.6131a7.7867 7.7867 0 0 0 -7.9118-8.4617l-247.1541.2124a9.2493 9.2493 0 0 0 -9.0992 8.4743l-9.9991 141.6255a7.7991 7.7991 0 0 0 7.9118 8.4618l247.1416-.2125a9.2617 9.2617 0 0 0 9.1117-8.4867z" fill="#e55b2d"/><g fill="#fff"><path d="m418.5887 291.5391a2.75 2.75 0 0 1 -1.8624.7249l-247.1541.2125a2.9372 2.9372 0 0 1 -2.9041-2.97q.0007-.065.0044-.13l9.9991-141.613a2.65 2.65 0 0 1 .85-1.8 2.6872 2.6872 0 0 1 1.8624-.7249l247.1541-.2125a2.9372 2.9372 0 0 1 2.9041 2.97q-.0007.065-.0043.13l-9.9992 141.613a2.7128 2.7128 0 0 1 -.85 1.8z"/><path d="m374.0068 213.6832h-86.7551a3.1623 3.1623 0 0 0 -3.0873 2.7872l-1.3374 12.6865a2.5 2.5 0 0 0 2.5 2.8h86.755a3.1871 3.1871 0 0 0 3.1-2.8l1.3249-12.6865a2.5 2.5 0 0 0 -2.5-2.7872z" stroke="#000" stroke-miterlimit="10" stroke-width=".75"/><path d="m297.5758 265.4913h-13.5364a3.1871 3.1871 0 0 0 -3.1 2.8l-1.3249 12.6864a2.4994 2.4994 0 0 0 2.5 2.7872h13.5363a3.1873 3.1873 0 0 0 3.1-2.7872l1.3248-12.6864a2.5 2.5 0 0 0 -2.5-2.8z" stroke="#000" stroke-miterlimit="10" stroke-width=".75"/><path d="m320.9488 265.4913h-13.5363a3.1871 3.1871 0 0 0 -3.1 2.8l-1.3249 12.6864a2.5 2.5 0 0 0 2.5 2.7872h13.5363a3.1871 3.1871 0 0 0 3.1-2.7872l1.3249-12.6864a2.5 2.5 0 0 0 -2.5-2.8z" stroke="#000" stroke-miterlimit="10" stroke-width=".75"/><path d="m344.3093 265.4913h-13.5238a3.1871 3.1871 0 0 0 -3.1 2.8l-1.3249 12.6864a2.5 2.5 0 0 0 2.5 2.7872h13.5363a3.1871 3.1871 0 0 0 3.1-2.7872l1.3124-12.6864a2.5 2.5 0 0 0 -2.5-2.8z" stroke="#000" stroke-miterlimit="10" stroke-width=".75"/><path d="m367.6948 265.4913h-13.5363a3.1872 3.1872 0 0 0 -3.1 2.8l-1.3248 12.6864a2.4994 2.4994 0 0 0 2.5 2.7872h13.5363a3.1871 3.1871 0 0 0 3.1-2.7872l1.3249-12.6864a2.5 2.5 0 0 0 -2.5-2.8z" stroke="#000" stroke-miterlimit="10" stroke-width=".75"/></g><path d="m352.3961 257.4795h-54.2579a4.825 4.825 0 0 1 -4.9-5.4371l.65-6.2494a6.0621 6.0621 0 0 1 5.9-5.3121h54.2578a4.8371 4.8371 0 0 1 4.9 5.45l-.65 6.25a6.062 6.062 0 0 1 -5.8999 5.2986zm-52.608-15.7362a4.812 4.812 0 0 0 -4.6621 4.2l-.65 6.2494a3.5872 3.5872 0 0 0 3.6622 4.0622h54.2579a4.8 4.8 0 0 0 4.6622-4.1872l.65-6.2494a3.5872 3.5872 0 0 0 -3.6622-4.0622z"/><path d="m377.1316 187.26h-86.7552a3.1874 3.1874 0 0 0 -3.0873 2.8l-1.3373 12.6864a2.5 2.5 0 0 0 2.5 2.7873h86.7427a3.1872 3.1872 0 0 0 3.1-2.7873l1.3249-12.6864a2.5 2.5 0 0 0 -2.4872-2.8z" fill="#fff" stroke="#000" stroke-miterlimit="10" stroke-width=".75"/><path d="m297.8008 222.82a2.7373 2.7373 0 0 0 -2.7748-3.1 3.55 3.55 0 0 0 -3.4372 3.1 2.7495 2.7495 0 0 0 2.7873 3.0872 3.5246 3.5246 0 0 0 3.4247-3.0872z"/><path d="m307.35 222.82a2.75 2.75 0 0 0 -2.7872-3.1 3.5246 3.5246 0 0 0 -3.4247 3.1 2.7372 2.7372 0 0 0 2.7747 3.0872 3.537 3.537 0 0 0 3.4372-3.0872z"/><path d="m316.8866 222.82a2.75 2.75 0 0 0 -2.7872-3.1 3.5246 3.5246 0 0 0 -3.4247 3.1 2.7495 2.7495 0 0 0 2.7872 3.0872 3.5246 3.5246 0 0 0 3.4247-3.0872z"/><path d="m326.4233 222.82a2.7372 2.7372 0 0 0 -2.7747-3.1 3.5246 3.5246 0 0 0 -3.4247 3.1 2.7246 2.7246 0 0 0 2.8372 3.0747 3.5245 3.5245 0 0 0 3.3622-3.0747z"/><path d="m336.16 222.82a2.75 2.75 0 0 0 -2.7873-3.1 3.5248 3.5248 0 0 0 -3.4247 3.1 2.7373 2.7373 0 0 0 2.7748 3.0872 3.537 3.537 0 0 0 3.4372-3.0872z"/><path d="m300.9255 196.3971a2.7245 2.7245 0 0 0 -2.7748-3.0872 3.5247 3.5247 0 0 0 -3.4247 3.0872 2.7251 2.7251 0 0 0 2.7748 3.0873 3.5122 3.5122 0 0 0 3.4247-3.0873z"/><path d="m310.4747 196.3971a2.7495 2.7495 0 0 0 -2.7873-3.0872 3.5247 3.5247 0 0 0 -3.3747 3.0872 2.7373 2.7373 0 0 0 2.7748 3.0873 3.5248 3.5248 0 0 0 3.3872-3.0873z"/><path d="m320.0114 196.3971a2.7373 2.7373 0 0 0 -2.7748-3.0872 3.5372 3.5372 0 0 0 -3.4372 3.0872 2.7377 2.7377 0 0 0 2.7873 3.0873 3.5123 3.5123 0 0 0 3.4247-3.0873z"/><path d="m329.5481 196.3971a2.7245 2.7245 0 0 0 -2.7748-3.0872 3.5247 3.5247 0 0 0 -3.4247 3.0872 2.7251 2.7251 0 0 0 2.7748 3.0873 3.5123 3.5123 0 0 0 3.4247-3.0873z"/><path d="m339.0972 196.3971a2.7495 2.7495 0 0 0 -2.7872-3.0871 3.5246 3.5246 0 0 0 -3.4247 3.0872 2.7377 2.7377 0 0 0 2.7872 3.0873 3.5121 3.5121 0 0 0 3.4247-3.0874z"/><path d="m348.6339 196.3971a2.7372 2.7372 0 0 0 -2.7747-3.0872 3.5372 3.5372 0 0 0 -3.4372 3.0872 2.7377 2.7377 0 0 0 2.7872 3.0873 3.5121 3.5121 0 0 0 3.4247-3.0873z"/><path d="m340.56 159.2878-.6749 6.412a1.25 1.25 0 0 1 -1.1624 1.0374.9125.9125 0 0 1 -.9455-.8781.9022.9022 0 0 1 .0081-.1593l.6749-6.412a3.3375 3.3375 0 0 0 -3.3747-3.75h-2.3123a4.3 4.3 0 0 0 -4.1622 3.75l-.5874 5.95h-2.1l.5874-5.9495a6.662 6.662 0 0 1 6.487-5.837h2.3a5.1742 5.1742 0 0 1 5.262 5.837z"/><path d="m340.56 165.4623-1.3123 12.4989a1.6376 1.6376 0 0 1 -1.5874 1.4249h-12.4993a1.25 1.25 0 0 1 -1.25-1.4249l1.3123-12.4989a1.6249 1.6249 0 0 1 .8-1.25 1.5489 1.5489 0 0 1 .7874-.2125h12.4993a1.3617 1.3617 0 0 1 .7249.2 1.25 1.25 0 0 1 .5251 1.2625z"/><path d="m370.2677 139.34a.625.625 0 0 1 0-1.25l30.5475-.175a.625.625 0 0 1 0 1.25l-30.5349.175z"/><path d="m406.6772 139.127a.625.625 0 1 1 0-1.25h10.7991a.625.625 0 0 1 0 1.25z"/><path d="m300.3072 435.665a193.51 193.51 0 0 1 -104.85-1.2 189.9266 189.9266 0 0 1 -18.32-6.43 191.8473 191.8473 0 0 1 -28.1-14.33c-.41-.09-.79-.18-1.14-.28 0-.14 0-.29.01-.43.06-4.16.15-8.02.3-11.05.02-.49.04-.95.07-1.39a24.5707 24.5707 0 0 1 .55-4.79l20.96 6.06 4.92 1.42h1.66l23.84.02h7.92c-.01-.01-.01-.04-.01-.04l14.36.01h.85l18.36.02h1.07l2.71-.38 7.54-1.07h.01l22.05-3.13 1.76-.25 18.78-2.66s.13.45.37 1.64c.36 1.86.98 5.55 1.74 12.16.39 3.44.81 7.68 1.26 12.87q.2249 2.55.45 5.41c.2099 2.4499.5099 5.08.88 7.82z"/><path d="m184.2153 166.6252.4252-8.4285s22.4683-6.3315 52.79.238l2.6951 10.38z"/><path d="m299.1771 396.5562q-.63 6.33-1.46 13.01-.5552 4.47-1.21 9.12a141.1762 141.1762 0 0 1 -17.52 5.18c-.2.05-.41.09-.62.14a158.76 158.76 0 0 1 -22.42 3.28c-4.82.37-9.7.55-14.67.56h-.27c-5.86 0-11.82-.23-17.91-.65-7.9-.55-16.01-1.43-24.4-2.55q-.5551-.075-1.11-.15-9.2853-1.2751-19.03-2.89c-4.07-.66-7.15-4.93-11.25-5.7-1.06-.19-5.15-.46-9.52-.92a76.78 76.78 0 0 1 -8.75-1.28c-.41-.09-.79-.18-1.14-.28-1.46-.42-2.44-.9-2.58-1.46-.07-.26-.13-.51-.19-.74-.46-1.72-.74-2.81-.9-3.54a3.1252 3.1252 0 0 1 0-2.12 19.128 19.128 0 0 0 .73-5.26c.08-1.72.12-4.02.07-7.12-.52-33.87 1.4-77.97-.46-121.92l-11.82 32.81a20.529 20.529 0 0 0 -4.76-3.14c-8.78-4.73-26.67-11.93-37.66-16.22-5.52-2.15-9.3-3.57-9.3-3.57 0-11.75 8.01-32.3 17.32-51.53v-.01c3.73-7.7 7.67-15.19 11.39-21.82h.01c7.09-12.64 13.37-22.15 15.88-24 7.08-5.26 10.42-7.54 10.42-7.54a8.0712 8.0712 0 0 1 4.29 4.22 24.0263 24.0263 0 0 1 9.14-8.5c5.97-2.73 15.75-4.32 27.28-5.02 1.03-.06 2.07-.12 3.13-.16 1.42-.07 2.87-.13 4.33-.16.56-.02 1.11-.04 1.67-.04 4.95-.11 10.1-.08 15.31.07 8.78.24 17.75.82 26.27 1.66 2.3.23 4.57.48 6.79.74 4.03.48 7.91 1.01 11.57 1.59q.9452.15 1.86.3c.57.1 1.13.19 1.69.29 9.12 1.59 16.57 3.48 21.05 5.51.09.05.2.09.31.14.35.16.69.33 1.03.5.29.14.58.29.86.45.52.27 1.02.56 1.51.87a4.0684 4.0684 0 0 1 .48.29.51.51 0 0 1 .13.09c.33.21.65.43.97.67.24.17.49.35.72.53a19.7534 19.7534 0 0 1 1.69 1.47c.17.17.34.34.51.52.17.17.33.35.49.53a6.0577 6.0577 0 0 1 .47.56c.16.18.3.37.45.57q.24.3149.45.63a12.0792 12.0792 0 0 1 .84 1.38c.11.21.23.43.33.65.01.01.02.02.02.03.1.22.21.45.31.68a.1669.1669 0 0 0 .02.05c.02.06.05.12.07.19l.01.01a7.7828 7.7828 0 0 1 .29.81 3.0219 3.0219 0 0 1 .11.32c.11.33.2.67.29 1.02.22.88.45 1.87.7 2.95.16.65.31 1.34.47 2.06.16.73.32 1.48.49 2.27.23 1.06.46 2.17.7 3.35.07.35.14.71.22 1.08.09.46.19.93.28 1.42.08.39.15.79.23 1.19.07.32.13.65.19.98.05.23.09.47.14.71.08.43.17.87.25 1.31.03.17.07.35.1.53.1.51.19 1.04.29 1.57q.4952 2.67 1.01 5.6c.11.63.22 1.27.33 1.93.51 2.95 1.03 6.08 1.55 9.37.25 1.53.5 3.1.74 4.71.18 1.2.36 2.41.54 3.64.14.97.29 1.94.43 2.92.33 2.28.65 4.62.98 7.01q.345 2.5653.69 5.22.63 4.845 1.23 9.98c.27 2.25.53 4.55.78 6.87.18 1.65.36 3.28.54 4.91 1.56 14.1 3.02 27.42 4.1 40.8a452.12 452.12 0 0 1 -.59 84.47z" fill="#fff" stroke="#000" stroke-miterlimit="10" stroke-width=".75"/><path d="m300.327 396.225v25.57s-.45.23-1.35.64a123.6 123.6 0 0 1 -20.34 6.73.4281.4281 0 0 1 -.05.01 217.8421 217.8421 0 0 1 -37.89 5.77 296.2124 296.2124 0 0 1 -45.24-.48 189.9266 189.9266 0 0 1 -18.32-6.43 191.8473 191.8473 0 0 1 -28.1-14.33c-.41-.09-.79-.18-1.14-.28-1.46-.42-2.44-.9-2.58-1.46-.07-.26-.13-.51-.19-.74-.3-.19-.6-.38-.9-.58v-10.39s.25.02.73.05c.57.05 1.49.12 2.71.2.19.02.4.03.61.05 4.33.3 11.91.79 21.51 1.27 8.77.44 19.23.87 30.48 1.13.76.02 1.51.04 2.27.06h.01c6.47.14 13.17.22 19.93.22h.85q4.35 0 8.72-.06h.1q4.7853-.06 9.54-.19.54-.0147 1.08-.03c.9-.03 1.8-.05 2.7-.08q4.29-.15 8.51-.36c7.49-.38 14.72-.92 21.45-1.67.6-.07 1.2-.14 1.8-.22a159.2212 159.2212 0 0 0 18.75-3.22c1.1-.27 2.17-.55 3.2-.85.3902-.1.7701-.2201 1.15-.33z"/><path d="m173.1971 422.9964a17.8724 17.8724 0 0 0 -9.38-6.33l-6.03-1.68-5.15-1.43c-1.34-3.34-2.84-7.27-4.43-11.61q-.27-.705-.54-1.44c-.86-2.33-1.74-4.78-2.64-7.32-9.29-26.18-20.42-61.35-23.92-77.53 1.05-2.51 2.93-6.55 5.38-11.63.48-.99.97-2.02 1.5-3.09-8.78-4.73-26.67-11.93-37.66-16.22-.42 1.44-.81 2.86-1.18 4.26a151.8608 151.8608 0 0 0 -4.36 21.67c-1.25 11.1 6.66 38.13 18.62 63.84a193.3342 193.3342 0 0 0 40.82 36.16c.3.2.6.39.9.58a5.548 5.548 0 0 0 2.77 2.2c.35.1.73.19 1.14.28a191.8571 191.8571 0 0 0 28.1 14.33z" fill="#fff" stroke="#000" stroke-miterlimit="10" stroke-width=".75"/><path d="m196.4109 119.0361c1.6173 17.9094.6031 40.12-15.7079 52.285 0 0 5.9213 18.0863 44.7934 17.6739 35.6373-.5008 20.2584-18.44 20.2584-18.44-22.6708-4.4479-18.0653-29.2207-12.0618-43.2125z" fill="#fff" stroke="#000" stroke-miterlimit="10" stroke-width=".75"/><path d="m250.7441 107.1651a21.7608 21.7608 0 0 1 -10.6641 13.2554c-6.7985 3.417-11.7329-2.9456-11.13-10.7516.5483-6.9812 4.7425-17.1731 12.1715-17.32 5.6925.0471 10.2715 5.0439 10.2277 11.1606a11.8182 11.8182 0 0 1 -.6051 3.6556z" fill="#fff" stroke="#000" stroke-miterlimit="10" stroke-width=".75"/><path d="m178.1536 96.06c7.1823 23.86 10.3074 38.2933 24.48 47.9255 21.3 14.7282 45.9173-2.7689 45.3416-28.1309-.4112-22.8286-12.1989-57.97-36.0485-62.5064s-41.1199 18.8818-33.7731 42.7118z" fill="#fff" stroke="#000" stroke-miterlimit="10" stroke-width=".75"/><path d="m182.759 111.4658c9.4576.2356 8.69-19.53 6.031-23.5651 9.6769-2.0031 45.4818-16.537 45.6189-22.3693s-7.98-18.1851-16.0936-20.5614c-11.5685 1.2666-47.6181 14.6231-48.934 26.0521s-3.5637 34.7291 13.3777 40.4437z"/><path d="m174.6173 120.3027a22.0279 22.0279 0 0 0 15.5707 7.07c7.6209 0 9.0738-7.8648 4.9893-14.522-3.6734-5.8913-12.0893-13.2259-18.8056-10.0741s-6.8807 11.9588-1.7544 17.5261z" fill="#fff" stroke="#000" stroke-miterlimit="10" stroke-width=".75"/><path d="m232.103 192.53c4.8248 29.4564 12.8569 152.1128 8.58 242.5439 9.924-112.9361-8.58-242.5439-8.58-242.5439z"/><path d="m204.1414 119.743a1.4908 1.4908 0 0 0 1.3981-1.06 1.5892 1.5892 0 0 0 -.9254-1.9713l-.0066-.0023a40.2292 40.2292 0 0 1 -17.3527-13.7856 1.4128 1.4128 0 0 0 -2.0286-.324 1.6388 1.6388 0 0 0 -.3015 2.18 42.8587 42.8587 0 0 0 18.7507 14.9049z" fill="#e55b2d"/><path d="m196.9317 131.29a22.8367 22.8367 0 0 0 9.7866-2.3565 1.6814 1.6814 0 0 0 .7265-2.165 1.4712 1.4712 0 0 0 -2.0149-.7806s-9.019 4.6541-15.9546-.2062a1.418 1.418 0 0 0 -2.0286.4418 1.6334 1.6334 0 0 0 .4139 2.1626l.0247.0172a15.6364 15.6364 0 0 0 9.0464 2.8867z" fill="#e55b2d"/><path d="m246.2209 102.4227c4.0846 3.6231 2.5768 25.0379.6305 31.047a22.7823 22.7823 0 0 1 -13.7067 14.5514c-8.6078 2.4744-27.1392 5.2138-28.9759-8.4245s-6.1132-16.3483-2.1931-23.5651 20.8067-16.201 29.6612-16.849c5.9214-.2946 9.8141-1.031 14.584 3.2402z" fill="#e55b2d"/><path d="m226.3675 191.1227-4.9931 5.3179s-4.63 15.5214-6.4953 52.1985-2.6646 137.2609-2.6646 137.2609l19.8885 17.3289 15.8822-17.8846s-2.1224-103.9185-4.3761-128.9256-9.1985-58.6278-9.1985-58.6278z" fill="#e55b2d"/><path d="m153.202 244.263 3.268 16.472 8.752 4.992h35.151l7.216-4.992v-18.764z" fill="#fff" stroke="#000" stroke-miterlimit="10" stroke-width=".75"/><circle cx="181.6919" cy="257.7621" fill="#e55b2d" r="5.6467"/><path d="m174.6871 272.8431c.5048 0 6.7891-3.0519 6.7891-3.0519h2.6369s5.8443.6541 6.0967 1.6006 3.5337 19.12 3.5337 19.12l-16.1535 2.2711z" fill="#fff" stroke="#000" stroke-miterlimit="10" stroke-width=".75"/><path d="m181.5645 266.815h2.3736v5.102h-2.3736z" fill="#fff" transform="matrix(.99482305 -.10162235 .10162235 .99482305 -26.4274 19.966)"/><path d="m183.5614 266.8453.4919 4.8262-2.112.2153-.492-4.8262zm.2234-.2742-2.61.2661.5427 5.3238 2.61-.2661z"/><path d="m180.9124 261.6716h2.6234v5.0456h-2.6234z" fill="#e55b2d" transform="matrix(.99484396 -.10141746 .10141746 .99484396 -25.8545 19.843)"/><path d="m194.2082 227.5594c-1.1715-4.03 3.194-7.5221 4.7668-4.8356s2.0679 8.3281 6.7316 11.82 12.164 8.2022 13.1806 10.5486l-7.7947 3.824s-12.0867-10.577-11.7978-11.1142-5.0865-10.2428-5.0865-10.2428z"/><path d="m357.8643 293.6484c-.7-6.691-9.673-22.5622-18.2571-37.7591-4.94-8.7655-9.751-17.3106-12.772-23.755-8.2469-17.6085-30.1994-34.3486-30.1994-34.3486l3.6956 63.42 16.0656 17.8677 3.1252 3.4624c-1.4265-.7522-2.8789-1.5044-4.344-2.2436-5.3165-2.6968-10.9052-5.29-16.6493-7.78-34.072-14.7641-72.7334-27.0111-85.9087-30.5529 0 0-12.8854-13.4186-17.1924-15.0974-2.1471-.837-11.1063-5.3669-16.984-5.7308-5.9111-.3659-11.1386 7.398-12.0764 13.233s5.5121 12.8161 8.8464 16.15 10.8075 9.9428 14.6918 10.2207 19.3449 4.59 19.3449 4.59c29.1295 16.4782 103.4306 57.3384 124.7295 57.7834 26.672.5578 25-18.8921 23.8843-29.4598z" fill="#fff" stroke="#000" stroke-miterlimit="10" stroke-width=".75"/><path d="m300.3185 189.2668c-9.6215-8.2469-23.12-16.3641-29.5771-12.3835 5.5628 2.5676 10.49 6.4833 12.0461 12.8242 2.8007 11.3068 8.26 39.4444 12.3443 76.6716 1.089 1.945 2.2432 4.0328 3.3971 6.1332 5.7441 2.49 11.3328 5.0832 16.6493 7.78l1.2188-1.2188s11.1929-11.4875 17.5772-12.6944 15.0043-2.6 15.0043-2.6-38.7147-65.9934-48.66-74.5123z" fill="#fff" stroke="#000" stroke-miterlimit="10" stroke-width=".75"/><path d="m214.8791 178.9479c1.4491-1.3141 14.7271-5.3478 22.9769 0l-3.4454 18.8434-13.0362-1.3507z" fill="#e55b2d"/><path d="m178.4443 171.0232s-19.6125 3.6938-24.8918 5.2281-13.4241 4.5612-13.4241 4.5612-6.1345-4.7735-3.1084-7.4726 44.04-10.0029 44.04-10.0029z" fill="#fff" stroke="#000" stroke-miterlimit="10" stroke-width=".75"/><path d="m222.7389 176.8833-15.15 23.9644s-29.27-25.5745-31.7386-36.3993c1.4936-2.8488 4.2093-5.0467 8.79-6.2519.0003 0 32.6804 16.9509 38.0986 18.6868z" fill="#fff" stroke="#000" stroke-miterlimit="10" stroke-width=".75"/><path d="m274.3471 182.3473s18.3647 73.6389 20.7847 84.0318c0 0 2.0032-6.6984 1.3781-10.5521s-6.3258-48.5066-14.4161-68.2755-7.7467-5.2042-7.7467-5.2042z" fill="#e55b2d"/><path d="m247.2541 163.9059s26.1117 2.3589 35.8756 13.99c0 0 2.5447 8.95-1.0359 9.6557 0 0-15.4829-12.7933-34.2236-13.6414z" fill="#fff" stroke="#000" stroke-miterlimit="10" stroke-width=".75"/><path d="m237.43 158.4347s-3.02 13.7937-7.4671 18.4486c0 0 15.2436 22.8707 15.8379 22.5751s5.1834-26.9752 3.0085-32.9376-11.3793-8.0861-11.3793-8.0861z" fill="#fff" stroke="#000" stroke-miterlimit="10" stroke-width=".75"/><path d="m159.3875 265.7273 3.89 36.26s24.7292 2.7786 39.4558 0c-4.4447 1.8337-15.6463 3.3228-39.8726 1.2349 0 .0003-1.6671-9.8482-3.4732-37.4949z"/><path d="m200.7882 400.3961s-3.7812 17.0265-3.2255 30.6415l5.4483-30.6415z" fill="#fff"/><path d="m274.976 398.1732s3.6121 20.2765 3.6121 31.3943c0 0 1.8061-12.8473-1.8061-31.3943z" fill="#fff"/><path d="m223.6669 401.2143s-2.9434 14.6894-.2776 27.458c0 0 25.5111 5.8055 33.1575-1.9241.9014-9.4983.7962-18.3415-2.9016-24.8467 0 0-12.0952-2.2334-29.9783-.6872z" fill="#fff" stroke="#000" stroke-miterlimit="10" stroke-width=".75"/><path d="m221.3744 196.4406s8.4439-2.3245 13.0362 1.3507" fill="none" stroke="#000" stroke-miterlimit="10" stroke-width=".25"/></svg>