<svg fill-rule="evenodd" height="202.14999mm" preserveAspectRatio="xMidYMid" stroke-linejoin="round" stroke-width="28.222" viewBox="0 0 20837.7 20214.999" width="208.377mm" xmlns="http://www.w3.org/2000/svg"><g transform="matrix(1.0754934 0 0 1.0754934 -943.20772 -3748.0945)"><path d="m2351 8198h16398v9421h-16398z" fill="none"/><path d="m5430 10792c-571-37-1114-20-1621 73-1032 806-1032 1838 0 3096 717 414 1404 586 2057 484l193 266-121 72c-736-28-1456-135-2129-483l-217-194c-1853-2010-875-2529-25-3483l267-97c570-191 1090-130 1596 0z" fill="#fff"/><path d="m5430 10526v266c-571-37-1114-20-1621 73-1032 806-1032 1838 0 3096 717 414 1404 586 2057 484l193 266-121 72c-736-28-1456-135-2129-483l-217-194c-1853-2010-875-2529-25-3483l267-97c570-191 1090-130 1596 0z" fill="none" stroke="#000" stroke-linecap="round" stroke-linejoin="round" stroke-width="170"/><path d="m15541 10792c571-37 1114-20 1621 73 1032 806 1032 1838 0 3096-717 414-1404 586-2057 484l-193 266 121 72c736-28 1457-135 2129-483l218-194c1852-2010 874-2529 24-3483l-266-97c-571-191-1091-130-1597 0z" fill="#fff"/><path d="m15541 10526v266c571-37 1114-20 1621 73 1032 806 1032 1838 0 3096-717 414-1404 586-2057 484l-193 266 121 72c736-28 1457-135 2129-483l218-194c1852-2010 874-2529 24-3483l-266-97c-571-191-1091-130-1597 0z" fill="none" stroke="#000" stroke-linecap="round" stroke-linejoin="round" stroke-width="170"/><path d="m5334 11348-1-845c1497 8 2456-468 3315-1033 1210-1571 2572-1353 4040 106 882 645 1901 881 2976 948l-24 873c-307 1536-151 3130-1403 4547-3730 2696-5622 1194-7597-120-1125-1211-1162-2898-1306-4476z" fill="#fff"/><path d="m5334 11348-1-845c1497 8 2456-468 3315-1033 1210-1571 2572-1353 4040 106 882 645 1901 881 2976 948l-24 873c-307 1536-151 3130-1403 4547-3730 2696-5622 1194-7597-120-1125-1211-1162-2898-1306-4476z" fill="none" stroke="#000" stroke-linecap="round" stroke-linejoin="round" stroke-width="170"/><path d="m5334 11348 2370-338c537-293 795-517 1525-1089 609-451 1355-996 2564-24 457 457 820 892 1669 1161l2178 339z" fill="#fff"/><path d="m5334 11348 2370-338c537-293 795-517 1525-1089 609-451 1355-996 2564-24 457 457 820 892 1669 1161l2178 339" fill="none" stroke="#000" stroke-linecap="round" stroke-linejoin="round" stroke-width="170"/><path d="m6713 12026 1137-49 1113-145c609-451 1790-585 2709-97 239 143 650 119 799 146l1862 96z" fill="#fff"/><path d="m6713 12026 1137-49 1113-145c609-451 1790-585 2709-97 239 143 650 119 799 146l1862 96" fill="none" stroke="#000" stroke-linecap="round" stroke-linejoin="round" stroke-width="170"/><path d="m14358 13259c-3213 1439-5523 851-7718 0z" fill="#fff"/><path d="m14358 13259c-3213 1439-5523 851-7718 0" fill="none" stroke="#000" stroke-linecap="round" stroke-linejoin="round" stroke-width="170"/><path d="m14115 14759c-3030 1440-5211 851-7282 0z" fill="#fff"/><g fill="none" stroke="#000" stroke-linecap="round" stroke-linejoin="round" stroke-width="170"><path d="m14115 14759c-3030 1440-5211 851-7282 0"/><path d="m5334 10917 168-24"/><path d="m5838 10845 168-24"/><path d="m6343 10773 168-24"/><path d="m6847 10701 169-24"/><path d="m7352 10629 168-25"/><path d="m7839 10503c51-29 99-58 146-87"/><path d="m8268 10229c46-31 91-64 138-99"/><path d="m8676 9924c42-33 87-68 133-104"/><path d="m9075 9611c43-34 88-70 135-106"/><path d="m9485 9305c47-32 94-63 143-94"/><path d="m9928 9053c52-23 105-43 159-60"/><path d="m10418 8928c56-5 113-5 171-2"/><path d="m10921 8982c53 15 108 33 163 55"/><path d="m11388 9184c47 27 94 57 142 89"/><path d="m11808 9480c40 41 80 81 119 121"/><path d="m12168 9841c40 39 81 78 124 116"/><path d="m12554 10172c44 33 91 66 139 97"/><path d="m12988 10438c49 24 100 47 153 70"/><path d="m13462 10626v1l168 26"/><path d="m13966 10705 168 26"/><path d="m14469 10783 168 26"/><path d="m14973 10862 168 26"/><path d="m15477 10940 163 25"/></g></g><path d="m0 0h20839.836v20216.049h-20839.836z" fill="none"/><path d="m20838.76 10107.487c0 1774.564-481.821 3516.864-1395.99 5053.744-914.17 1536.88-2229.498 2812.415-3813.7 3699.697-1583.126 887.282-3380.276 1354.046-5208.614 1354.046-1829.4146 0-3626.5641-466.764-5209.6904-1354.046-1584.2018-887.282-2899.5303-2162.817-3813.6997-3699.697-914.16936-1536.88-1395.9904066-3279.18-1395.9904066-5053.744 0-1774.5641 481.8210466-3516.8634 1395.9904066-5053.7435 914.1694-1536.88 2229.4979-2812.4152 3813.6997-3699.6973 1583.1263-887.28206 3380.2758-1354.0462 5208.6144-1354.0462 1829.414 0 3626.564 466.76414 5209.69 1354.0462 1584.202 887.2821 2899.53 2162.8173 3813.7 3699.6973 914.169 1536.8801 1395.99 3279.1794 1395.99 5053.7435zm-17313.2926-5803.3624-146.2671 167.777-141.9651 171.0035-136.5877 174.2299-133.3612 177.4564-127.9837 180.6829-123.6817 183.9094-119.3798 187.1358-114.0023 189.2869-108.6248 192.5133-104.3229 194.6643-100.0209 196.8153-93.5679 200.0418-89.266 202.1927-83.8885 203.2683-78.511 205.4192-74.209 208.6457-67.7561 208.6458-62.3786 210.7967-58.0767 212.9477-51.6237 212.9477-46.2462 215.0986-40.8687 216.1742-35.4913 216.1742-29.0383 218.3252-24.7364 218.3251-18.2834 218.3252-12.9059 219.4006-7.5284 219.4007-2.151 219.4003 4.302 219.401 8.6039 219.401 15.0569 219.4 20.4344 218.325 26.8873 217.25 31.1893 218.325 37.6423 216.174 43.0197 215.099 48.3972 215.099 53.7747 212.948 59.1521 211.872 64.5296 209.721 69.9071 209.721 75.2846 206.495 80.662 205.419 84.9639 203.268 91.417 201.118 95.7189 197.89 101.0964 196.816 106.4738 193.589 110.7758 191.437 116.1533 188.212 120.4553 186.06 124.7572 182.834 130.1347 179.607 134.4367 176.381 138.7387 173.155 144.1161 169.928 147.3426 166.701 151.6445 162.4 155.9466 159.173 160.2485 154.871 163.475 151.644 167.777 147.343 172.0789 143.041 175.3055 139.814 178.5319 134.436 181.7583 130.135 184.9849 125.833 188.2114 122.606 191.4378 116.153 194.6643 112.927 196.8153 107.549 200.0418 103.248 202.1927 97.87 205.4193 92.492 206.4947 88.191 209.7212 83.888 211.8722 77.436 212.9477 73.133 215.0987 67.756 217.2497 63.454 218.3251 57.002 219.4007 52.699 221.5516 46.246 221.5517 41.944 223.7026 36.567 223.7026 30.114 224.7782 25.812 225.8536 19.359 224.7781 15.056 226.9293 8.604 225.853 4.302 225.854-2.151 226.929-6.453 225.854-12.906 224.778-18.283 225.853-23.661 223.703-29.038 223.703-33.34 222.627-39.794 221.552-45.17 220.476-50.549 218.325-54.85 217.25-61.303 216.174-65.605 214.023-70.983 211.872-76.36 210.797-81.737 207.57-86.04 205.419-91.416 203.269-96.795 201.117-101.096 197.891-106.474 195.739-109.7 192.514-116.154 189.287-119.379 187.135-124.758 182.834-129.059 179.608-133.361 176.381-137.663 173.154-141.965zm13786.7496 11604.5744 146.268-166.702 141.965-171.003 137.663-175.306 132.286-177.456 129.059-180.683 123.681-183.91 118.305-186.06 115.078-190.362 108.624-191.438 104.323-194.664 100.021-197.891 93.568-198.966 89.266-202.193 83.888-204.344 78.512-205.419 73.133-207.57 68.832-209.722 62.378-210.796 57.001-211.873 52.7-214.023 46.246-215.098 40.869-215.099 35.491-217.25 29.038-217.249 24.737-218.326 18.283-219.4 12.906-218.325 7.528-219.401 2.151-219.401-4.302-220.4758-8.604-218.3252-15.057-219.4007-20.434-218.3251-26.887-218.3252-31.19-217.2496-37.642-217.2497-43.02-215.0987-48.397-214.0232-53.774-214.0232-59.153-211.8722-64.529-209.7212-69.907-208.6457-75.285-207.5702-80.662-205.4193-84.964-202.1927-91.417-201.1173-95.719-198.9663-101.096-196.8153-106.474-193.5888-110.776-191.4378-116.153-188.2114-120.455-186.0603-124.758-182.8339-130.134-179.6074-134.437-176.3809-138.739-173.1545-144.116-169.9279-147.342-166.7015-151.645-162.3995-155.946-159.173-160.249-154.8711-163.475-151.6446-167.777-147.3426-172.079-143.0406-175.305-139.8141-178.532-134.4367-181.759-130.1347-184.984-125.8327-188.212-122.6063-191.438-116.1533-194.664-112.9268-196.815-107.5493-200.042-103.2474-202.193-97.8699-205.419-92.4924-206.495-88.1905-209.721-83.8885-211.872-78.511-212.948-72.058-215.098-68.8316-217.25-62.3786-218.325-57.0012-219.401-52.6992-221.552-46.2462-222.627-41.9442-222.627-36.5668-223.702-30.1138-224.779-25.8119-225.853-19.3588-225.854-15.057-225.853-8.6039-225.854-4.302-226.929 2.151-225.854 6.453-225.8534 12.9059-225.8536 18.2834-224.7782 23.6608-224.7781 29.0384-222.6271 33.3403-222.6272 39.7932-221.5516 45.1707-220.4762 50.5482-219.4006 55.9257-217.2497 60.2276-215.0987 65.6051-214.0231 72.0581-212.9477 76.36-209.7213 80.662-208.6457 87.115-205.4192 91.4169-203.2683 95.7189-201.1172 101.0964-197.8908 106.4739-195.7398 110.7758-192.5134 115.0778-189.2868 120.4552-186.0604 123.6818-182.8338 129.0592-179.6074 133.3612-176.381 137.6631-173.1544 141.9652z" fill="#f00"/></svg>