<svg width="517" height="400" viewBox="0 0 517 400" fill="none" xmlns="http://www.w3.org/2000/svg">
<g clip-path="url(#clip0_376_1533)">
<path d="M351.292 0.88776C394.931 0.888639 436.783 18.2247 467.64 49.0824C498.498 79.94 515.834 121.792 515.835 165.431C515.835 167.375 515.796 169.484 515.717 171.872C514.687 197.705 507.589 222.933 494.997 245.513C482.405 268.092 464.672 287.39 443.235 301.843C421.799 316.296 397.26 325.497 371.606 328.704C345.952 331.91 319.903 329.03 295.569 320.297L294.86 320.042L294.493 320.7C280.862 345.113 260.042 364.734 234.864 376.894C209.686 389.055 181.373 393.163 153.777 388.662C150.189 387.417 146.591 386.046 143.08 384.586C120.014 375.106 98.9638 361.323 81.0527 343.971C66.037 329.368 53.9305 312.046 45.3766 292.927C41.7198 280.459 39.8678 267.532 39.8772 254.539C39.8088 232.821 45.006 211.41 55.0236 192.141C67.8007 167.485 87.8135 147.327 112.376 134.372C136.939 121.417 164.877 116.285 192.44 119.664L193.188 119.756L193.4 119.033C203.403 85.3272 223.862 55.6742 251.821 34.3577C280.382 12.542 315.352 0.775399 351.292 0.88776ZM138.43 4.28492C147.479 4.28492 156.324 6.96807 163.847 11.9951C171.371 17.022 177.235 24.1671 180.697 32.5267C184.16 40.8863 185.066 50.0849 183.301 58.9594C181.535 67.8339 177.178 75.9856 170.78 82.3837C164.382 88.7819 156.23 93.1391 147.356 94.9043C138.481 96.6696 129.283 95.7636 120.923 92.3009C112.563 88.8383 105.418 82.9745 100.391 75.4511C95.3643 67.9276 92.6812 59.0825 92.6812 50.0342C92.6949 37.9049 97.5193 26.2764 106.096 17.6997C114.673 9.12304 126.301 4.29864 138.43 4.28492ZM351.292 0C315.554 0.00405243 280.777 11.5769 252.163 32.9879C223.549 54.3988 202.635 84.4974 192.548 118.782C164.805 115.381 136.685 120.547 111.962 133.587C87.2391 146.626 67.0958 166.916 54.2353 191.732C38.0878 223.065 34.6164 259.41 44.5409 293.233C53.1447 312.474 65.3234 329.907 80.4301 344.605C98.409 362.053 119.558 375.902 142.739 385.406C146.326 386.898 149.932 388.271 153.558 389.525C181.344 394.074 209.857 389.949 235.215 377.711C260.572 365.472 281.542 345.716 295.268 321.132C319.734 329.912 345.923 332.808 371.716 329.584C397.508 326.361 422.179 317.109 443.732 302.579C465.284 288.048 483.112 268.646 495.772 245.944C508.433 223.242 515.569 197.879 516.604 171.906C516.675 169.763 516.723 167.597 516.723 165.431C516.722 121.556 499.292 79.4788 468.268 48.4547C437.244 17.4305 395.166 0.000910367 351.292 0V0ZM138.43 4.28492C129.206 4.28492 120.19 7.02013 112.52 12.1447C104.851 17.2692 98.8733 24.5529 95.3434 33.0747C91.8136 41.5965 90.89 50.9736 92.6895 60.0203C94.489 69.067 98.9308 77.3769 105.453 83.8992C111.975 90.4215 120.285 94.8633 129.332 96.6628C138.379 98.4623 147.756 97.5387 156.278 94.0089C164.799 90.479 172.083 84.5014 177.208 76.832C182.332 69.1626 185.067 60.1458 185.067 50.9219C185.067 38.553 180.154 26.6907 171.408 17.9446C162.662 9.19845 150.799 4.28492 138.43 4.28492Z" fill="black"/>
<g style="mix-blend-mode:overlay" opacity="0.25">
<g style="mix-blend-mode:overlay">
<path d="M90.7782 72.4979C92.1278 72.4979 93.2219 71.4038 93.2219 70.0542C93.2219 68.7046 92.1278 67.6105 90.7782 67.6105C89.4286 67.6105 88.3345 68.7046 88.3345 70.0542C88.3345 71.4038 89.4286 72.4979 90.7782 72.4979Z" fill="#16CA4D"/>
</g>
<g style="mix-blend-mode:overlay">
<path d="M111.232 72.4979C112.582 72.4979 113.676 71.4038 113.676 70.0542C113.676 68.7046 112.582 67.6105 111.232 67.6105C109.883 67.6105 108.789 68.7046 108.789 70.0542C108.789 71.4038 109.883 72.4979 111.232 72.4979Z" fill="#16CA4D"/>
</g>
<g style="mix-blend-mode:overlay">
<path d="M131.687 72.4979C133.036 72.4979 134.131 71.4038 134.131 70.0542C134.131 68.7046 133.036 67.6105 131.687 67.6105C130.337 67.6105 129.243 68.7046 129.243 70.0542C129.243 71.4038 130.337 72.4979 131.687 72.4979Z" fill="#16CA4D"/>
</g>
<g style="mix-blend-mode:overlay">
<path d="M152.141 72.4979C153.491 72.4979 154.585 71.4038 154.585 70.0542C154.585 68.7046 153.491 67.6105 152.141 67.6105C150.791 67.6105 149.697 68.7046 149.697 70.0542C149.697 71.4038 150.791 72.4979 152.141 72.4979Z" fill="#16CA4D"/>
</g>
<g style="mix-blend-mode:overlay">
<path d="M172.595 72.4978C173.945 72.4978 175.039 71.4038 175.039 70.0542C175.039 68.7047 173.945 67.6106 172.595 67.6106C171.246 67.6106 170.152 68.7047 170.152 70.0542C170.152 71.4038 171.246 72.4978 172.595 72.4978Z" fill="#16CA4D"/>
</g>
<g style="mix-blend-mode:overlay">
<path d="M90.7782 85.7118C92.1278 85.7118 93.2219 84.6177 93.2219 83.2681C93.2219 81.9185 92.1278 80.8244 90.7782 80.8244C89.4286 80.8244 88.3345 81.9185 88.3345 83.2681C88.3345 84.6177 89.4286 85.7118 90.7782 85.7118Z" fill="#16CA4D"/>
</g>
<g style="mix-blend-mode:overlay">
<path d="M111.232 85.7118C112.582 85.7118 113.676 84.6177 113.676 83.2681C113.676 81.9185 112.582 80.8244 111.232 80.8244C109.883 80.8244 108.789 81.9185 108.789 83.2681C108.789 84.6177 109.883 85.7118 111.232 85.7118Z" fill="#16CA4D"/>
</g>
<g style="mix-blend-mode:overlay">
<path d="M131.687 85.7118C133.036 85.7118 134.131 84.6177 134.131 83.2681C134.131 81.9185 133.036 80.8244 131.687 80.8244C130.337 80.8244 129.243 81.9185 129.243 83.2681C129.243 84.6177 130.337 85.7118 131.687 85.7118Z" fill="#16CA4D"/>
</g>
<g style="mix-blend-mode:overlay">
<path d="M152.141 85.7118C153.491 85.7118 154.585 84.6177 154.585 83.2681C154.585 81.9185 153.491 80.8244 152.141 80.8244C150.791 80.8244 149.697 81.9185 149.697 83.2681C149.697 84.6177 150.791 85.7118 152.141 85.7118Z" fill="#16CA4D"/>
</g>
<g style="mix-blend-mode:overlay">
<path d="M172.595 85.7117C173.945 85.7117 175.039 84.6177 175.039 83.2681C175.039 81.9185 173.945 80.8245 172.595 80.8245C171.246 80.8245 170.152 81.9185 170.152 83.2681C170.152 84.6177 171.246 85.7117 172.595 85.7117Z" fill="#16CA4D"/>
</g>
<g style="mix-blend-mode:overlay">
<path d="M90.7782 98.9257C92.1278 98.9257 93.2219 97.8316 93.2219 96.482C93.2219 95.1324 92.1278 94.0383 90.7782 94.0383C89.4286 94.0383 88.3345 95.1324 88.3345 96.482C88.3345 97.8316 89.4286 98.9257 90.7782 98.9257Z" fill="#16CA4D"/>
</g>
<g style="mix-blend-mode:overlay">
<path d="M111.232 98.9257C112.582 98.9257 113.676 97.8316 113.676 96.482C113.676 95.1324 112.582 94.0383 111.232 94.0383C109.883 94.0383 108.789 95.1324 108.789 96.482C108.789 97.8316 109.883 98.9257 111.232 98.9257Z" fill="#16CA4D"/>
</g>
<g style="mix-blend-mode:overlay">
<path d="M131.687 98.9257C133.036 98.9257 134.131 97.8316 134.131 96.482C134.131 95.1324 133.036 94.0383 131.687 94.0383C130.337 94.0383 129.243 95.1324 129.243 96.482C129.243 97.8316 130.337 98.9257 131.687 98.9257Z" fill="#16CA4D"/>
</g>
<g style="mix-blend-mode:overlay">
<path d="M152.141 98.9257C153.491 98.9257 154.585 97.8316 154.585 96.482C154.585 95.1324 153.491 94.0383 152.141 94.0383C150.791 94.0383 149.697 95.1324 149.697 96.482C149.697 97.8316 150.791 98.9257 152.141 98.9257Z" fill="#16CA4D"/>
</g>
<g style="mix-blend-mode:overlay">
<path d="M172.595 98.9256C173.945 98.9256 175.039 97.8316 175.039 96.482C175.039 95.1324 173.945 94.0384 172.595 94.0384C171.246 94.0384 170.152 95.1324 170.152 96.482C170.152 97.8316 171.246 98.9256 172.595 98.9256Z" fill="#16CA4D"/>
</g>
<g style="mix-blend-mode:overlay">
<path d="M90.7782 112.139C92.1278 112.139 93.2219 111.045 93.2219 109.696C93.2219 108.346 92.1278 107.252 90.7782 107.252C89.4286 107.252 88.3345 108.346 88.3345 109.696C88.3345 111.045 89.4286 112.139 90.7782 112.139Z" fill="#16CA4D"/>
</g>
<g style="mix-blend-mode:overlay">
<path d="M111.232 112.139C112.582 112.139 113.676 111.045 113.676 109.696C113.676 108.346 112.582 107.252 111.232 107.252C109.883 107.252 108.789 108.346 108.789 109.696C108.789 111.045 109.883 112.139 111.232 112.139Z" fill="#16CA4D"/>
</g>
<g style="mix-blend-mode:overlay">
<path d="M131.687 112.139C133.036 112.139 134.131 111.045 134.131 109.696C134.131 108.346 133.036 107.252 131.687 107.252C130.337 107.252 129.243 108.346 129.243 109.696C129.243 111.045 130.337 112.139 131.687 112.139Z" fill="#16CA4D"/>
</g>
<g style="mix-blend-mode:overlay">
<path d="M152.141 112.139C153.491 112.139 154.585 111.045 154.585 109.696C154.585 108.346 153.491 107.252 152.141 107.252C150.791 107.252 149.697 108.346 149.697 109.696C149.697 111.045 150.791 112.139 152.141 112.139Z" fill="#16CA4D"/>
</g>
<g style="mix-blend-mode:overlay">
<path d="M172.595 112.139C173.945 112.139 175.039 111.045 175.039 109.696C175.039 108.346 173.945 107.252 172.595 107.252C171.246 107.252 170.152 108.346 170.152 109.696C170.152 111.045 171.246 112.139 172.595 112.139Z" fill="#16CA4D"/>
</g>
<g style="mix-blend-mode:overlay">
<path d="M90.7782 125.353C92.1278 125.353 93.2219 124.259 93.2219 122.91C93.2219 121.56 92.1278 120.466 90.7782 120.466C89.4286 120.466 88.3345 121.56 88.3345 122.91C88.3345 124.259 89.4286 125.353 90.7782 125.353Z" fill="#16CA4D"/>
</g>
<g style="mix-blend-mode:overlay">
<path d="M111.232 125.353C112.582 125.353 113.676 124.259 113.676 122.91C113.676 121.56 112.582 120.466 111.232 120.466C109.883 120.466 108.789 121.56 108.789 122.91C108.789 124.259 109.883 125.353 111.232 125.353Z" fill="#16CA4D"/>
</g>
<g style="mix-blend-mode:overlay">
<path d="M131.687 125.353C133.036 125.353 134.131 124.259 134.131 122.91C134.131 121.56 133.036 120.466 131.687 120.466C130.337 120.466 129.243 121.56 129.243 122.91C129.243 124.259 130.337 125.353 131.687 125.353Z" fill="#16CA4D"/>
</g>
<g style="mix-blend-mode:overlay">
<path d="M152.141 125.353C153.491 125.353 154.585 124.259 154.585 122.91C154.585 121.56 153.491 120.466 152.141 120.466C150.791 120.466 149.697 121.56 149.697 122.91C149.697 124.259 150.791 125.353 152.141 125.353Z" fill="#16CA4D"/>
</g>
<g style="mix-blend-mode:overlay">
<path d="M172.595 125.353C173.945 125.353 175.039 124.259 175.039 122.91C175.039 121.56 173.945 120.466 172.595 120.466C171.246 120.466 170.152 121.56 170.152 122.91C170.152 124.259 171.246 125.353 172.595 125.353Z" fill="#16CA4D"/>
</g>
<g style="mix-blend-mode:overlay">
<path d="M90.7782 138.567C92.1278 138.567 93.2219 137.473 93.2219 136.124C93.2219 134.774 92.1278 133.68 90.7782 133.68C89.4286 133.68 88.3345 134.774 88.3345 136.124C88.3345 137.473 89.4286 138.567 90.7782 138.567Z" fill="#16CA4D"/>
</g>
<g style="mix-blend-mode:overlay">
<path d="M111.232 138.567C112.582 138.567 113.676 137.473 113.676 136.124C113.676 134.774 112.582 133.68 111.232 133.68C109.883 133.68 108.789 134.774 108.789 136.124C108.789 137.473 109.883 138.567 111.232 138.567Z" fill="#16CA4D"/>
</g>
<g style="mix-blend-mode:overlay">
<path d="M131.687 138.567C133.036 138.567 134.131 137.473 134.131 136.124C134.131 134.774 133.036 133.68 131.687 133.68C130.337 133.68 129.243 134.774 129.243 136.124C129.243 137.473 130.337 138.567 131.687 138.567Z" fill="#16CA4D"/>
</g>
<g style="mix-blend-mode:overlay">
<path d="M152.141 138.567C153.491 138.567 154.585 137.473 154.585 136.124C154.585 134.774 153.491 133.68 152.141 133.68C150.791 133.68 149.697 134.774 149.697 136.124C149.697 137.473 150.791 138.567 152.141 138.567Z" fill="#16CA4D"/>
</g>
<g style="mix-blend-mode:overlay">
<path d="M172.595 138.567C173.945 138.567 175.039 137.473 175.039 136.124C175.039 134.774 173.945 133.68 172.595 133.68C171.246 133.68 170.152 134.774 170.152 136.124C170.152 137.473 171.246 138.567 172.595 138.567Z" fill="#16CA4D"/>
</g>
<g style="mix-blend-mode:overlay">
<path d="M90.7782 151.781C92.1278 151.781 93.2219 150.687 93.2219 149.337C93.2219 147.988 92.1278 146.894 90.7782 146.894C89.4286 146.894 88.3345 147.988 88.3345 149.337C88.3345 150.687 89.4286 151.781 90.7782 151.781Z" fill="#16CA4D"/>
</g>
<g style="mix-blend-mode:overlay">
<path d="M111.232 151.781C112.582 151.781 113.676 150.687 113.676 149.337C113.676 147.988 112.582 146.894 111.232 146.894C109.883 146.894 108.789 147.988 108.789 149.337C108.789 150.687 109.883 151.781 111.232 151.781Z" fill="#16CA4D"/>
</g>
<g style="mix-blend-mode:overlay">
<path d="M131.687 151.781C133.036 151.781 134.131 150.687 134.131 149.337C134.131 147.988 133.036 146.894 131.687 146.894C130.337 146.894 129.243 147.988 129.243 149.337C129.243 150.687 130.337 151.781 131.687 151.781Z" fill="#16CA4D"/>
</g>
<g style="mix-blend-mode:overlay">
<path d="M152.141 151.781C153.491 151.781 154.585 150.687 154.585 149.337C154.585 147.988 153.491 146.894 152.141 146.894C150.791 146.894 149.697 147.988 149.697 149.337C149.697 150.687 150.791 151.781 152.141 151.781Z" fill="#16CA4D"/>
</g>
<g style="mix-blend-mode:overlay">
<path d="M172.595 151.781C173.945 151.781 175.039 150.687 175.039 149.337C175.039 147.988 173.945 146.894 172.595 146.894C171.246 146.894 170.152 147.988 170.152 149.337C170.152 150.687 171.246 151.781 172.595 151.781Z" fill="#16CA4D"/>
</g>
</g>
<g style="mix-blend-mode:overlay" opacity="0.25">
<g style="mix-blend-mode:overlay">
<path d="M426.562 18.3074C427.912 18.3074 429.006 17.2133 429.006 15.8637C429.006 14.5141 427.912 13.42 426.562 13.42C425.212 13.42 424.118 14.5141 424.118 15.8637C424.118 17.2133 425.212 18.3074 426.562 18.3074Z" fill="#16CA4D"/>
</g>
<g style="mix-blend-mode:overlay">
<path d="M447.016 18.3074C448.366 18.3074 449.46 17.2133 449.46 15.8637C449.46 14.5141 448.366 13.42 447.016 13.42C445.667 13.42 444.573 14.5141 444.573 15.8637C444.573 17.2133 445.667 18.3074 447.016 18.3074Z" fill="#16CA4D"/>
</g>
<g style="mix-blend-mode:overlay">
<path d="M467.471 18.3074C468.82 18.3074 469.914 17.2133 469.914 15.8637C469.914 14.5141 468.82 13.42 467.471 13.42C466.121 13.42 465.027 14.5141 465.027 15.8637C465.027 17.2133 466.121 18.3074 467.471 18.3074Z" fill="#16CA4D"/>
</g>
<g style="mix-blend-mode:overlay">
<path d="M487.925 18.3074C489.275 18.3074 490.369 17.2133 490.369 15.8637C490.369 14.5141 489.275 13.42 487.925 13.42C486.576 13.42 485.481 14.5141 485.481 15.8637C485.481 17.2133 486.576 18.3074 487.925 18.3074Z" fill="#16CA4D"/>
</g>
<g style="mix-blend-mode:overlay">
<path d="M508.379 18.3074C509.729 18.3074 510.823 17.2133 510.823 15.8637C510.823 14.5141 509.729 13.42 508.379 13.42C507.03 13.42 505.936 14.5141 505.936 15.8637C505.936 17.2133 507.03 18.3074 508.379 18.3074Z" fill="#16CA4D"/>
</g>
<g style="mix-blend-mode:overlay">
<path d="M426.562 31.5213C427.912 31.5213 429.006 30.4272 429.006 29.0776C429.006 27.7279 427.912 26.6339 426.562 26.6339C425.212 26.6339 424.118 27.7279 424.118 29.0776C424.118 30.4272 425.212 31.5213 426.562 31.5213Z" fill="#16CA4D"/>
</g>
<g style="mix-blend-mode:overlay">
<path d="M447.016 31.5213C448.366 31.5213 449.46 30.4272 449.46 29.0776C449.46 27.7279 448.366 26.6339 447.016 26.6339C445.667 26.6339 444.573 27.7279 444.573 29.0776C444.573 30.4272 445.667 31.5213 447.016 31.5213Z" fill="#16CA4D"/>
</g>
<g style="mix-blend-mode:overlay">
<path d="M467.471 31.5213C468.82 31.5213 469.914 30.4272 469.914 29.0776C469.914 27.7279 468.82 26.6339 467.471 26.6339C466.121 26.6339 465.027 27.7279 465.027 29.0776C465.027 30.4272 466.121 31.5213 467.471 31.5213Z" fill="#16CA4D"/>
</g>
<g style="mix-blend-mode:overlay">
<path d="M487.925 31.5213C489.275 31.5213 490.369 30.4272 490.369 29.0776C490.369 27.7279 489.275 26.6339 487.925 26.6339C486.576 26.6339 485.481 27.7279 485.481 29.0776C485.481 30.4272 486.576 31.5213 487.925 31.5213Z" fill="#16CA4D"/>
</g>
<g style="mix-blend-mode:overlay">
<path d="M508.379 31.5213C509.729 31.5213 510.823 30.4272 510.823 29.0776C510.823 27.7279 509.729 26.6339 508.379 26.6339C507.03 26.6339 505.936 27.7279 505.936 29.0776C505.936 30.4272 507.03 31.5213 508.379 31.5213Z" fill="#16CA4D"/>
</g>
<g style="mix-blend-mode:overlay">
<path d="M426.562 44.735C427.912 44.735 429.006 43.641 429.006 42.2913C429.006 40.9417 427.912 39.8476 426.562 39.8476C425.212 39.8476 424.118 40.9417 424.118 42.2913C424.118 43.641 425.212 44.735 426.562 44.735Z" fill="#16CA4D"/>
</g>
<g style="mix-blend-mode:overlay">
<path d="M447.016 44.735C448.366 44.735 449.46 43.641 449.46 42.2913C449.46 40.9417 448.366 39.8476 447.016 39.8476C445.667 39.8476 444.573 40.9417 444.573 42.2913C444.573 43.641 445.667 44.735 447.016 44.735Z" fill="#16CA4D"/>
</g>
<g style="mix-blend-mode:overlay">
<path d="M467.471 44.735C468.82 44.735 469.914 43.641 469.914 42.2913C469.914 40.9417 468.82 39.8476 467.471 39.8476C466.121 39.8476 465.027 40.9417 465.027 42.2913C465.027 43.641 466.121 44.735 467.471 44.735Z" fill="#16CA4D"/>
</g>
<g style="mix-blend-mode:overlay">
<path d="M487.925 44.735C489.275 44.735 490.369 43.641 490.369 42.2913C490.369 40.9417 489.275 39.8476 487.925 39.8476C486.576 39.8476 485.481 40.9417 485.481 42.2913C485.481 43.641 486.576 44.735 487.925 44.735Z" fill="#16CA4D"/>
</g>
<g style="mix-blend-mode:overlay">
<path d="M508.379 44.735C509.729 44.735 510.823 43.641 510.823 42.2913C510.823 40.9417 509.729 39.8476 508.379 39.8476C507.03 39.8476 505.936 40.9417 505.936 42.2913C505.936 43.641 507.03 44.735 508.379 44.735Z" fill="#16CA4D"/>
</g>
<g style="mix-blend-mode:overlay">
<path d="M429.006 55.5052C429.006 55.9886 428.862 56.461 428.594 56.8629C428.325 57.2647 427.944 57.578 427.497 57.7629C427.051 57.9479 426.559 57.9963 426.085 57.902C425.611 57.8077 425.176 57.575 424.834 57.2332C424.492 56.8914 424.259 56.456 424.165 55.982C424.071 55.5079 424.119 55.0166 424.304 54.5701C424.489 54.1235 424.802 53.7419 425.204 53.4734C425.606 53.2048 426.079 53.0615 426.562 53.0615C427.21 53.0616 427.832 53.319 428.29 53.7773C428.748 54.2356 429.006 54.8571 429.006 55.5052Z" fill="#16CA4D"/>
</g>
<g style="mix-blend-mode:overlay">
<path d="M449.46 55.5052C449.46 55.9886 449.317 56.461 449.048 56.8629C448.78 57.2647 448.398 57.578 447.952 57.7629C447.505 57.9479 447.014 57.9963 446.54 57.902C446.066 57.8077 445.63 57.575 445.289 57.2332C444.947 56.8914 444.714 56.456 444.62 55.982C444.525 55.5079 444.574 55.0166 444.759 54.5701C444.944 54.1235 445.257 53.7419 445.659 53.4734C446.061 53.2048 446.533 53.0615 447.016 53.0615C447.665 53.0616 448.286 53.319 448.744 53.7773C449.203 54.2356 449.46 54.8571 449.46 55.5052Z" fill="#16CA4D"/>
</g>
<g style="mix-blend-mode:overlay">
<path d="M469.914 55.5052C469.914 55.9886 469.771 56.461 469.502 56.8629C469.234 57.2648 468.852 57.578 468.406 57.7629C467.959 57.9479 467.468 57.9963 466.994 57.902C466.52 57.8077 466.084 57.5749 465.743 57.2332C465.401 56.8914 465.168 56.4559 465.074 55.9819C464.98 55.5079 465.028 55.0165 465.213 54.57C465.398 54.1235 465.711 53.7418 466.113 53.4733C466.515 53.2048 466.987 53.0615 467.471 53.0615C468.119 53.0616 468.74 53.319 469.199 53.7773C469.657 54.2356 469.914 54.8571 469.914 55.5052Z" fill="#16CA4D"/>
</g>
<g style="mix-blend-mode:overlay">
<path d="M490.369 55.5052C490.369 55.9886 490.226 56.461 489.957 56.8629C489.688 57.2647 489.307 57.578 488.86 57.7629C488.414 57.9479 487.922 57.9963 487.448 57.902C486.974 57.8077 486.539 57.575 486.197 57.2332C485.855 56.8914 485.623 56.456 485.528 55.982C485.434 55.5079 485.483 55.0166 485.667 54.5701C485.852 54.1235 486.166 53.7419 486.568 53.4734C486.969 53.2048 487.442 53.0615 487.925 53.0615C488.573 53.0616 489.195 53.319 489.653 53.7773C490.111 54.2356 490.369 54.8571 490.369 55.5052Z" fill="#16CA4D"/>
</g>
<g style="mix-blend-mode:overlay">
<path d="M510.823 55.5052C510.823 55.9886 510.68 56.461 510.411 56.8629C510.143 57.2648 509.761 57.578 509.314 57.7629C508.868 57.9479 508.377 57.9963 507.902 57.902C507.428 57.8077 506.993 57.5749 506.651 57.2332C506.31 56.8914 506.077 56.4559 505.982 55.9819C505.888 55.5079 505.937 55.0165 506.122 54.57C506.307 54.1235 506.62 53.7418 507.022 53.4733C507.424 53.2048 507.896 53.0615 508.379 53.0615C509.027 53.0616 509.649 53.319 510.107 53.7773C510.566 54.2356 510.823 54.8571 510.823 55.5052Z" fill="#16CA4D"/>
</g>
<g style="mix-blend-mode:overlay">
<path d="M426.562 71.1628C427.912 71.1628 429.006 70.0687 429.006 68.7191C429.006 67.3695 427.912 66.2754 426.562 66.2754C425.212 66.2754 424.118 67.3695 424.118 68.7191C424.118 70.0687 425.212 71.1628 426.562 71.1628Z" fill="#16CA4D"/>
</g>
<g style="mix-blend-mode:overlay">
<path d="M447.016 71.1628C448.366 71.1628 449.46 70.0687 449.46 68.7191C449.46 67.3695 448.366 66.2754 447.016 66.2754C445.667 66.2754 444.573 67.3695 444.573 68.7191C444.573 70.0687 445.667 71.1628 447.016 71.1628Z" fill="#16CA4D"/>
</g>
<g style="mix-blend-mode:overlay">
<path d="M467.471 71.1628C468.82 71.1628 469.914 70.0687 469.914 68.7191C469.914 67.3695 468.82 66.2754 467.471 66.2754C466.121 66.2754 465.027 67.3695 465.027 68.7191C465.027 70.0687 466.121 71.1628 467.471 71.1628Z" fill="#16CA4D"/>
</g>
<g style="mix-blend-mode:overlay">
<path d="M487.925 71.1628C489.275 71.1628 490.369 70.0687 490.369 68.7191C490.369 67.3695 489.275 66.2754 487.925 66.2754C486.576 66.2754 485.481 67.3695 485.481 68.7191C485.481 70.0687 486.576 71.1628 487.925 71.1628Z" fill="#16CA4D"/>
</g>
<g style="mix-blend-mode:overlay">
<path d="M508.379 71.1628C509.729 71.1628 510.823 70.0687 510.823 68.7191C510.823 67.3695 509.729 66.2754 508.379 66.2754C507.03 66.2754 505.936 67.3695 505.936 68.7191C505.936 70.0687 507.03 71.1628 508.379 71.1628Z" fill="#16CA4D"/>
</g>
<g style="mix-blend-mode:overlay">
<path d="M426.562 84.3766C427.912 84.3766 429.006 83.2825 429.006 81.9329C429.006 80.5833 427.912 79.4892 426.562 79.4892C425.212 79.4892 424.118 80.5833 424.118 81.9329C424.118 83.2825 425.212 84.3766 426.562 84.3766Z" fill="#16CA4D"/>
</g>
<g style="mix-blend-mode:overlay">
<path d="M447.016 84.3766C448.366 84.3766 449.46 83.2825 449.46 81.9329C449.46 80.5833 448.366 79.4892 447.016 79.4892C445.667 79.4892 444.573 80.5833 444.573 81.9329C444.573 83.2825 445.667 84.3766 447.016 84.3766Z" fill="#16CA4D"/>
</g>
<g style="mix-blend-mode:overlay">
<path d="M467.471 84.3766C468.82 84.3766 469.914 83.2825 469.914 81.9329C469.914 80.5833 468.82 79.4892 467.471 79.4892C466.121 79.4892 465.027 80.5833 465.027 81.9329C465.027 83.2825 466.121 84.3766 467.471 84.3766Z" fill="#16CA4D"/>
</g>
<g style="mix-blend-mode:overlay">
<path d="M487.925 84.3766C489.275 84.3766 490.369 83.2825 490.369 81.9329C490.369 80.5833 489.275 79.4892 487.925 79.4892C486.576 79.4892 485.481 80.5833 485.481 81.9329C485.481 83.2825 486.576 84.3766 487.925 84.3766Z" fill="#16CA4D"/>
</g>
<g style="mix-blend-mode:overlay">
<path d="M508.379 84.3766C509.729 84.3766 510.823 83.2825 510.823 81.9329C510.823 80.5833 509.729 79.4892 508.379 79.4892C507.03 79.4892 505.936 80.5833 505.936 81.9329C505.936 83.2825 507.03 84.3766 508.379 84.3766Z" fill="#16CA4D"/>
</g>
<g style="mix-blend-mode:overlay">
<path d="M426.562 97.5905C427.912 97.5905 429.006 96.4964 429.006 95.1468C429.006 93.7972 427.912 92.7031 426.562 92.7031C425.212 92.7031 424.118 93.7972 424.118 95.1468C424.118 96.4964 425.212 97.5905 426.562 97.5905Z" fill="#16CA4D"/>
</g>
<g style="mix-blend-mode:overlay">
<path d="M447.016 97.5905C448.366 97.5905 449.46 96.4964 449.46 95.1468C449.46 93.7972 448.366 92.7031 447.016 92.7031C445.667 92.7031 444.573 93.7972 444.573 95.1468C444.573 96.4964 445.667 97.5905 447.016 97.5905Z" fill="#16CA4D"/>
</g>
<g style="mix-blend-mode:overlay">
<path d="M467.471 97.5905C468.82 97.5905 469.914 96.4964 469.914 95.1468C469.914 93.7972 468.82 92.7031 467.471 92.7031C466.121 92.7031 465.027 93.7972 465.027 95.1468C465.027 96.4964 466.121 97.5905 467.471 97.5905Z" fill="#16CA4D"/>
</g>
<g style="mix-blend-mode:overlay">
<path d="M487.925 97.5905C489.275 97.5905 490.369 96.4964 490.369 95.1468C490.369 93.7972 489.275 92.7031 487.925 92.7031C486.576 92.7031 485.481 93.7972 485.481 95.1468C485.481 96.4964 486.576 97.5905 487.925 97.5905Z" fill="#16CA4D"/>
</g>
<g style="mix-blend-mode:overlay">
<path d="M508.379 97.5905C509.729 97.5905 510.823 96.4964 510.823 95.1468C510.823 93.7972 509.729 92.7031 508.379 92.7031C507.03 92.7031 505.936 93.7972 505.936 95.1468C505.936 96.4964 507.03 97.5905 508.379 97.5905Z" fill="#16CA4D"/>
</g>
</g>
<g style="mix-blend-mode:overlay" opacity="0.25">
<g style="mix-blend-mode:overlay">
<path d="M257.164 312.082C258.514 312.082 259.608 310.987 259.608 309.638C259.608 308.288 258.514 307.194 257.164 307.194C255.814 307.194 254.72 308.288 254.72 309.638C254.72 310.987 255.814 312.082 257.164 312.082Z" fill="#16CA4D"/>
</g>
<g style="mix-blend-mode:overlay">
<path d="M277.619 312.082C278.968 312.082 280.062 310.988 280.062 309.638C280.062 308.288 278.968 307.194 277.619 307.194C276.269 307.194 275.175 308.288 275.175 309.638C275.175 310.988 276.269 312.082 277.619 312.082Z" fill="#16CA4D"/>
</g>
<g style="mix-blend-mode:overlay">
<path d="M298.073 312.082C299.422 312.082 300.516 310.988 300.516 309.638C300.516 308.288 299.422 307.194 298.073 307.194C296.723 307.194 295.629 308.288 295.629 309.638C295.629 310.988 296.723 312.082 298.073 312.082Z" fill="#16CA4D"/>
</g>
<g style="mix-blend-mode:overlay">
<path d="M320.971 309.638C320.971 310.121 320.828 310.594 320.559 310.996C320.291 311.397 319.909 311.711 319.462 311.896C319.016 312.081 318.525 312.129 318.051 312.035C317.577 311.94 317.141 311.708 316.799 311.366C316.458 311.024 316.225 310.589 316.13 310.115C316.036 309.641 316.085 309.149 316.269 308.703C316.454 308.256 316.768 307.875 317.169 307.606C317.571 307.338 318.044 307.194 318.527 307.194C319.175 307.194 319.797 307.452 320.255 307.91C320.713 308.368 320.971 308.99 320.971 309.638Z" fill="#16CA4D"/>
</g>
<g style="mix-blend-mode:overlay">
<path d="M338.981 312.082C340.331 312.082 341.425 310.988 341.425 309.638C341.425 308.288 340.331 307.194 338.981 307.194C337.632 307.194 336.538 308.288 336.538 309.638C336.538 310.988 337.632 312.082 338.981 312.082Z" fill="#16CA4D"/>
</g>
<g style="mix-blend-mode:overlay">
<path d="M257.164 325.295C258.514 325.295 259.608 324.201 259.608 322.852C259.608 321.502 258.514 320.408 257.164 320.408C255.814 320.408 254.72 321.502 254.72 322.852C254.72 324.201 255.814 325.295 257.164 325.295Z" fill="#16CA4D"/>
</g>
<g style="mix-blend-mode:overlay">
<path d="M277.619 325.295C278.968 325.295 280.062 324.201 280.062 322.852C280.062 321.502 278.968 320.408 277.619 320.408C276.269 320.408 275.175 321.502 275.175 322.852C275.175 324.201 276.269 325.295 277.619 325.295Z" fill="#16CA4D"/>
</g>
<g style="mix-blend-mode:overlay">
<path d="M298.073 325.295C299.422 325.295 300.516 324.201 300.516 322.852C300.516 321.502 299.422 320.408 298.073 320.408C296.723 320.408 295.629 321.502 295.629 322.852C295.629 324.201 296.723 325.295 298.073 325.295Z" fill="#16CA4D"/>
</g>
<g style="mix-blend-mode:overlay">
<path d="M320.971 322.852C320.971 323.335 320.828 323.807 320.559 324.209C320.291 324.611 319.909 324.924 319.462 325.109C319.016 325.294 318.525 325.343 318.051 325.249C317.577 325.154 317.141 324.922 316.799 324.58C316.458 324.238 316.225 323.803 316.13 323.329C316.036 322.855 316.085 322.363 316.269 321.917C316.454 321.47 316.768 321.088 317.169 320.82C317.571 320.551 318.044 320.408 318.527 320.408C319.175 320.408 319.797 320.665 320.255 321.124C320.713 321.582 320.971 322.204 320.971 322.852Z" fill="#16CA4D"/>
</g>
<g style="mix-blend-mode:overlay">
<path d="M338.981 325.295C340.331 325.295 341.425 324.201 341.425 322.852C341.425 321.502 340.331 320.408 338.981 320.408C337.632 320.408 336.538 321.502 336.538 322.852C336.538 324.201 337.632 325.295 338.981 325.295Z" fill="#16CA4D"/>
</g>
<g style="mix-blend-mode:overlay">
<path d="M257.164 338.509C258.514 338.509 259.608 337.415 259.608 336.066C259.608 334.716 258.514 333.622 257.164 333.622C255.814 333.622 254.72 334.716 254.72 336.066C254.72 337.415 255.814 338.509 257.164 338.509Z" fill="#16CA4D"/>
</g>
<g style="mix-blend-mode:overlay">
<path d="M277.619 338.509C278.968 338.509 280.062 337.415 280.062 336.066C280.062 334.716 278.968 333.622 277.619 333.622C276.269 333.622 275.175 334.716 275.175 336.066C275.175 337.415 276.269 338.509 277.619 338.509Z" fill="#16CA4D"/>
</g>
<g style="mix-blend-mode:overlay">
<path d="M298.073 338.509C299.422 338.509 300.516 337.415 300.516 336.066C300.516 334.716 299.422 333.622 298.073 333.622C296.723 333.622 295.629 334.716 295.629 336.066C295.629 337.415 296.723 338.509 298.073 338.509Z" fill="#16CA4D"/>
</g>
<g style="mix-blend-mode:overlay">
<path d="M320.971 336.066C320.971 336.549 320.828 337.021 320.559 337.423C320.291 337.825 319.909 338.138 319.462 338.323C319.016 338.508 318.525 338.557 318.051 338.462C317.576 338.368 317.141 338.135 316.799 337.794C316.458 337.452 316.225 337.016 316.13 336.542C316.036 336.068 316.085 335.577 316.269 335.13C316.454 334.684 316.768 334.302 317.169 334.034C317.571 333.765 318.044 333.622 318.527 333.622C318.848 333.622 319.166 333.685 319.462 333.808C319.759 333.931 320.028 334.111 320.255 334.338C320.482 334.564 320.662 334.834 320.785 335.13C320.908 335.427 320.971 335.745 320.971 336.066Z" fill="#16CA4D"/>
</g>
<g style="mix-blend-mode:overlay">
<path d="M338.981 338.509C340.331 338.509 341.425 337.415 341.425 336.066C341.425 334.716 340.331 333.622 338.981 333.622C337.632 333.622 336.538 334.716 336.538 336.066C336.538 337.415 337.632 338.509 338.981 338.509Z" fill="#16CA4D"/>
</g>
<g style="mix-blend-mode:overlay">
<path d="M257.164 351.723C258.514 351.723 259.608 350.629 259.608 349.279C259.608 347.93 258.514 346.836 257.164 346.836C255.814 346.836 254.72 347.93 254.72 349.279C254.72 350.629 255.814 351.723 257.164 351.723Z" fill="#16CA4D"/>
</g>
<g style="mix-blend-mode:overlay">
<path d="M277.619 351.723C278.968 351.723 280.062 350.629 280.062 349.279C280.062 347.93 278.968 346.836 277.619 346.836C276.269 346.836 275.175 347.93 275.175 349.279C275.175 350.629 276.269 351.723 277.619 351.723Z" fill="#16CA4D"/>
</g>
<g style="mix-blend-mode:overlay">
<path d="M298.073 351.723C299.422 351.723 300.516 350.629 300.516 349.279C300.516 347.93 299.422 346.836 298.073 346.836C296.723 346.836 295.629 347.93 295.629 349.279C295.629 350.629 296.723 351.723 298.073 351.723Z" fill="#16CA4D"/>
</g>
<g style="mix-blend-mode:overlay">
<path d="M320.971 349.279C320.971 349.763 320.828 350.235 320.559 350.637C320.291 351.039 319.909 351.352 319.462 351.537C319.016 351.722 318.525 351.771 318.051 351.676C317.577 351.582 317.141 351.349 316.799 351.008C316.458 350.666 316.225 350.23 316.13 349.756C316.036 349.282 316.085 348.791 316.269 348.344C316.454 347.898 316.768 347.516 317.169 347.248C317.571 346.979 318.044 346.836 318.527 346.836C319.175 346.836 319.797 347.093 320.255 347.552C320.713 348.01 320.971 348.631 320.971 349.279Z" fill="#16CA4D"/>
</g>
<g style="mix-blend-mode:overlay">
<path d="M338.981 351.723C340.331 351.723 341.425 350.629 341.425 349.279C341.425 347.93 340.331 346.836 338.981 346.836C337.632 346.836 336.538 347.93 336.538 349.279C336.538 350.629 337.632 351.723 338.981 351.723Z" fill="#16CA4D"/>
</g>
<g style="mix-blend-mode:overlay">
<path d="M257.164 364.937C258.514 364.937 259.608 363.843 259.608 362.493C259.608 361.144 258.514 360.05 257.164 360.05C255.814 360.05 254.72 361.144 254.72 362.493C254.72 363.843 255.814 364.937 257.164 364.937Z" fill="#16CA4D"/>
</g>
<g style="mix-blend-mode:overlay">
<path d="M277.619 364.937C278.968 364.937 280.062 363.843 280.062 362.493C280.062 361.144 278.968 360.05 277.619 360.05C276.269 360.05 275.175 361.144 275.175 362.493C275.175 363.843 276.269 364.937 277.619 364.937Z" fill="#16CA4D"/>
</g>
<g style="mix-blend-mode:overlay">
<path d="M298.073 364.937C299.422 364.937 300.516 363.843 300.516 362.493C300.516 361.144 299.422 360.05 298.073 360.05C296.723 360.05 295.629 361.144 295.629 362.493C295.629 363.843 296.723 364.937 298.073 364.937Z" fill="#16CA4D"/>
</g>
<g style="mix-blend-mode:overlay">
<path d="M320.971 362.493C320.971 362.977 320.828 363.449 320.559 363.851C320.291 364.253 319.909 364.566 319.462 364.751C319.016 364.936 318.525 364.984 318.051 364.89C317.576 364.796 317.141 364.563 316.799 364.221C316.458 363.88 316.225 363.444 316.13 362.97C316.036 362.496 316.085 362.005 316.269 361.558C316.454 361.112 316.768 360.73 317.169 360.462C317.571 360.193 318.044 360.05 318.527 360.05C318.848 360.05 319.166 360.113 319.462 360.236C319.759 360.358 320.028 360.538 320.255 360.765C320.482 360.992 320.662 361.262 320.785 361.558C320.908 361.855 320.971 362.172 320.971 362.493Z" fill="#16CA4D"/>
</g>
<g style="mix-blend-mode:overlay">
<path d="M338.981 364.937C340.331 364.937 341.425 363.843 341.425 362.493C341.425 361.144 340.331 360.05 338.981 360.05C337.632 360.05 336.538 361.144 336.538 362.493C336.538 363.843 337.632 364.937 338.981 364.937Z" fill="#16CA4D"/>
</g>
<g style="mix-blend-mode:overlay">
<path d="M257.164 378.151C258.514 378.151 259.608 377.057 259.608 375.707C259.608 374.357 258.514 373.263 257.164 373.263C255.814 373.263 254.72 374.357 254.72 375.707C254.72 377.057 255.814 378.151 257.164 378.151Z" fill="#16CA4D"/>
</g>
<g style="mix-blend-mode:overlay">
<path d="M277.619 378.151C278.968 378.151 280.062 377.057 280.062 375.707C280.062 374.357 278.968 373.263 277.619 373.263C276.269 373.263 275.175 374.357 275.175 375.707C275.175 377.057 276.269 378.151 277.619 378.151Z" fill="#16CA4D"/>
</g>
<g style="mix-blend-mode:overlay">
<path d="M298.073 378.151C299.422 378.151 300.516 377.057 300.516 375.707C300.516 374.357 299.422 373.263 298.073 373.263C296.723 373.263 295.629 374.357 295.629 375.707C295.629 377.057 296.723 378.151 298.073 378.151Z" fill="#16CA4D"/>
</g>
<g style="mix-blend-mode:overlay">
<path d="M320.971 375.707C320.971 376.19 320.828 376.663 320.559 377.065C320.291 377.467 319.909 377.78 319.462 377.965C319.016 378.15 318.525 378.198 318.051 378.104C317.577 378.01 317.141 377.777 316.799 377.435C316.458 377.094 316.225 376.658 316.13 376.184C316.036 375.71 316.085 375.219 316.269 374.772C316.454 374.326 316.768 373.944 317.169 373.675C317.571 373.407 318.044 373.264 318.527 373.264C319.175 373.264 319.797 373.521 320.255 373.979C320.713 374.437 320.971 375.059 320.971 375.707Z" fill="#16CA4D"/>
</g>
<g style="mix-blend-mode:overlay">
<path d="M338.981 378.151C340.331 378.151 341.425 377.057 341.425 375.707C341.425 374.357 340.331 373.263 338.981 373.263C337.632 373.263 336.538 374.357 336.538 375.707C336.538 377.057 337.632 378.151 338.981 378.151Z" fill="#16CA4D"/>
</g>
<g style="mix-blend-mode:overlay">
<path d="M257.164 391.365C258.514 391.365 259.608 390.271 259.608 388.921C259.608 387.571 258.514 386.477 257.164 386.477C255.814 386.477 254.72 387.571 254.72 388.921C254.72 390.271 255.814 391.365 257.164 391.365Z" fill="#16CA4D"/>
</g>
<g style="mix-blend-mode:overlay">
<path d="M277.619 391.365C278.968 391.365 280.062 390.271 280.062 388.921C280.062 387.571 278.968 386.477 277.619 386.477C276.269 386.477 275.175 387.571 275.175 388.921C275.175 390.271 276.269 391.365 277.619 391.365Z" fill="#16CA4D"/>
</g>
<g style="mix-blend-mode:overlay">
<path d="M298.073 391.365C299.422 391.365 300.516 390.271 300.516 388.921C300.516 387.571 299.422 386.477 298.073 386.477C296.723 386.477 295.629 387.571 295.629 388.921C295.629 390.271 296.723 391.365 298.073 391.365Z" fill="#16CA4D"/>
</g>
<g style="mix-blend-mode:overlay">
<path d="M320.971 388.921C320.971 389.404 320.828 389.877 320.559 390.279C320.291 390.68 319.909 390.994 319.462 391.179C319.016 391.364 318.525 391.412 318.051 391.318C317.576 391.223 317.141 390.991 316.799 390.649C316.458 390.307 316.225 389.872 316.13 389.398C316.036 388.924 316.085 388.432 316.269 387.986C316.454 387.539 316.768 387.158 317.169 386.889C317.571 386.621 318.044 386.477 318.527 386.477C318.848 386.477 319.166 386.54 319.462 386.663C319.759 386.786 320.028 386.966 320.255 387.193C320.482 387.42 320.662 387.689 320.785 387.986C320.908 388.282 320.971 388.6 320.971 388.921Z" fill="#16CA4D"/>
</g>
<g style="mix-blend-mode:overlay">
<path d="M338.981 391.365C340.331 391.365 341.425 390.271 341.425 388.921C341.425 387.571 340.331 386.477 338.981 386.477C337.632 386.477 336.538 387.571 336.538 388.921C336.538 390.271 337.632 391.365 338.981 391.365Z" fill="#16CA4D"/>
</g>
</g>
<path d="M83.4333 265.756C78.1504 269.758 76.2372 257.795 76.2372 257.795C76.2372 257.795 90.0848 260.716 83.4333 265.756ZM110.666 237.537C110.666 237.537 98.8716 229.715 99.9439 237.99C100.795 244.564 110.666 237.537 110.666 237.537V237.537ZM42.0004 308.293C49.6188 303.146 56.7843 297.359 63.4189 290.995C63.3298 291.164 63.2414 291.344 63.1558 291.539C60.4964 297.61 72.5762 296.679 72.5762 296.679C72.5762 296.679 68.6109 288.332 65.3222 289.163C66.7801 287.739 68.2551 286.247 69.7472 284.685C71.3134 283.04 72.9272 281.273 74.5608 279.396C74.465 279.672 74.3846 279.953 74.32 280.237C72.8422 286.698 84.5352 283.526 84.5352 283.526C84.5352 283.526 79.3837 276.483 76.2701 277.397C79.12 274.009 82.0005 270.287 84.7723 266.263C84.7691 266.283 84.7651 266.303 84.7619 266.324C83.7819 272.879 95.1984 268.822 95.1984 268.822C95.1984 268.822 89.8718 262.6 86.7808 263.258C89.3841 259.264 91.7501 255.12 93.8666 250.848C93.8623 251.194 93.8824 251.541 93.9268 251.884C94.7783 258.457 104.649 251.431 104.649 251.431C104.649 251.431 97.8517 246.926 95.0483 248.379C98.5677 240.88 101.097 232.955 102.572 224.804C102.706 224.787 102.838 224.772 102.981 224.744C111.162 223.096 99.9609 214.446 99.9609 214.446C99.9609 214.446 97.0372 224.218 101.583 224.81C101.01 228.017 100.261 231.19 99.3384 234.314C97.776 231.54 89.4109 232.12 89.4109 232.12C89.4109 232.12 94.1481 242.286 98.057 238.33C96.7716 242.05 95.273 245.694 93.5687 249.242C93.6861 245.299 83.3932 246.013 83.3932 246.013C83.3932 246.013 88.2092 256.353 92.1363 252.127C87.3958 261.185 81.6372 269.674 74.9722 277.427C76.0011 273.868 66.4734 271.082 66.4734 271.082C66.4734 271.082 67.4677 283.157 73.0402 279.569C73.1055 279.527 73.1655 279.485 73.2271 279.443C71.8093 281.053 70.4083 282.582 69.0447 284.015C67.4859 285.653 65.9422 287.212 64.4136 288.692C65.6343 285.41 57.1592 281.077 57.1592 281.077C57.1592 281.077 55.8782 293.125 62.0241 290.643C62.2727 290.543 62.4999 290.439 62.7077 290.332C56.1303 296.638 49.028 302.372 41.4775 307.473L42.0004 308.293Z" stroke="#16CA4D" stroke-width="0.5" stroke-miterlimit="10"/>
<path d="M38.7457 269.156C44.9212 257.235 42.1265 231.967 53.2424 211.379C61.634 195.837 45.1697 187.282 33.0911 202.488C21.0125 217.693 32.5348 249.176 28.4969 261.159C24.459 273.141 33.743 278.813 38.7457 269.156Z" fill="#16CA4D"/>
<g style="mix-blend-mode:overlay" opacity="0.25">
<path d="M51.0395 195.503C45.1441 198.731 40.6258 203.995 38.3294 210.311C34.4374 220.95 37.4853 261.576 29.4629 272.596" stroke="white" stroke-width="0.5742" stroke-miterlimit="10"/>
</g>
<g style="mix-blend-mode:overlay" opacity="0.25">
<path d="M32.4604 203.329L37.3402 214.423C37.3402 214.423 51.4472 209.466 53.8785 210.11" stroke="white" stroke-width="0.5742" stroke-miterlimit="10"/>
</g>
<g style="mix-blend-mode:overlay" opacity="0.25">
<path d="M27.5093 220.034C27.5093 220.034 33.7687 227.265 36.0164 230.04C36.0164 230.04 43.9789 226.489 47.105 227.619" stroke="white" stroke-width="0.5742" stroke-miterlimit="10"/>
</g>
<g style="mix-blend-mode:overlay" opacity="0.25">
<path d="M28.1167 236.962C30.7255 238.974 33.1319 241.236 35.3016 243.715C35.3016 243.715 40.5507 239.695 44.4278 241.531" stroke="white" stroke-width="0.5742" stroke-miterlimit="10"/>
</g>
<g style="mix-blend-mode:overlay" opacity="0.25">
<path d="M29.2686 249.849C29.2686 249.849 33.3558 252.683 34.2888 255.419C34.2888 255.419 40.1784 250.314 43.0165 251.777" stroke="white" stroke-width="0.5742" stroke-miterlimit="10"/>
</g>
<path d="M62.3588 277.9C54.5679 288.351 45.6574 297.919 35.786 306.433C34.9352 282.14 39.2423 277.617 40.7443 266.277C42.2908 254.588 43.6762 260.264 49.0919 259.793C54.5124 259.33 47.1874 254.309 47.7622 246.825C48.3355 239.348 54.7244 229.051 55.1336 219.504C55.5428 209.958 60.1371 211.665 61.2747 212.828C62.4071 213.984 65.2618 213.664 65.2294 209.322C65.1991 204.974 59.5903 206.109 60.0371 201.776C60.4857 197.437 70.5239 176.159 68.5202 163.329C79.7888 165.647 79.6217 195.733 79.9279 209.79C80.2341 223.848 68.4312 223.8 68.365 227.64C68.294 231.472 76.7355 226.083 77.5602 227.488C78.3849 228.892 70.0803 259.671 64.083 266.733C58.081 273.786 53.1814 273.186 53.4536 276.637C53.7327 280.089 61.4639 273.764 61.4694 276.421C61.5705 277.007 61.8878 277.535 62.3588 277.9Z" fill="#16CA4D"/>
<g style="mix-blend-mode:overlay" opacity="0.25">
<path d="M68.52 163.329C68.52 163.329 76.8694 167.27 73.1618 195.432C69.4543 223.594 59.8838 240.052 57.5237 253.394C55.1635 266.735 44.1599 290.292 45.7022 297.208" stroke="white" stroke-width="0.5742" stroke-miterlimit="10"/>
</g>
<path d="M469.623 238.853C469.623 238.853 462.85 248.899 459.743 243.044C455.832 235.673 469.623 238.853 469.623 238.853ZM456.458 210.909C460.916 203.854 446.924 205.983 446.924 205.983C446.924 205.983 452.918 216.512 456.458 210.909ZM480.234 298.549C475.534 290.744 471.507 282.552 468.196 274.063C468.34 274.248 468.502 274.438 468.685 274.634C473.214 279.473 477.125 268.005 477.125 268.005C477.125 268.005 467.614 268.366 467.339 271.857C466.581 269.871 465.832 267.807 465.108 265.665C464.474 263.791 463.847 261.815 463.239 259.757C463.277 259.821 463.314 259.885 463.355 259.95C466.9 265.551 472.886 255.017 472.886 255.017C472.886 255.017 463.07 253.532 462.505 257.194C459.724 247.355 458.075 237.231 457.589 227.018C459.372 232.505 468.094 225.154 468.094 225.154C468.094 225.154 459.058 220.173 457.504 223.799C457.452 219.863 457.627 215.927 458.028 212.011C459.908 217.245 468.485 210.019 468.485 210.019C468.485 210.019 461.142 205.97 458.557 207.829C459.035 204.607 459.692 201.414 460.523 198.264C464.895 199.64 466.357 189.545 466.357 189.545C466.357 189.545 452.556 192.675 459.282 197.614C459.399 197.7 459.513 197.769 459.627 197.841C457.533 205.855 456.491 214.109 456.526 222.393C454.595 219.894 446.533 221.118 446.533 221.118C446.533 221.118 452.527 231.647 456.067 226.044C456.252 225.751 456.416 225.445 456.558 225.129C456.679 229.895 457.08 234.65 457.759 239.37C455.231 237.472 447.78 240.872 447.78 240.872C447.78 240.872 456.428 249.359 458.299 243C458.305 242.98 458.309 242.961 458.315 242.941C459.135 247.759 460.18 252.347 461.338 256.621C458.9 254.48 451.262 258.699 451.262 258.699C451.262 258.699 460.532 266.5 461.912 260.018C461.973 259.732 462.018 259.443 462.048 259.153C462.739 261.543 463.459 263.826 464.186 265.978C464.878 268.023 465.592 269.997 466.315 271.902C463.682 269.764 456.571 275.665 456.571 275.665C456.571 275.665 467.136 281.595 467.279 274.969C467.284 274.756 467.279 274.556 467.27 274.364C470.608 282.931 474.671 291.197 479.415 299.072L480.234 298.549Z" stroke="#16CA4D" stroke-width="0.5" stroke-miterlimit="10"/>
<path d="M477.944 308.996C472.862 296.569 451.802 282.331 443.317 260.527C436.912 244.066 419.729 251.069 423.49 270.12C427.251 289.171 458.7 300.786 465.214 311.624C471.727 322.462 482.061 319.062 477.944 308.996Z" fill="#16CA4D"/>
<g style="mix-blend-mode:overlay" opacity="0.25">
<path d="M429.795 251.922C428.435 258.504 429.519 265.356 432.844 271.197C438.428 281.054 471.354 305.047 474.553 318.297" stroke="white" stroke-width="0.5742" stroke-miterlimit="10"/>
</g>
<g style="mix-blend-mode:overlay" opacity="0.25">
<path d="M423.723 271.146L435.335 274.614C435.335 274.614 440.697 260.656 442.761 259.22" stroke="white" stroke-width="0.5742" stroke-miterlimit="10"/>
</g>
<g style="mix-blend-mode:overlay" opacity="0.25">
<path d="M433.243 285.738C433.243 285.738 442.806 285.653 446.376 285.738C446.376 285.738 448.828 277.371 451.715 275.722" stroke="white" stroke-width="0.5742" stroke-miterlimit="10"/>
</g>
<g style="mix-blend-mode:overlay" opacity="0.25">
<path d="M446.532 296.241C449.755 295.556 453.037 295.188 456.332 295.141C456.332 295.141 456.669 288.537 460.579 286.773" stroke="white" stroke-width="0.5742" stroke-miterlimit="10"/>
</g>
<g style="mix-blend-mode:overlay" opacity="0.25">
<path d="M457.097 303.71C457.097 303.71 461.903 302.432 464.593 303.493C464.593 303.493 464.518 295.7 467.47 294.485" stroke="white" stroke-width="0.5742" stroke-miterlimit="10"/>
</g>
<path d="M504.129 242.025C499.329 254.145 493.218 265.703 485.906 276.494C478.756 253.262 481.736 247.773 480.233 236.433C478.681 224.745 481.497 229.865 486.603 227.999C491.716 226.139 483.336 223.2 481.941 215.825C480.547 208.457 484.033 196.851 481.941 187.527C479.85 178.204 484.73 178.655 486.131 179.482C487.526 180.302 490.199 179.25 489.036 175.067C487.874 170.877 482.755 173.434 482.058 169.134C481.361 164.828 485.51 141.67 480.233 129.804C491.716 129.107 499.392 158.198 503.35 171.69C507.308 185.183 495.9 188.211 496.836 191.936C497.766 195.655 504.512 188.252 505.674 189.394C506.836 190.535 506.836 222.415 502.885 230.795C498.928 239.168 494.04 239.865 495.202 243.125C496.371 246.386 502.188 238.266 502.885 240.829C503.014 241.307 503.493 241.648 504.129 242.025Z" fill="#16CA4D"/>
<g style="mix-blend-mode:overlay" opacity="0.25">
<path d="M480.232 129.804C480.232 129.804 489.32 131.435 493.077 159.59C496.833 187.745 491.88 206.128 493.077 219.624C494.273 233.12 489.786 258.729 493.077 265.005" stroke="white" stroke-width="0.5742" stroke-miterlimit="10"/>
</g>
<path d="M287.349 162.568H287.342C284.102 162.697 281.336 161.841 280.275 157.64C280.07 154.626 280.179 150.914 282.018 150.962C285.101 151.044 287.349 162.568 287.349 162.568Z" fill="white" stroke="black" stroke-width="0.75" stroke-miterlimit="10"/>
<path d="M287.343 162.568H287.349C288.75 164.738 289.692 167.171 290.118 169.718C284.991 167.756 278.436 168.904 275.108 170.237C272.845 165.248 267.493 162.22 262.852 160.702C257.896 159.082 255.866 156.731 255.866 153.641C255.866 150.559 264.315 155.589 269.755 156.567C272.278 157.018 276.372 156.56 280.275 157.64C281.225 157.894 282.146 158.249 283.02 158.699" fill="white"/>
<path d="M287.343 162.568H287.349C288.75 164.738 289.692 167.171 290.118 169.718C284.991 167.756 278.436 168.904 275.108 170.237C272.845 165.248 267.493 162.22 262.852 160.702C257.896 159.082 255.866 156.731 255.866 153.641C255.866 150.559 264.315 155.589 269.755 156.567C272.278 157.018 276.372 156.56 280.275 157.64C281.225 157.894 282.146 158.249 283.02 158.699" stroke="black" stroke-width="0.75" stroke-miterlimit="10"/>
<path d="M381.211 356.067C370.992 359.792 358.962 361.897 348.094 359.457C348.347 353.36 348.279 346.368 348.012 338.958C346.946 309.635 342.647 273.723 341.71 260.517C340.993 250.497 341.744 243.723 342.701 239.417C343.08 237.212 343.827 235.086 344.909 233.128C345.538 232.937 346.18 232.732 346.823 232.5C353.22 230.255 359.354 227.319 365.114 223.744C365.903 224.611 366.604 225.554 367.206 226.56C368.492 228.638 369.571 230.838 370.425 233.128C371.637 236.336 372.537 239.653 373.112 243.033C373.555 245.539 373.861 248.067 374.028 250.606C375.21 268.077 383.316 328.747 381.211 356.067Z" fill="#16CA4D"/>
<path d="M365.973 207.645C364.921 207.425 363.828 207.518 362.829 207.912C362.829 207.912 360.272 197.071 359.664 196.709C359.056 196.34 342.972 200.12 334.203 195.369C323.485 191.589 318.365 176.975 327.019 166.743C335.666 156.511 349.309 176.121 357.594 178.677C365.878 181.234 374.525 177.823 377.088 189.395C379.021 198.144 370.792 202.437 365.973 207.645Z" fill="black"/>
<path d="M362.093 232.964C361.113 234.977 359.681 236.736 357.91 238.104C353.891 241.023 345.36 238.59 345.483 234.085C345.499 233.053 345.447 232.021 345.326 230.996C345.217 230.039 345.073 229.068 344.909 228.139C349.327 224.973 352.457 218.262 360.528 219.041C361.28 223.423 363.269 226.69 363.515 227.749C363.521 229.584 363.03 231.387 362.093 232.964Z" fill="white" stroke="black" stroke-width="0.75" stroke-miterlimit="10"/>
<path d="M353.126 225.943C350.809 227.223 348.234 227.965 345.591 228.114C342.949 228.262 340.307 227.813 337.862 226.799C326.092 221.891 330.548 205.316 333.009 198.419C333.678 196.533 334.204 195.371 334.204 195.371C342.974 200.121 359.057 196.341 359.665 196.71C360.232 197.045 362.495 206.505 362.796 207.77C362.816 207.865 362.83 207.913 362.83 207.913C363.829 207.519 364.922 207.427 365.974 207.647C366.488 207.774 366.971 208.003 367.394 208.322C367.817 208.64 368.171 209.04 368.435 209.499C370.383 212.664 367.949 220.948 361.49 217.537C361.176 218.064 360.854 218.563 360.526 219.041" fill="white"/>
<path d="M353.126 225.943C350.809 227.223 348.234 227.965 345.591 228.114C342.949 228.262 340.307 227.813 337.862 226.799C326.092 221.891 330.548 205.316 333.009 198.419C333.678 196.533 334.204 195.371 334.204 195.371C342.974 200.121 359.057 196.341 359.665 196.71C360.232 197.045 362.495 206.505 362.796 207.77C362.816 207.865 362.83 207.913 362.83 207.913C363.829 207.519 364.922 207.427 365.974 207.647C366.488 207.774 366.971 208.003 367.394 208.322C367.817 208.64 368.171 209.04 368.435 209.499C370.383 212.664 367.949 220.948 361.49 217.537C361.176 218.064 360.854 218.563 360.526 219.041" stroke="black" stroke-width="0.75" stroke-miterlimit="10"/>
<path d="M348.094 359.457C343.338 358.437 338.852 356.422 334.93 353.545C330.786 350.427 327.364 346.452 324.896 341.891C331.478 312.896 343.898 290.237 325.142 267.824C317.513 258.72 309.66 253.757 302.38 248.152C291.731 239.964 282.312 230.394 276.659 204.482C273.467 189.875 272.455 181.926 272.312 177.449C272.182 173.696 272.667 172.37 273.002 171.591C273.55 170.936 274.284 170.464 275.107 170.238C278.436 168.905 284.991 167.756 290.118 169.718C291.045 170.068 291.925 170.534 292.735 171.106C292.724 172.925 292.811 174.743 292.995 176.553C295.141 198.952 310.691 240.77 342.154 233.839C343.063 233.648 343.979 233.409 344.909 233.129C344.909 233.129 342.072 237.34 341.519 248.898C341.352 252.772 341.416 256.652 341.71 260.518C342.886 277.059 349.332 329.245 348.094 359.457Z" fill="white" stroke="black" stroke-width="0.75" stroke-miterlimit="10"/>
<path d="M405.052 338.48C406.631 340.852 401.108 346.279 392.147 351.145C388.628 353.053 384.972 354.698 381.211 356.067C383.316 328.746 375.209 268.077 374.027 250.606C373.77 246.533 373.138 242.492 372.14 238.535C369.454 228.132 365.114 223.743 365.114 223.743C365.907 223.244 366.686 222.739 367.445 222.219C388.996 207.612 396.112 186.826 391.894 170.128C387.773 153.833 375.162 136.095 369.878 127.777C368.292 125.268 367.362 123.614 367.533 123.108C368.06 121.851 368.737 120.662 369.55 119.568C371.71 116.485 375.401 112.52 379.83 111.386C381.063 111.066 382.348 110.991 383.61 111.167C385.12 111.386 387.212 112.848 389.638 115.268C400.876 126.519 419.18 158.453 419.18 182.308C419.18 211.303 399.693 238.104 398.23 250.285C396.768 262.465 392.872 317.769 405.052 338.48Z" fill="white" stroke="black" stroke-width="0.75" stroke-miterlimit="10"/>
<path d="M380.445 95.214C380.199 99.9644 378.053 102.398 378.497 107.032C378.659 108.555 379.112 110.033 379.83 111.386C375.401 112.521 371.71 116.485 369.55 119.568C364.02 115.193 362.872 112.521 362.175 107.394C361.443 102.036 359.98 97.2851 361.443 95.8222C362.906 94.3593 366.071 100.573 368.388 102.159C370.698 103.737 373.747 97.039 374.717 92.7739C375.695 88.5155 372.769 81.3247 376.789 81.6939C380.807 82.0561 380.691 90.4636 380.445 95.214Z" fill="white" stroke="black" stroke-width="0.75" stroke-miterlimit="10"/>
<path d="M163.556 201.484C152.512 196.124 138.381 200.348 133.346 206.519C128.311 212.691 128.636 227.959 123.439 237.055C118.241 246.15 99.8873 259.469 106.872 271.975C113.856 284.482 174.114 283.832 178.174 270.838C182.235 257.845 174.601 252.972 175.413 241.278C176.225 229.583 179.799 217.564 173.952 208.144C168.104 198.723 163.556 201.484 163.556 201.484Z" fill="black"/>
<path d="M142.648 399.556C138.474 399.556 130.475 398.975 123.801 395.083L123.64 394.988L123.594 394.808C118.132 373.126 123.582 310.746 125.922 290.602C127.282 279.411 130.299 268.483 134.875 258.18L134.963 257.993L135.184 257.901C136.556 257.587 137.961 257.445 139.368 257.477C147.137 257.477 159.309 260.422 161.671 261.011L161.868 261.061L162.003 261.254C162.099 261.331 162.189 261.415 162.273 261.504C162.765 261.987 162.876 262.105 162.924 262.259C162.982 262.828 162.947 263.402 162.819 263.959C162.562 265.468 162.446 266.996 162.472 268.526C162.219 276.962 160.83 291.466 159.22 308.259C155.961 342.277 151.904 384.614 155.51 396.892L155.614 397.246L155.284 397.413C152.713 398.715 147.753 399.556 142.648 399.556Z" fill="white"/>
<path d="M139.367 257.921C147.578 257.921 160.642 261.212 161.605 261.453C161.646 261.535 162.467 262.283 162.501 262.392C162.652 263.199 161.968 264.987 162.029 268.534C161.257 294.221 149.692 378.65 155.085 397.016C152.775 398.186 148.077 399.112 142.648 399.112C136.587 399.112 129.614 397.958 124.025 394.699C118.448 372.56 124.258 308.78 126.363 290.654C127.706 279.508 130.711 268.627 135.276 258.371L135.297 258.33C136.632 258.027 137.999 257.89 139.367 257.921M139.369 257.034H139.367C137.923 257.002 136.48 257.149 135.072 257.471L134.683 257.573L134.503 257.932L134.499 257.94L134.474 257.99C129.877 268.337 126.846 279.311 125.481 290.551C123.139 310.716 117.687 373.172 123.164 394.916L123.256 395.278L123.578 395.466C130.342 399.411 138.429 400 142.647 400C147.816 400 152.856 399.14 155.485 397.808L156.144 397.475L155.936 396.766C152.355 384.57 156.407 342.28 159.663 308.299C161.273 291.499 162.663 276.99 162.916 268.561C162.89 267.042 163.004 265.524 163.258 264.027C163.393 263.438 163.432 262.831 163.373 262.229L163.364 262.178L163.348 262.127C163.262 261.852 163.091 261.684 162.582 261.185C162.492 261.097 162.406 261.014 162.348 260.955L162.216 260.691L161.82 260.592C159.418 259.991 147.207 257.033 139.368 257.033L139.369 257.034Z" fill="black"/>
<path d="M275.138 258.329C274.291 262.191 272.459 267.55 265.637 270.107C261.853 271.552 258.412 273.77 255.535 276.621C253.796 272.823 250.823 269.725 247.1 267.831C249.322 264.079 251.564 253.033 253.211 251.713C255.043 250.251 256.512 256.587 256.389 259.512C256.259 262.431 268.83 252.807 269.855 249.157C270.88 245.5 272.944 247.086 273.19 249.157C273.436 251.228 275.993 254.468 275.138 258.329Z" fill="white" stroke="black" stroke-width="0.75" stroke-miterlimit="10"/>
<path d="M38.8169 354.768C33.5947 359.922 22.0705 369.511 16.7663 369.511C10.5532 369.511 6.534 365.855 5.31741 363.298C4.10083 360.742 0.443848 360.01 0.443848 358.548C0.443848 357.085 14.456 355.137 18.9605 352.211C16.5272 351.965 13.2326 347.338 13.8478 345.998C14.456 344.658 16.8899 346.121 22.3713 345.998C27.8527 345.875 29.4253 343.838 29.4253 343.838C31.3391 346.087 36.0895 349.006 38.8169 354.768Z" fill="white" stroke="black" stroke-width="0.75" stroke-miterlimit="10"/>
<path d="M157.34 256.976C157.258 257.489 157.203 258.022 157.169 258.555C156.964 261.357 157.142 264.324 155.515 265.561C148.946 270.216 140.375 262.868 138.755 259.43C138.638 259.244 138.559 259.038 138.523 258.822C138.487 258.606 138.493 258.385 138.543 258.172C139.247 256.511 139.397 249.758 139.425 246.963C139.78 246.908 140.478 246.68 140.861 246.57C144.67 251.607 151.757 255.158 157.34 256.976Z" fill="white" stroke="black" stroke-width="0.75" stroke-miterlimit="10"/>
<path d="M140.532 246.716C140.168 246.822 139.799 246.904 139.425 246.962C138.455 247.131 137.46 247.08 136.513 246.815C135.565 246.549 134.689 246.075 133.949 245.427C133.208 244.778 132.622 243.973 132.233 243.069C131.844 242.165 131.662 241.186 131.701 240.202C131.803 239.059 132.238 237.97 132.952 237.071C133.666 236.172 134.629 235.502 135.72 235.144C137.06 234.659 137.552 239.656 138.953 240.079C139.883 240.36 139.787 237.892 139.842 236.033C139.862 235.096 139.924 234.317 140.17 234.112C140.901 233.504 151.865 228.869 153.751 225.22C155.515 228.753 156.246 228.931 157.586 228.507C158.926 228.084 165.809 222.902 166.663 219.977C166.993 223.042 168.201 225.948 170.142 228.343C170.406 228.678 170.689 228.998 170.99 229.3C170.99 229.3 175.617 250.25 166.356 254.878C163.549 256.253 160.466 256.971 157.34 256.976C152.674 257.111 148.115 255.563 144.497 252.614" fill="white"/>
<path d="M140.532 246.716C140.168 246.822 139.799 246.904 139.425 246.962C138.455 247.131 137.46 247.08 136.513 246.815C135.565 246.549 134.689 246.075 133.949 245.427C133.208 244.778 132.622 243.973 132.233 243.069C131.844 242.165 131.662 241.186 131.701 240.202C131.803 239.059 132.238 237.97 132.952 237.071C133.666 236.172 134.629 235.502 135.72 235.144C137.06 234.659 137.552 239.656 138.953 240.079C139.883 240.36 139.787 237.892 139.842 236.033C139.862 235.096 139.924 234.317 140.17 234.112C140.901 233.504 151.865 228.869 153.751 225.22C155.515 228.753 156.246 228.931 157.586 228.507C158.926 228.084 165.809 222.902 166.663 219.977C166.993 223.042 168.201 225.948 170.142 228.343C170.406 228.678 170.689 228.998 170.99 229.3C170.99 229.3 175.617 250.25 166.356 254.878C163.549 256.253 160.466 256.971 157.34 256.976C152.674 257.111 148.115 255.563 144.497 252.614" stroke="black" stroke-width="0.75" stroke-miterlimit="10"/>
<path d="M135.296 258.329L135.276 258.37C130.71 268.626 127.706 279.508 126.363 290.653C124.257 308.78 118.447 372.56 124.025 394.699C124.045 394.781 124.066 394.856 124.087 394.931C123.963 396.366 119.37 395.416 113.724 393.127C104.715 389.463 93.0136 382.375 92.4188 376.086C91.4413 365.854 100.696 343.605 101.674 335.642C102.288 329.817 102.56 323.96 102.487 318.103C102.487 318.103 76.3356 349.046 40.0337 358.055C39.722 356.927 39.315 355.827 38.8169 354.767C36.0896 349.005 31.3392 346.086 29.4254 343.838C28.9828 343.402 28.6888 342.837 28.585 342.225C28.3388 339.299 58.7965 327.358 73.4102 311.281C88.031 295.199 89.7394 268.241 135.296 258.329ZM255.535 276.621C255.502 276.534 255.463 276.449 255.418 276.368C253.661 272.684 250.737 269.683 247.1 267.83C246.29 267.352 245.379 267.071 244.441 267.01C242.008 267.181 228.85 287.892 206.922 286.19C184.995 284.481 184.243 266.805 161.605 261.453C161.649 261.548 161.685 261.646 161.714 261.747C162.104 263.987 162.209 266.268 162.029 268.534C161.256 294.221 149.691 378.65 155.084 397.016C155.203 397.439 155.346 397.855 155.515 398.26C158.44 402.156 171.475 388.513 172.145 380.714C172.815 372.922 162.336 339.86 165.262 330.202C168.187 320.537 179.151 318.104 174.277 299.102C174.284 299.107 174.29 299.112 174.298 299.115C194.284 318.104 235.193 317.263 256.382 281.145C256.422 279.594 256.133 278.052 255.535 276.621H255.535Z" fill="#16CA4D"/>
</g>
<defs>
<clipPath id="clip0_376_1533">
<rect width="516.722" height="400" fill="white"/>
</clipPath>
</defs>
</svg>
