<svg xmlns="http://www.w3.org/2000/svg" viewBox="0 0 500 500"><defs><style>.cls-1{isolation:isolate;}.cls-2,.cls-5{mix-blend-mode:overlay;opacity:0.25;}.cls-3{fill:#16ca4d;}.cls-4,.cls-5,.cls-8{fill:none;}.cls-4{stroke:#16ca4d;stroke-width:0.5px;}.cls-4,.cls-5,.cls-6,.cls-8{stroke-miterlimit:10;}.cls-5{stroke:#fff;stroke-width:0.5742px;}.cls-6,.cls-7{fill:#fff;}.cls-6,.cls-8{stroke:#000;stroke-width:0.75px;}.cls-8{stroke-linecap:round;}</style></defs><g class="cls-1"><g id="Ilus_1" data-name="Ilus 1"><g class="cls-2"><circle class="cls-3" cx="109.5027" cy="144.2084" r="2.0645"/><circle class="cls-3" cx="126.783" cy="144.2084" r="2.0645"/><circle class="cls-3" cx="144.0632" cy="144.2084" r="2.0645"/><circle class="cls-3" cx="161.3435" cy="144.2084" r="2.0645"/><circle class="cls-3" cx="178.6237" cy="144.2084" r="2.0644"/><circle class="cls-3" cx="109.5027" cy="155.3718" r="2.0645"/><circle class="cls-3" cx="126.783" cy="155.3718" r="2.0645"/><circle class="cls-3" cx="144.0632" cy="155.3718" r="2.0645"/><circle class="cls-3" cx="161.3435" cy="155.3718" r="2.0645"/><circle class="cls-3" cx="178.6237" cy="155.3718" r="2.0644"/><circle class="cls-3" cx="109.5027" cy="166.5351" r="2.0645"/><circle class="cls-3" cx="126.783" cy="166.5351" r="2.0645"/><circle class="cls-3" cx="144.0632" cy="166.5351" r="2.0645"/><circle class="cls-3" cx="161.3435" cy="166.5351" r="2.0645"/><circle class="cls-3" cx="178.6237" cy="166.5351" r="2.0644"/><circle class="cls-3" cx="109.5027" cy="177.6985" r="2.0645"/><circle class="cls-3" cx="126.783" cy="177.6985" r="2.0645"/><circle class="cls-3" cx="144.0632" cy="177.6985" r="2.0645"/><circle class="cls-3" cx="161.3435" cy="177.6985" r="2.0645"/><circle class="cls-3" cx="178.6237" cy="177.6985" r="2.0644"/><circle class="cls-3" cx="109.5027" cy="188.8618" r="2.0645"/><circle class="cls-3" cx="126.783" cy="188.8618" r="2.0645"/><circle class="cls-3" cx="144.0632" cy="188.8618" r="2.0645"/><circle class="cls-3" cx="161.3435" cy="188.8618" r="2.0645"/><circle class="cls-3" cx="178.6237" cy="188.8618" r="2.0644"/><circle class="cls-3" cx="109.5027" cy="200.0253" r="2.0645"/><circle class="cls-3" cx="126.783" cy="200.0253" r="2.0645"/><circle class="cls-3" cx="144.0632" cy="200.0253" r="2.0645"/><circle class="cls-3" cx="161.3435" cy="200.0253" r="2.0645"/><circle class="cls-3" cx="178.6237" cy="200.0253" r="2.0644"/><circle class="cls-3" cx="109.5027" cy="211.1886" r="2.0645"/><circle class="cls-3" cx="126.783" cy="211.1886" r="2.0645"/><circle class="cls-3" cx="144.0632" cy="211.1886" r="2.0645"/><circle class="cls-3" cx="161.3435" cy="211.1886" r="2.0645"/><circle class="cls-3" cx="178.6237" cy="211.1886" r="2.0644"/></g><g class="cls-2"><circle class="cls-3" cx="393.1802" cy="98.427" r="2.0645"/><circle class="cls-3" cx="410.4604" cy="98.427" r="2.0645"/><circle class="cls-3" cx="427.7407" cy="98.427" r="2.0645"/><circle class="cls-3" cx="445.0211" cy="98.427" r="2.0645"/><circle class="cls-3" cx="462.3013" cy="98.427" r="2.0645"/><circle class="cls-3" cx="393.1802" cy="109.5903" r="2.0645"/><circle class="cls-3" cx="410.4604" cy="109.5903" r="2.0645"/><circle class="cls-3" cx="427.7407" cy="109.5903" r="2.0645"/><circle class="cls-3" cx="445.0211" cy="109.5903" r="2.0645"/><circle class="cls-3" cx="462.3013" cy="109.5903" r="2.0645"/><circle class="cls-3" cx="393.1802" cy="120.7537" r="2.0645"/><circle class="cls-3" cx="410.4604" cy="120.7537" r="2.0645"/><circle class="cls-3" cx="427.7407" cy="120.7537" r="2.0645"/><circle class="cls-3" cx="445.0211" cy="120.7537" r="2.0645"/><circle class="cls-3" cx="462.3013" cy="120.7537" r="2.0645"/><path class="cls-3" d="M395.2446,131.9171a2.0645,2.0645,0,1,1-2.0644-2.0645A2.0645,2.0645,0,0,1,395.2446,131.9171Z"/><path class="cls-3" d="M412.5249,131.9171a2.0645,2.0645,0,1,1-2.0645-2.0645A2.0646,2.0646,0,0,1,412.5249,131.9171Z"/><path class="cls-3" d="M429.8052,131.9171a2.0645,2.0645,0,1,1-2.0645-2.0645A2.0646,2.0646,0,0,1,429.8052,131.9171Z"/><path class="cls-3" d="M447.0855,131.9171a2.0645,2.0645,0,1,1-2.0644-2.0645A2.0645,2.0645,0,0,1,447.0855,131.9171Z"/><path class="cls-3" d="M464.3658,131.9171a2.0645,2.0645,0,1,1-2.0645-2.0645A2.0646,2.0646,0,0,1,464.3658,131.9171Z"/><circle class="cls-3" cx="393.1802" cy="143.0805" r="2.0645"/><circle class="cls-3" cx="410.4604" cy="143.0805" r="2.0645"/><circle class="cls-3" cx="427.7407" cy="143.0805" r="2.0645"/><circle class="cls-3" cx="445.0211" cy="143.0805" r="2.0645"/><circle class="cls-3" cx="462.3013" cy="143.0805" r="2.0645"/><circle class="cls-3" cx="393.1802" cy="154.2438" r="2.0645"/><circle class="cls-3" cx="410.4604" cy="154.2438" r="2.0645"/><circle class="cls-3" cx="427.7407" cy="154.2438" r="2.0645"/><circle class="cls-3" cx="445.0211" cy="154.2438" r="2.0645"/><circle class="cls-3" cx="462.3013" cy="154.2438" r="2.0645"/><circle class="cls-3" cx="393.1802" cy="165.4071" r="2.0645"/><circle class="cls-3" cx="410.4604" cy="165.4071" r="2.0645"/><circle class="cls-3" cx="427.7407" cy="165.4071" r="2.0645"/><circle class="cls-3" cx="445.0211" cy="165.4071" r="2.0645"/><circle class="cls-3" cx="462.3013" cy="165.4071" r="2.0645"/></g><g class="cls-2"><circle class="cls-3" cx="250.0691" cy="346.6142" r="2.0645"/><circle class="cls-3" cx="267.3494" cy="346.6142" r="2.0645"/><circle class="cls-3" cx="284.6296" cy="346.6142" r="2.0645"/><path class="cls-3" d="M303.9744,346.6142A2.0645,2.0645,0,1,1,301.91,344.55,2.0644,2.0644,0,0,1,303.9744,346.6142Z"/><circle class="cls-3" cx="319.1902" cy="346.6142" r="2.0645"/><circle class="cls-3" cx="250.0691" cy="357.7775" r="2.0645"/><circle class="cls-3" cx="267.3494" cy="357.7775" r="2.0645"/><circle class="cls-3" cx="284.6296" cy="357.7775" r="2.0645"/><path class="cls-3" d="M303.9744,357.7775a2.0645,2.0645,0,1,1-2.0645-2.0644A2.0645,2.0645,0,0,1,303.9744,357.7775Z"/><circle class="cls-3" cx="319.1902" cy="357.7775" r="2.0645"/><circle class="cls-3" cx="250.0691" cy="368.9409" r="2.0645"/><circle class="cls-3" cx="267.3494" cy="368.9409" r="2.0645"/><circle class="cls-3" cx="284.6296" cy="368.9409" r="2.0645"/><path class="cls-3" d="M303.9744,368.9409a2.0645,2.0645,0,1,1-2.0645-2.0645A2.0644,2.0644,0,0,1,303.9744,368.9409Z"/><circle class="cls-3" cx="319.1902" cy="368.9409" r="2.0645"/><circle class="cls-3" cx="250.0691" cy="380.1043" r="2.0645"/><circle class="cls-3" cx="267.3494" cy="380.1043" r="2.0645"/><circle class="cls-3" cx="284.6296" cy="380.1043" r="2.0645"/><path class="cls-3" d="M303.9744,380.1043A2.0645,2.0645,0,1,1,301.91,378.04,2.0646,2.0646,0,0,1,303.9744,380.1043Z"/><circle class="cls-3" cx="319.1902" cy="380.1043" r="2.0645"/><circle class="cls-3" cx="250.0691" cy="391.2676" r="2.0645"/><circle class="cls-3" cx="267.3494" cy="391.2676" r="2.0645"/><circle class="cls-3" cx="284.6296" cy="391.2676" r="2.0645"/><path class="cls-3" d="M303.9744,391.2676a2.0645,2.0645,0,1,1-2.0645-2.0644A2.0645,2.0645,0,0,1,303.9744,391.2676Z"/><circle class="cls-3" cx="319.1902" cy="391.2676" r="2.0645"/><circle class="cls-3" cx="250.0691" cy="402.431" r="2.0645"/><circle class="cls-3" cx="267.3494" cy="402.431" r="2.0645"/><circle class="cls-3" cx="284.6296" cy="402.431" r="2.0645"/><path class="cls-3" d="M303.9744,402.431a2.0645,2.0645,0,1,1-2.0645-2.0645A2.0644,2.0644,0,0,1,303.9744,402.431Z"/><circle class="cls-3" cx="319.1902" cy="402.431" r="2.0645"/><circle class="cls-3" cx="250.0691" cy="413.5943" r="2.0645"/><circle class="cls-3" cx="267.3494" cy="413.5943" r="2.0645"/><circle class="cls-3" cx="284.6296" cy="413.5943" r="2.0645"/><path class="cls-3" d="M303.9744,413.5943A2.0645,2.0645,0,1,1,301.91,411.53,2.0645,2.0645,0,0,1,303.9744,413.5943Z"/><circle class="cls-3" cx="319.1902" cy="413.5943" r="2.0645"/></g><path class="cls-4" d="M97.9665,303.4752s1.61,10.11,6.08,6.73C109.6665,305.9453,97.9665,303.4752,97.9665,303.4752Zm20.03-16.73c.72,5.55,9.05-.38,9.05-.38S117.0865,279.7553,117.9965,286.7453Zm2.56-11.19c6.91-1.39-2.55-8.7-2.55-8.7s-2.47,8.26,1.37,8.76a75.1138,75.1138,0,0,1-1.9,8.03c-1.32-2.35-8.38-1.86-8.38-1.86s4,8.59,7.3,5.25a88.6117,88.6117,0,0,1-3.79,9.22c.1-3.33-8.6-2.73-8.6-2.73s4.07,8.73,7.39,5.16a113.284,113.284,0,0,1-14.5,21.38c.87-3.01-7.18-5.36-7.18-5.36s.84,10.2,5.55,7.17c.05-.04.1-.07.15-.11-1.19,1.36-2.38,2.65-3.53,3.86-1.32,1.39-2.62,2.7-3.91,3.96.71-1.92-2.47-4.25-4.52-5.51-.92-.58-1.61-.93-1.61-.93a21.2584,21.2584,0,0,0-.07,3c.12,2.81.89,6.41,4.18,5.08a6.32,6.32,0,0,0,.58-.26c-4.44,4.2-8.54,7.56-11.7,10a7.3736,7.3736,0,0,0,.38.74,153.5753,153.5753,0,0,0,11.92-10.18,4.9,4.9,0,0,0-.22.46c-2.25,5.13,7.96,4.34,7.96,4.34s-3.35-7.05-6.13-6.35q1.845-1.8,3.74-3.78c1.32-1.39,2.68-2.88,4.06-4.47-.07.22-.14.45-.2.71-1.25,5.46,8.63,2.78,8.63,2.78s-4.35-5.95-6.98-5.18c2.4-2.86,4.84-6,7.18-9.4a.4331.4331,0,0,0-.01.05c-.83,5.54,8.82,2.11,8.82,2.11s-4.5-5.26-7.11-4.7a102.9593,102.9593,0,0,0,5.98-10.49,6.9741,6.9741,0,0,0,.05.88c.72,5.55,9.06-.38,9.06-.38s-5.74-3.81-8.11-2.58a80.9789,80.9789,0,0,0,6.36-19.92C120.3265,275.5952,120.4365,275.5752,120.5565,275.5552Z"/><path class="cls-3" d="M78.32,262.5336c-.16.35-.34.71-.53,1.07a59.7079,59.7079,0,0,0-5.18,13.72,117.8046,117.8046,0,0,0-2.27,11.75c-.44,3-.81,5.91-1.19,8.66-.71,5.1-1.48,9.63-2.9,13.12q-.495-5.325-.5-10.79c0-.63.01-1.26.01-1.89.05-3.07.22-6.12.51-9.13a114.9911,114.9911,0,0,1,5.28-25.19,114.5146,114.5146,0,0,1,5.24-13.14C79.71,252.7736,80.86,257.0835,78.32,262.5336Z"/><path class="cls-5" d="M78.33,262.5336h-.01c-.94-.24-3.85.47-6.77,1.32"/><path class="cls-5" d="M67.92,277.6936c1.75-.48,3.58-.77,4.69-.37"/><path class="cls-5" d="M66.27,289.0436a5.5536,5.5536,0,0,1,4.07.03"/><path class="cls-5" d="M65.76,298.1736c1.23-.59,2.49-.91,3.39-.44"/><path class="cls-3" d="M98.34,277.2136c.69,1.19-6.32,27.19-11.39,33.15s-9.21,5.46-8.98,8.37c.24,2.92,6.77-2.43,6.77-.18,0,.42.32.8.75,1.25q-1.365,1.83-2.78,3.61c-.56.7-1.11,1.39-1.68,2.07-2.95,3.59-6.04,7.01-9.23,10.24-.17-.36-.34-.72-.5-1.08-.29-.62-.58-1.26-.86-1.89a115.2368,115.2368,0,0,1-3.88-18.96c.26-1.2.49-2.45.67-3.81,1.31-9.88,2.48-5.08,7.05-5.48,4.58-.39-1.6-4.63-1.12-10.95.49-6.32,5.88-15.02,6.23-23.09.34-8.06,4.23-6.62,5.19-5.64.95.98,3.37.71,3.34-2.96s-4.77-2.71-4.39-6.37c.33-3.13,6.55-16.69,7.31-27.33a22.3868,22.3868,0,0,0-.14-5.15,6.1037,6.1037,0,0,1,3.04,1.66c6.45,6.22,6.37,27.14,6.6,37.59.25,11.87-9.72,11.83-9.77,15.08C90.51,280.5735,97.64,276.0236,98.34,277.2136Z"/><path class="cls-5" d="M90.7,223.0136a6.0072,6.0072,0,0,1,2.23,2.61c1.75,3.21,3.58,10.11,1.69,24.51-3.13,23.79-11.22,37.69-13.21,48.96-1.86,10.47-9.99,28.36-10.11,35.55"/><path class="cls-4" d="M421.21,289.7911c2.63,4.95,8.35-3.54,8.35-3.54S417.91,283.5611,421.21,289.7911Zm-10.83-31.31s5.07,8.9,8.06,4.16C422.2,256.6811,410.38,258.4811,410.38,258.4811Zm17.25,55.65q-.96-2.52-1.89-5.23c-.53-1.58-1.06-3.25-1.57-4.99.03.05.06.11.09.16,3,4.74,8.06-4.16,8.06-4.16s-8.3-1.26-8.77,1.83a113.3485,113.3485,0,0,1-4.16-25.49c1.51,4.64,8.88-1.57,8.88-1.57s-7.64-4.21-8.95-1.15a88.2641,88.2641,0,0,1,.44-9.96c1.59,4.43,8.84-1.68,8.84-1.68s-6.21-3.42-8.39-1.85a74.7411,74.7411,0,0,1,1.66-8.08c3.69,1.16,4.93-7.37,4.93-7.37s-11.66,2.65-5.98,6.82c.1.07.2.13.29.19a81.1184,81.1184,0,0,0-2.62,20.74c-1.63-2.11-8.44-1.07-8.44-1.07s5.07,8.89,8.06,4.16a7.41,7.41,0,0,0,.41-.77,101.5865,101.5865,0,0,0,1.02,12.03c-2.14-1.61-8.43,1.27-8.43,1.27s7.3,7.17,8.88,1.79c.01-.01.01-.03.02-.05.69,4.07,1.57,7.95,2.55,11.56-2.06-1.81-8.51,1.76-8.51,1.76s7.83,6.59,8.99,1.11a5.2726,5.2726,0,0,0,.12-.73c.58,2.02,1.19,3.95,1.81,5.77q.87,2.58,1.79,5c-2.22-1.81-8.23,3.18-8.23,3.18s8.93,5.01,9.05-.59c0-.18,0-.35-.01-.51.75,1.89,1.51,3.69,2.25,5.37.21-.21.41-.42.61-.63-.68-1.57-1.38-3.24-2.08-4.99.13.15.26.31.42.48,3.82,4.09,7.13-5.6,7.13-5.6S427.86,311.1811,427.63,314.131Z"/><path class="cls-3" d="M423.11,328.6435q-2.22,2.01-4.52,3.9c-.39.32-.78.64-1.17.95-.37.31-.74.6-1.11.9-1.18.94-2.38,1.85-3.6,2.75-.88-.6-1.77-1.22-2.66-1.85a95.7671,95.7671,0,0,1-11.22-8.87h-.01c-3.85-3.69-6.88-7.75-8.03-12.33-.08-.29-.14-.58-.2-.87-1.61-8.16,1.32-13.7,5.32-15.37,3.66-1.53,8.22.2,10.96,6.17.17.35.32.72.47,1.1a59.6415,59.6415,0,0,0,7.09,12.84,118.7588,118.7588,0,0,0,7.48,9.33h.01C422.32,327.7536,422.72,328.2035,423.11,328.6435Z"/><path class="cls-5" d="M395.91,297.8536a23.381,23.381,0,0,0,2.58,16.29,19.8515,19.8515,0,0,0,2.1,2.88,129.8983,129.8983,0,0,0,9.32,9.4h.01c2.41,2.27,4.98,4.65,7.5,7.07"/><path class="cls-5" d="M390.7818,314.0952l9.81,2.93s4.53-11.792,6.2743-13.0048"/><path class="cls-5" d="M398.8242,326.4234s8.0792-.0719,11.0954,0c0,0,2.0713-7.0687,4.51-8.462"/><path class="cls-5" d="M410.05,335.2936a54.7618,54.7618,0,0,1,6.26-.9"/><path class="cls-5" d="M421.92,327.2936h-.01c-2.07.95-2.95,3.49-3.32,5.25"/><path class="cls-3" d="M457.66,280.0036c-3.34,7.08-7.47,7.66-6.49,10.42.28.78.88.79,1.61.43q-2.085,3.8848-4.4,7.61-3.525,5.67-7.55,10.95c-2.77-12.24-1.27-16.77-2.31-24.64-1.31-9.88,1.07-5.55,5.38-7.13,4.32-1.57-2.76-4.05-3.93-10.28-1.18-6.23,1.76-16.03,0-23.91-1.77-7.88,2.35-7.5,3.54-6.8,1.17.69,3.43-.19,2.45-3.73s-5.31-1.38-5.9-5.01c-.58-3.64,2.92-23.2-1.54-33.23,9.7-.59,16.19,23.99,19.53,35.39,3.35,11.4-6.29,13.96-5.5,17.1.78,3.14,6.48-3.11,7.47-2.14C461,245.9936,461,272.9235,457.66,280.0036Z"/><path class="cls-5" d="M438.52,194.6836s7.68,1.38,10.85,25.17c3.18,23.78-1.01,39.31,0,50.71.66,7.41-.71,19.14-.99,27.9"/><path class="cls-6" d="M275.57,222.3665h-.0058c-2.7378.1084-5.0741-.6144-5.9709-4.1635-.1732-2.5466-.0809-5.6822,1.4724-5.6417C273.6706,212.6305,275.57,222.3665,275.57,222.3665Z"/><path class="cls-6" d="M275.5646,222.3665h.0058a15.9915,15.9915,0,0,1,2.3386,6.04c-4.3309-1.6573-9.8687-.6872-12.6809.4389-1.9114-4.2155-6.4329-6.7735-10.3538-8.0555-4.1865-1.3686-5.9016-3.355-5.9016-5.9652,0-2.6043,7.1373,1.6458,11.7339,2.4716,2.1308.3811,5.59-.0057,8.8871.9066a11.58,11.58,0,0,1,2.319.8949"/><path class="cls-3" d="M354.71,362.2936a140.4587,140.4587,0,0,1-25.12,2.25c-1.03,0-2.05-.01-3.08-.03a1.549,1.549,0,0,1-.01-.22c-.04-.77-.08-1.54-.13-2.32-.05-.83-.1-1.67-.15-2.51l-.21-3.15c-.09-1.37-.18-2.73-.29-4.09-.03-.46-.07-.93-.1-1.39-.14-1.86-.28-3.71-.44-5.55-.08-.94-.15-1.88-.23-2.81-.07-.89-.15-1.78-.23-2.66-.12-1.35-.24-2.68-.36-4l-.12-1.32-.12-1.35c-.07-.76-.14-1.5-.21-2.24-.01-.09-.02-.18-.03-.28q-.09-.975-.18-1.92c-.09-1.02-.19-2.02-.29-3q-.315-3.27-.6-6.23c-.06-.58-.11-1.16-.17-1.72-.07-.71-.14-1.4-.2-2.07-.09-1.01-.19-1.97-.28-2.89-.08-.92-.17-1.81-.24-2.65-.04-.42-.08-.84-.11-1.24-.07-.74-.13-1.45-.18-2.1-.02-.2-.03-.4-.05-.59,0-.07-.01-.14-.01-.21-.01-.12-.02-.24-.03-.35-.01-.19-.03-.37-.04-.54-.04-.59-.08-1.16-.11-1.73-.06-1.13-.1-2.2-.12-3.22v-.01c-.03-1.45-.01-2.8.03-4.05a.7584.7584,0,0,1,.01-.15c.02-.56.05-1.11.08-1.64s.07-1.04.12-1.53c.02-.24.04-.48.07-.72.02-.24.04-.47.07-.69q.06-.48.12-.93c.05-.34.1-.67.15-.98.05-.34.11-.67.17-.99.08-.42.16-.81.24-1.18.05-.24.11-.46.16-.68q.165-.66.33-1.23c.05-.18.1-.35.16-.52.1-.34.21-.64.31-.92a10.5345,10.5345,0,0,1,.91-1.97l.48-.15c.37-.11.75-.24,1.13-.38a80.4509,80.4509,0,0,0,13.25-6.07c.75-.43,1.49-.87,2.21-1.32a.2868.2868,0,0,1,.03.04.17.17,0,0,1,.06.06c.11.12.31.34.58.69.07.09.15.2.23.31.07.09.14.2.22.31.11.16.23.33.35.52a24.262,24.262,0,0,1,1.6,2.79c.12.23.24.47.35.72.09.17.17.35.25.53.04.09.08.18.12.28a33.7735,33.7735,0,0,1,1.23,3.18q.12.345.24.72c.07.24.15.49.23.75.15.51.3,1.04.44,1.59.23.88.44,1.81.63,2.8.07.33.13.66.19,1,.09.47.17.96.24,1.45a.4245.4245,0,0,1,.02.11c.07.47.13.95.19,1.44a.22.22,0,0,1,.01.08c.05.38.09.76.13,1.15.08.7.14,1.43.19,2.17C349.53,307.5236,353.38,337.7736,354.71,362.2936Z"/><path d="M341.9934,260.4483a4.65,4.65,0,0,0-2.6563.2252s-2.16-9.1584-2.6738-9.4645c-.5138-.3117-14.1014,2.8815-21.51-1.1318-9.0544-3.1933-13.38-15.5394-6.069-24.1839,7.3048-8.6445,18.8308,7.9227,25.83,10.0824s14.3036-.7218,16.469,9.0546C353.0169,252.4216,346.0643,256.0481,341.9934,260.4483Z"/><path class="cls-6" d="M338.7152,281.8387a12.2793,12.2793,0,0,1-3.534,4.3424c-3.3954,2.4658-10.6022.41-10.4983-3.3954a19.7,19.7,0,0,0-.1327-2.61c-.0924-.8085-.2136-1.6284-.3522-2.4138,3.7325-2.6745,6.3766-8.3441,13.1948-7.686.6352,3.7016,2.3156,6.4618,2.5234,7.3569A8.5671,8.5671,0,0,1,338.7152,281.8387Z"/><path class="cls-6" d="M331.14,275.9067a14.8775,14.8775,0,0,1-12.8953.7233c-9.9438-4.1462-6.1788-18.1495-4.1-23.9759.5659-1.5938,1.01-2.5755,1.01-2.5755,7.4089,4.0132,20.9964.82,21.51,1.1317.4793.2831,2.3907,8.275,2.6448,9.3433.0173.0809.0289.1213.0289.1213a4.6492,4.6492,0,0,1,2.6563-.2252,3.3162,3.3162,0,0,1,2.0788,1.5649c1.6458,2.6736-.41,9.6724-5.867,6.7909-.2656.4446-.537.8661-.8142,1.27"/><path class="cls-6" d="M310.02,363.1735c5.39-19.55,10.94-35.79-2.52-51.88-6.45-7.7-13.08-11.89-19.23-16.62-9-6.92-16.96-15.01-21.73-36.9-2.7-12.34-3.55-19.05-3.67-22.84-.11-3.17.3-4.29.58-4.94a3.5421,3.5421,0,0,1,1.78-1.15c2.81-1.12,8.35-2.09,12.68-.44a9.7886,9.7886,0,0,1,2.21,1.18,42.6465,42.6465,0,0,0,.22,4.6c1.81,18.92,14.95,54.25,41.53,48.39.77-.16,1.54-.36,2.33-.6a10.5345,10.5345,0,0,0-.91,1.97c-.1.27-.21.58-.31.92-.06.16-.11.34-.16.52q-.165.57-.33,1.23c-.06.22-.11.44-.16.68-.08.37-.16.76-.24,1.18-.06.32-.12.64-.17.99-.05.31-.1.64-.15.98q-.06.45-.12.93c-.03.22-.05.45-.07.69-.03.24-.06.48-.07.72q-.075.735-.12,1.53c-.03.32-.04.65-.06.99-.01.21-.02.43-.02.65a.7584.7584,0,0,0-.01.15q-.075,1.875-.03,4.05v.01c.02,1.02.06,2.1.12,3.22.03.57.07,1.14.11,1.73.01.17.03.35.04.54.01.11.02.23.03.35,0,.07.01.14.01.21.02.19.03.39.05.59.05.65.11,1.36.18,2.1.03.4.07.82.11,1.24.07.84.16,1.73.24,2.65.09.93.18,1.89.28,2.89.06.67.13,1.36.2,2.07.05.56.11,1.13.17,1.72q.285,2.9549.6,6.23c.09.98.19,1.98.29,3,.06.63.12,1.28.18,1.92.01.1.02.19.03.28.07.74.13,1.49.21,2.24l.12,1.35.12,1.32c.12,1.32.24,2.65.36,4,.07.89.15,1.77.23,2.66.08.93.15,1.87.23,2.81.15,1.84.3,3.69.44,5.55.03.46.07.93.1,1.39.1,1.37.2,2.73.29,4.09l.21,3.15c.05.84.1,1.67.15,2.51.04.78.08,1.55.13,2.32a1.549,1.549,0,0,0,.01.22A137.8707,137.8707,0,0,1,310.02,363.1735Z"/><path class="cls-6" d="M370.55,358.4435a137.0089,137.0089,0,0,1-15.84,3.85c-1.33-24.52-5.18-54.77-5.91-65.55-.05-.74-.11-1.47-.19-2.17-.03-.39-.08-.78-.13-1.15a.22.22,0,0,0-.01-.08c-.05-.49-.12-.97-.19-1.44a.4245.4245,0,0,0-.02-.11c-.07-.5-.15-.98-.24-1.45-.05-.34-.12-.67-.19-1-.19-.99-.4-1.92-.63-2.8-.14-.55-.29-1.08-.44-1.59-.08-.26-.16-.51-.23-.75q-.12-.375-.24-.72a33.7735,33.7735,0,0,0-1.23-3.18c-.04-.1-.08-.19-.12-.28-.08-.18-.16-.36-.25-.53-.11-.25-.23-.49-.35-.72a24.262,24.262,0,0,0-1.6-2.79c-.12-.19-.24-.36-.35-.52-.08-.11-.15-.22-.22-.31-.08-.11-.16-.22-.23-.31-.27-.35-.47-.57-.58-.69a.3309.3309,0,0,0-.06-.06.2868.2868,0,0,0-.03-.04c.67-.43,1.33-.85,1.97-1.29,18.2-12.34,24.22-29.9,20.65-44.01-3.48-13.77-14.13-28.75-18.6-35.78-1.34-2.12-2.12-3.52-1.98-3.94a14.046,14.046,0,0,1,1.71-2.99c1.82-2.61,4.94-5.96,8.68-6.92a8.1085,8.1085,0,0,1,3.19-.18c1.28.18,3.05,1.42,5.1,3.46,9.49,9.51,24.95,36.49,24.95,56.64,0,24.5-16.46,47.14-17.69,57.43C368.24,304.8235,365.89,337.1935,370.55,358.4435Z"/><path class="cls-6" d="M354.22,165.464c-.2079,4.0132-2.0211,6.069-1.6458,9.9841a10.1317,10.1317,0,0,0,1.126,3.6784c-3.7419.9586-6.86,4.3079-8.6848,6.9122-4.6717-3.6958-5.6418-5.9536-6.2308-10.2845-.6179-4.5272-1.8536-8.5406-.6179-9.7764s3.9094,4.0133,5.867,5.3531c1.9518,1.3339,4.5273-4.3252,5.3472-7.9285.8257-3.5975-1.6457-9.6724,1.75-9.3605C354.5259,154.3479,354.4277,161.4506,354.22,165.464Z"/><path d="M170.9873,255.2435c-9.3308-4.5282-21.2687-.96-25.5224,4.2538s-3.9793,18.1127-8.37,25.7969-19.8965,18.936-13.9961,29.5017,56.8079,10.0168,60.2383-.9606-3.0187-15.0939-2.3326-24.9735,3.7049-20.0338-1.235-27.9924S170.9873,255.2435,170.9873,255.2435Z"/><path class="cls-3" d="M248.69,318.7236a2.12,2.12,0,0,0-.1-.22c-.08-.19-.17-.38-.26-.57-.04-.07-.07-.14-.11-.21-.08-.16-.17-.31-.26-.47s-.18-.31-.28-.46c-.11-.17-.22-.33-.33-.49a12.8909,12.8909,0,0,0-.92-1.18c-.15-.17-.31-.34-.47-.51a16.4724,16.4724,0,0,0-4.39-3.32,5.0526,5.0526,0,0,0-2.25-.69c-2.06.14-13.17,17.64-31.7,16.2-12.38-.96-16.77-7.96-24.03-13.84a34.0953,34.0953,0,0,0-14.25-7.06c.03.07.06.16.09.25a17.4518,17.4518,0,0,1,.29,4.37.0854.0854,0,0,1,0,.07c0,.41-.01.85-.02,1.3-.08,2.46-.27,5.56-.54,9.14-1.91,24.83-7.8,72.93-6.3,93.12q5.475.8852,11.12,1.24c2.26-2.89,4.04-6.18,4.26-8.73.57-6.59-8.28-34.52-5.81-42.68s11.73-10.22,7.61-26.27a.0349.0349,0,0,0,.02.01c16.89,16.04,51.45,15.33,69.35-15.18A9.19,9.19,0,0,0,248.69,318.7236Zm-126.31-5.51c-15.43,10.5-18.67,25.02-27.55,34.79a65.1881,65.1881,0,0,1-10.5,8.99c-12.58,8.94-27.53,15.26-27.37,17.15a2.4339,2.4339,0,0,0,.71,1.36c1.62,1.9,5.63,4.37,7.93,9.24a16.742,16.742,0,0,1,1.03,2.77c11.86-2.95,22.45-8.66,30.96-14.57a122.3164,122.3164,0,0,0,21.8-19.18,126.9393,126.9393,0,0,1-.68,14.82c-.47,3.77-3.12,11.32-5.23,18.76a167.2108,167.2108,0,0,0,22.27,14.77c-.89-23.87,2.42-59.54,3.81-71.54a85.1124,85.1124,0,0,1,1.5-8.84,92.7233,92.7233,0,0,1,6.03-18.43l.02-.04C136.29,305.6136,128.4,309.1136,122.38,313.2136Z"/><path class="cls-7" d="M162.4508,413.6808c-2.9531-1.0312-5.9673-2.1806-8.9067-3.4043a171.8677,171.8677,0,0,1-17.4268-8.3886c-.8667-23.961,2.4575-59.5479,3.8155-71.2715a84.8527,84.8527,0,0,1,1.4931-8.8008,93.6433,93.6433,0,0,1,5.9458-18.23,12.52,12.52,0,0,1,2.565-.2773c.2041-.0059.41-.0078.6191-.0078,4.729,0,11.3423,1.3027,14.8638,2.0791,1.7192.37,3.0258.6865,3.7124.8584.0566.0585.1367.1376.2544.2519.13.1279.2754.2656.353.3535a5.9533,5.9533,0,0,1-.1118,1.0274,22.0976,22.0976,0,0,0-.2822,2.6367l-.002.1015c-.019.3985-.0283.8252-.0186,1.292-.0756,2.3184-.2524,5.3028-.539,9.1036-.5161,6.7138-1.333,15.2275-2.1983,24.2421C164.2975,369.1135,161.4537,398.7511,162.4508,413.6808Z"/><path d="M150.5553,303.6756c4.689,0,11.2749,1.2972,14.7869,2.0712.8737.1881,2.185.48,3.5968.83.0508.0508.1107.1094.1824.1793.0651.0636.164.16.243.24-.0114.2005-.06.513-.1075.8176a22.5168,22.5168,0,0,0-.2862,2.678l-.0083.194.0023.0045c-.0183.419-.023.8157-.0143,1.179-.0758,2.3319-.2519,5.3111-.5382,9.107-.5161,6.7094-1.3327,15.22-2.1973,24.23-2.2628,23.5817-5.0659,52.793-4.1742,67.9285-2.8019-.9862-5.6084-2.0626-8.354-3.2042a171.8726,171.8726,0,0,1-17.2025-8.2681c-.8383-23.9337,2.4677-59.3211,3.8208-71.0028a84.4677,84.4677,0,0,1,1.4876-8.7655,94.1208,94.1208,0,0,1,5.8424-17.9823,12.7274,12.7274,0,0,1,2.3146-.2286q.2965-.0076.6057-.0077m0-.75q-.3183,0-.6249.0079a12.5441,12.5441,0,0,0-2.82.33l-.02.04a92.7233,92.7233,0,0,0-6.03,18.43,85.1124,85.1124,0,0,0-1.5,8.84c-1.39,12-4.7,47.67-3.81,71.54a172.0967,172.0967,0,0,0,17.65,8.51q4.545,1.89,9.14,3.48c.11.02.21.03.32.05-1.5-20.19,4.39-68.29,6.3-93.12.27-3.58.46-6.68.54-9.14-.01-.47,0-.9.02-1.3a.0854.0854,0,0,0,0-.07c.09-2.11.48-3.25.38-3.82-.03-.1-.73-.73-.76-.8-.28-.07-1.75-.44-3.84-.89-4.0328-.8888-10.3757-2.088-14.9451-2.088Z"/><path class="cls-6" d="M265.254,303.2676c-.716,3.2627-2.2636,7.79-8.0266,9.95a24.59,24.59,0,0,0-8.5348,5.5031,15.6309,15.6309,0,0,0-7.1258-7.426c1.8768-3.17,3.7708-12.502,5.1625-13.6164,1.5476-1.2359,2.7891,4.1172,2.6852,6.5888-.11,2.4656,10.51-5.6649,11.3758-8.7485.8662-3.0894,2.61-1.75,2.818,0S265.9758,300.005,265.254,303.2676Z"/><path class="cls-6" d="M65.6043,384.7409c-4.4117,4.354-14.1476,12.4557-18.6287,12.4557-5.249,0-8.6445-3.0894-9.6724-5.249s-4.1172-2.7777-4.1172-4.0134,11.8378-2.8815,15.6432-5.353c-2.0557-.2078-4.839-4.1172-4.3193-5.249.5139-1.1319,2.57.1039,7.2008,0s5.9594-1.8248,5.9594-1.8248C59.2869,377.4072,63.3,379.8729,65.6043,384.7409Z"/><path class="cls-6" d="M165.7353,302.1243c-.0693.433-.1155.8835-.1444,1.3339-.1733,2.3675-.0231,4.8737-1.3974,5.9189-5.5494,3.9324-12.7907-2.2752-14.1593-5.18a1.4,1.4,0,0,1-.1789-1.0626c.5946-1.4032.7218-7.1084.7448-9.47.3-.0461.89-.239,1.2131-.3314C155.0311,297.5881,161.0187,300.5884,165.7353,302.1243Z"/><path class="cls-6" d="M151.5356,293.4566a7.6019,7.6019,0,0,1-.9355.2079,5.5749,5.5749,0,0,1-6.5252-5.711A4.96,4.96,0,0,1,147.47,283.68c1.1318-.41,1.5476,3.8112,2.7313,4.1692.7854.2368.7045-1.8478.7508-3.4185.0173-.7911.0693-1.4494.2772-1.6227.6178-.5139,9.88-4.4291,11.474-7.5126,1.49,2.9854,2.1077,3.1355,3.2395,2.7775s6.9469-4.7351,7.6687-7.2066a13.53,13.53,0,0,0,2.9392,7.068,9.2492,9.2492,0,0,0,.7161.8085s3.9093,17.6989-3.9152,21.6084a17.3739,17.3739,0,0,1-7.6166,1.7728,16.4222,16.4222,0,0,1-10.85-3.6849"/><path class="cls-8" d="M149.76,87.8935a39.4,39.4,0,1,0,39.4,39.4A39.4,39.4,0,0,0,149.76,87.8935Zm-58.92,140.27a115.2786,115.2786,0,0,0-12.21,18.84c-.63,1.22-1.25,2.46-1.84,3.71a114.5146,114.5146,0,0,0-5.24,13.14,114.9911,114.9911,0,0,0-5.28,25.19c-.29,3.01-.46,6.06-.51,9.13,0,.63-.01,1.26-.01,1.89q0,5.46.5,10.79c.09.98.19,1.96.31,2.94a115.2368,115.2368,0,0,0,3.88,18.96c.28.63.57,1.27.86,1.89.16.36.33.72.5,1.08q1.095,2.325,2.29,4.58a7.3859,7.3859,0,0,0,.38.74,137.1133,137.1133,0,0,0,9.86,15.95m13.26,15.95q1.56,1.6352,3.17,3.21a154.4759,154.4759,0,0,0,12.72,11.19,167.2108,167.2108,0,0,0,22.27,14.77,172.0967,172.0967,0,0,0,17.65,8.51q4.545,1.89,9.14,3.48c.11.02.21.03.32.05q5.475.8852,11.12,1.24,3.645.2251,7.33.23a115.51,115.51,0,0,0,100.95-59.3,140.5041,140.5041,0,0,0,44.25,8.19c1.03.02,2.05.03,3.08.03a140.4587,140.4587,0,0,0,25.12-2.25,137.0089,137.0089,0,0,0,15.84-3.85,139.0861,139.0861,0,0,0,42.16-21.3c1.22-.9,2.42-1.81,3.6-2.75.37-.3.74-.59,1.11-.9.39-.31.78-.63,1.17-.95q2.295-1.89,4.52-3.9,3.465-3.105,6.71-6.46c.21-.21.41-.42.61-.63a141.6139,141.6139,0,0,0,10.4-12.14q4.02-5.28,7.55-10.95,2.31-3.72,4.4-7.61a138.8749,138.8749,0,0,0,16.47-60.6c.06-1.81.1-3.64.1-5.47a139.7723,139.7723,0,0,0-273.87-39.41,115.7432,115.7432,0,0,0-101.74,39.3"/></g></g></svg>