<svg width="530" height="402" viewBox="0 0 530 402" fill="none" xmlns="http://www.w3.org/2000/svg">
<g style="mix-blend-mode:overlay" opacity="0.25">
<g style="mix-blend-mode:overlay">
<path d="M93.3267 75.0995C94.7061 75.0995 95.8243 73.9813 95.8243 72.6019C95.8243 71.2225 94.7061 70.1043 93.3267 70.1043C91.9473 70.1043 90.8291 71.2225 90.8291 72.6019C90.8291 73.9813 91.9473 75.0995 93.3267 75.0995Z" fill="#16CA4D"/>
</g>
<g style="mix-blend-mode:overlay">
<path d="M114.232 75.0995C115.612 75.0995 116.73 73.9813 116.73 72.6019C116.73 71.2225 115.612 70.1043 114.232 70.1043C112.853 70.1043 111.735 71.2225 111.735 72.6019C111.735 73.9813 112.853 75.0995 114.232 75.0995Z" fill="#16CA4D"/>
</g>
<g style="mix-blend-mode:overlay">
<path d="M135.138 75.0995C136.517 75.0995 137.635 73.9813 137.635 72.6019C137.635 71.2225 136.517 70.1043 135.138 70.1043C133.758 70.1043 132.64 71.2225 132.64 72.6019C132.64 73.9813 133.758 75.0995 135.138 75.0995Z" fill="#16CA4D"/>
</g>
<g style="mix-blend-mode:overlay">
<path d="M156.044 75.0995C157.423 75.0995 158.541 73.9813 158.541 72.6019C158.541 71.2225 157.423 70.1043 156.044 70.1043C154.664 70.1043 153.546 71.2225 153.546 72.6019C153.546 73.9813 154.664 75.0995 156.044 75.0995Z" fill="#16CA4D"/>
</g>
<g style="mix-blend-mode:overlay">
<path d="M176.949 75.0994C178.328 75.0994 179.446 73.9812 179.446 72.6019C179.446 71.2226 178.328 70.1044 176.949 70.1044C175.569 70.1044 174.451 71.2226 174.451 72.6019C174.451 73.9812 175.569 75.0994 176.949 75.0994Z" fill="#16CA4D"/>
</g>
<g style="mix-blend-mode:overlay">
<path d="M93.3267 88.6049C94.7061 88.6049 95.8243 87.4867 95.8243 86.1073C95.8243 84.7279 94.7061 83.6097 93.3267 83.6097C91.9473 83.6097 90.8291 84.7279 90.8291 86.1073C90.8291 87.4867 91.9473 88.6049 93.3267 88.6049Z" fill="#16CA4D"/>
</g>
<g style="mix-blend-mode:overlay">
<path d="M114.232 88.6049C115.612 88.6049 116.73 87.4867 116.73 86.1073C116.73 84.7279 115.612 83.6097 114.232 83.6097C112.853 83.6097 111.735 84.7279 111.735 86.1073C111.735 87.4867 112.853 88.6049 114.232 88.6049Z" fill="#16CA4D"/>
</g>
<g style="mix-blend-mode:overlay">
<path d="M135.138 88.6049C136.517 88.6049 137.635 87.4867 137.635 86.1073C137.635 84.7279 136.517 83.6097 135.138 83.6097C133.758 83.6097 132.64 84.7279 132.64 86.1073C132.64 87.4867 133.758 88.6049 135.138 88.6049Z" fill="#16CA4D"/>
</g>
<g style="mix-blend-mode:overlay">
<path d="M156.044 88.6049C157.423 88.6049 158.541 87.4867 158.541 86.1073C158.541 84.7279 157.423 83.6097 156.044 83.6097C154.664 83.6097 153.546 84.7279 153.546 86.1073C153.546 87.4867 154.664 88.6049 156.044 88.6049Z" fill="#16CA4D"/>
</g>
<g style="mix-blend-mode:overlay">
<path d="M176.949 88.6048C178.328 88.6048 179.446 87.4866 179.446 86.1073C179.446 84.728 178.328 83.6098 176.949 83.6098C175.569 83.6098 174.451 84.728 174.451 86.1073C174.451 87.4866 175.569 88.6048 176.949 88.6048Z" fill="#16CA4D"/>
</g>
<g style="mix-blend-mode:overlay">
<path d="M93.3267 102.11C94.7061 102.11 95.8243 100.992 95.8243 99.6126C95.8243 98.2332 94.7061 97.1149 93.3267 97.1149C91.9473 97.1149 90.8291 98.2332 90.8291 99.6126C90.8291 100.992 91.9473 102.11 93.3267 102.11Z" fill="#16CA4D"/>
</g>
<g style="mix-blend-mode:overlay">
<path d="M114.232 102.11C115.612 102.11 116.73 100.992 116.73 99.6126C116.73 98.2332 115.612 97.1149 114.232 97.1149C112.853 97.1149 111.735 98.2332 111.735 99.6126C111.735 100.992 112.853 102.11 114.232 102.11Z" fill="#16CA4D"/>
</g>
<g style="mix-blend-mode:overlay">
<path d="M135.138 102.11C136.517 102.11 137.635 100.992 137.635 99.6126C137.635 98.2332 136.517 97.1149 135.138 97.1149C133.758 97.1149 132.64 98.2332 132.64 99.6126C132.64 100.992 133.758 102.11 135.138 102.11Z" fill="#16CA4D"/>
</g>
<g style="mix-blend-mode:overlay">
<path d="M156.044 102.11C157.423 102.11 158.541 100.992 158.541 99.6126C158.541 98.2332 157.423 97.1149 156.044 97.1149C154.664 97.1149 153.546 98.2332 153.546 99.6126C153.546 100.992 154.664 102.11 156.044 102.11Z" fill="#16CA4D"/>
</g>
<g style="mix-blend-mode:overlay">
<path d="M176.949 102.11C178.328 102.11 179.446 100.992 179.446 99.6125C179.446 98.2332 178.328 97.115 176.949 97.115C175.569 97.115 174.451 98.2332 174.451 99.6125C174.451 100.992 175.569 102.11 176.949 102.11Z" fill="#16CA4D"/>
</g>
<g style="mix-blend-mode:overlay">
<path d="M93.3267 115.616C94.7061 115.616 95.8243 114.497 95.8243 113.118C95.8243 111.739 94.7061 110.62 93.3267 110.62C91.9473 110.62 90.8291 111.739 90.8291 113.118C90.8291 114.497 91.9473 115.616 93.3267 115.616Z" fill="#16CA4D"/>
</g>
<g style="mix-blend-mode:overlay">
<path d="M114.232 115.616C115.612 115.616 116.73 114.497 116.73 113.118C116.73 111.739 115.612 110.62 114.232 110.62C112.853 110.62 111.735 111.739 111.735 113.118C111.735 114.497 112.853 115.616 114.232 115.616Z" fill="#16CA4D"/>
</g>
<g style="mix-blend-mode:overlay">
<path d="M135.138 115.616C136.517 115.616 137.635 114.497 137.635 113.118C137.635 111.739 136.517 110.62 135.138 110.62C133.758 110.62 132.64 111.739 132.64 113.118C132.64 114.497 133.758 115.616 135.138 115.616Z" fill="#16CA4D"/>
</g>
<g style="mix-blend-mode:overlay">
<path d="M156.044 115.616C157.423 115.616 158.541 114.497 158.541 113.118C158.541 111.739 157.423 110.62 156.044 110.62C154.664 110.62 153.546 111.739 153.546 113.118C153.546 114.497 154.664 115.616 156.044 115.616Z" fill="#16CA4D"/>
</g>
<g style="mix-blend-mode:overlay">
<path d="M176.949 115.615C178.328 115.615 179.446 114.497 179.446 113.118C179.446 111.739 178.328 110.62 176.949 110.62C175.569 110.62 174.451 111.739 174.451 113.118C174.451 114.497 175.569 115.615 176.949 115.615Z" fill="#16CA4D"/>
</g>
<g style="mix-blend-mode:overlay">
<path d="M93.3267 129.121C94.7061 129.121 95.8243 128.003 95.8243 126.623C95.8243 125.244 94.7061 124.126 93.3267 124.126C91.9473 124.126 90.8291 125.244 90.8291 126.623C90.8291 128.003 91.9473 129.121 93.3267 129.121Z" fill="#16CA4D"/>
</g>
<g style="mix-blend-mode:overlay">
<path d="M114.232 129.121C115.612 129.121 116.73 128.003 116.73 126.623C116.73 125.244 115.612 124.126 114.232 124.126C112.853 124.126 111.735 125.244 111.735 126.623C111.735 128.003 112.853 129.121 114.232 129.121Z" fill="#16CA4D"/>
</g>
<g style="mix-blend-mode:overlay">
<path d="M135.138 129.121C136.517 129.121 137.635 128.003 137.635 126.623C137.635 125.244 136.517 124.126 135.138 124.126C133.758 124.126 132.64 125.244 132.64 126.623C132.64 128.003 133.758 129.121 135.138 129.121Z" fill="#16CA4D"/>
</g>
<g style="mix-blend-mode:overlay">
<path d="M156.044 129.121C157.423 129.121 158.541 128.003 158.541 126.623C158.541 125.244 157.423 124.126 156.044 124.126C154.664 124.126 153.546 125.244 153.546 126.623C153.546 128.003 154.664 129.121 156.044 129.121Z" fill="#16CA4D"/>
</g>
<g style="mix-blend-mode:overlay">
<path d="M176.949 129.121C178.328 129.121 179.446 128.002 179.446 126.623C179.446 125.244 178.328 124.126 176.949 124.126C175.569 124.126 174.451 125.244 174.451 126.623C174.451 128.002 175.569 129.121 176.949 129.121Z" fill="#16CA4D"/>
</g>
<g style="mix-blend-mode:overlay">
<path d="M93.3267 142.626C94.7061 142.626 95.8243 141.508 95.8243 140.129C95.8243 138.749 94.7061 137.631 93.3267 137.631C91.9473 137.631 90.8291 138.749 90.8291 140.129C90.8291 141.508 91.9473 142.626 93.3267 142.626Z" fill="#16CA4D"/>
</g>
<g style="mix-blend-mode:overlay">
<path d="M114.232 142.626C115.612 142.626 116.73 141.508 116.73 140.129C116.73 138.749 115.612 137.631 114.232 137.631C112.853 137.631 111.735 138.749 111.735 140.129C111.735 141.508 112.853 142.626 114.232 142.626Z" fill="#16CA4D"/>
</g>
<g style="mix-blend-mode:overlay">
<path d="M135.138 142.626C136.517 142.626 137.635 141.508 137.635 140.129C137.635 138.749 136.517 137.631 135.138 137.631C133.758 137.631 132.64 138.749 132.64 140.129C132.64 141.508 133.758 142.626 135.138 142.626Z" fill="#16CA4D"/>
</g>
<g style="mix-blend-mode:overlay">
<path d="M156.044 142.626C157.423 142.626 158.541 141.508 158.541 140.129C158.541 138.749 157.423 137.631 156.044 137.631C154.664 137.631 153.546 138.749 153.546 140.129C153.546 141.508 154.664 142.626 156.044 142.626Z" fill="#16CA4D"/>
</g>
<g style="mix-blend-mode:overlay">
<path d="M176.949 142.626C178.328 142.626 179.446 141.508 179.446 140.129C179.446 138.749 178.328 137.631 176.949 137.631C175.569 137.631 174.451 138.749 174.451 140.129C174.451 141.508 175.569 142.626 176.949 142.626Z" fill="#16CA4D"/>
</g>
<g style="mix-blend-mode:overlay">
<path d="M93.3267 156.131C94.7061 156.131 95.8243 155.013 95.8243 153.634C95.8243 152.254 94.7061 151.136 93.3267 151.136C91.9473 151.136 90.8291 152.254 90.8291 153.634C90.8291 155.013 91.9473 156.131 93.3267 156.131Z" fill="#16CA4D"/>
</g>
<g style="mix-blend-mode:overlay">
<path d="M114.232 156.131C115.612 156.131 116.73 155.013 116.73 153.634C116.73 152.254 115.612 151.136 114.232 151.136C112.853 151.136 111.735 152.254 111.735 153.634C111.735 155.013 112.853 156.131 114.232 156.131Z" fill="#16CA4D"/>
</g>
<g style="mix-blend-mode:overlay">
<path d="M135.138 156.131C136.517 156.131 137.635 155.013 137.635 153.634C137.635 152.254 136.517 151.136 135.138 151.136C133.758 151.136 132.64 152.254 132.64 153.634C132.64 155.013 133.758 156.131 135.138 156.131Z" fill="#16CA4D"/>
</g>
<g style="mix-blend-mode:overlay">
<path d="M156.044 156.131C157.423 156.131 158.541 155.013 158.541 153.634C158.541 152.254 157.423 151.136 156.044 151.136C154.664 151.136 153.546 152.254 153.546 153.634C153.546 155.013 154.664 156.131 156.044 156.131Z" fill="#16CA4D"/>
</g>
<g style="mix-blend-mode:overlay">
<path d="M176.949 156.131C178.328 156.131 179.446 155.013 179.446 153.634C179.446 152.255 178.328 151.136 176.949 151.136C175.569 151.136 174.451 152.255 174.451 153.634C174.451 155.013 175.569 156.131 176.949 156.131Z" fill="#16CA4D"/>
</g>
</g>
<g style="mix-blend-mode:overlay" opacity="0.25">
<g style="mix-blend-mode:overlay">
<path d="M436.517 19.7137C437.897 19.7137 439.015 18.5955 439.015 17.2161C439.015 15.8367 437.897 14.7185 436.517 14.7185C435.138 14.7185 434.02 15.8367 434.02 17.2161C434.02 18.5955 435.138 19.7137 436.517 19.7137Z" fill="#16CA4D"/>
</g>
<g style="mix-blend-mode:overlay">
<path d="M457.423 19.7137C458.802 19.7137 459.921 18.5955 459.921 17.2161C459.921 15.8367 458.802 14.7185 457.423 14.7185C456.043 14.7185 454.925 15.8367 454.925 17.2161C454.925 18.5955 456.043 19.7137 457.423 19.7137Z" fill="#16CA4D"/>
</g>
<g style="mix-blend-mode:overlay">
<path d="M478.328 19.7137C479.708 19.7137 480.826 18.5955 480.826 17.2161C480.826 15.8367 479.708 14.7185 478.328 14.7185C476.949 14.7185 475.831 15.8367 475.831 17.2161C475.831 18.5955 476.949 19.7137 478.328 19.7137Z" fill="#16CA4D"/>
</g>
<g style="mix-blend-mode:overlay">
<path d="M499.233 19.7137C500.613 19.7137 501.731 18.5955 501.731 17.2161C501.731 15.8367 500.613 14.7185 499.233 14.7185C497.854 14.7185 496.736 15.8367 496.736 17.2161C496.736 18.5955 497.854 19.7137 499.233 19.7137Z" fill="#16CA4D"/>
</g>
<g style="mix-blend-mode:overlay">
<path d="M520.139 19.7137C521.519 19.7137 522.637 18.5955 522.637 17.2161C522.637 15.8367 521.519 14.7185 520.139 14.7185C518.76 14.7185 517.642 15.8367 517.642 17.2161C517.642 18.5955 518.76 19.7137 520.139 19.7137Z" fill="#16CA4D"/>
</g>
<g style="mix-blend-mode:overlay">
<path d="M436.517 33.2189C437.897 33.2189 439.015 32.1007 439.015 30.7213C439.015 29.3419 437.897 28.2237 436.517 28.2237C435.138 28.2237 434.02 29.3419 434.02 30.7213C434.02 32.1007 435.138 33.2189 436.517 33.2189Z" fill="#16CA4D"/>
</g>
<g style="mix-blend-mode:overlay">
<path d="M457.423 33.2189C458.802 33.2189 459.921 32.1007 459.921 30.7213C459.921 29.3419 458.802 28.2237 457.423 28.2237C456.043 28.2237 454.925 29.3419 454.925 30.7213C454.925 32.1007 456.043 33.2189 457.423 33.2189Z" fill="#16CA4D"/>
</g>
<g style="mix-blend-mode:overlay">
<path d="M478.328 33.2189C479.708 33.2189 480.826 32.1007 480.826 30.7213C480.826 29.3419 479.708 28.2237 478.328 28.2237C476.949 28.2237 475.831 29.3419 475.831 30.7213C475.831 32.1007 476.949 33.2189 478.328 33.2189Z" fill="#16CA4D"/>
</g>
<g style="mix-blend-mode:overlay">
<path d="M499.233 33.2189C500.613 33.2189 501.731 32.1007 501.731 30.7213C501.731 29.3419 500.613 28.2237 499.233 28.2237C497.854 28.2237 496.736 29.3419 496.736 30.7213C496.736 32.1007 497.854 33.2189 499.233 33.2189Z" fill="#16CA4D"/>
</g>
<g style="mix-blend-mode:overlay">
<path d="M520.139 33.2189C521.519 33.2189 522.637 32.1007 522.637 30.7213C522.637 29.3419 521.519 28.2237 520.139 28.2237C518.76 28.2237 517.642 29.3419 517.642 30.7213C517.642 32.1007 518.76 33.2189 520.139 33.2189Z" fill="#16CA4D"/>
</g>
<g style="mix-blend-mode:overlay">
<path d="M436.517 46.7243C437.897 46.7243 439.015 45.6061 439.015 44.2267C439.015 42.8473 437.897 41.7291 436.517 41.7291C435.138 41.7291 434.02 42.8473 434.02 44.2267C434.02 45.6061 435.138 46.7243 436.517 46.7243Z" fill="#16CA4D"/>
</g>
<g style="mix-blend-mode:overlay">
<path d="M457.423 46.7243C458.802 46.7243 459.921 45.6061 459.921 44.2267C459.921 42.8473 458.802 41.7291 457.423 41.7291C456.043 41.7291 454.925 42.8473 454.925 44.2267C454.925 45.6061 456.043 46.7243 457.423 46.7243Z" fill="#16CA4D"/>
</g>
<g style="mix-blend-mode:overlay">
<path d="M478.328 46.7243C479.708 46.7243 480.826 45.6061 480.826 44.2267C480.826 42.8473 479.708 41.7291 478.328 41.7291C476.949 41.7291 475.831 42.8473 475.831 44.2267C475.831 45.6061 476.949 46.7243 478.328 46.7243Z" fill="#16CA4D"/>
</g>
<g style="mix-blend-mode:overlay">
<path d="M499.233 46.7243C500.613 46.7243 501.731 45.6061 501.731 44.2267C501.731 42.8473 500.613 41.7291 499.233 41.7291C497.854 41.7291 496.736 42.8473 496.736 44.2267C496.736 45.6061 497.854 46.7243 499.233 46.7243Z" fill="#16CA4D"/>
</g>
<g style="mix-blend-mode:overlay">
<path d="M520.139 46.7243C521.519 46.7243 522.637 45.6061 522.637 44.2267C522.637 42.8473 521.519 41.7291 520.139 41.7291C518.76 41.7291 517.642 42.8473 517.642 44.2267C517.642 45.6061 518.76 46.7243 520.139 46.7243Z" fill="#16CA4D"/>
</g>
<g style="mix-blend-mode:overlay">
<path d="M439.015 57.7321C439.015 58.2261 438.868 58.709 438.594 59.1197C438.319 59.5304 437.929 59.8505 437.473 60.0396C437.017 60.2286 436.514 60.2781 436.03 60.1817C435.545 60.0853 435.1 59.8474 434.751 59.4981C434.402 59.1488 434.164 58.7038 434.068 58.2193C433.971 57.7348 434.021 57.2326 434.21 56.7762C434.399 56.3198 434.719 55.9298 435.13 55.6553C435.54 55.3809 436.023 55.2344 436.517 55.2345C437.18 55.2345 437.815 55.4976 438.283 55.966C438.752 56.4344 439.015 57.0697 439.015 57.7321Z" fill="#16CA4D"/>
</g>
<g style="mix-blend-mode:overlay">
<path d="M459.921 57.7321C459.921 58.2261 459.774 58.7089 459.5 59.1197C459.225 59.5304 458.835 59.8505 458.379 60.0396C457.922 60.2286 457.42 60.2781 456.936 60.1817C456.451 60.0853 456.006 59.8475 455.657 59.4982C455.308 59.1489 455.07 58.7038 454.973 58.2193C454.877 57.7349 454.926 57.2327 455.115 56.7763C455.304 56.3199 455.625 55.9298 456.035 55.6554C456.446 55.3809 456.929 55.2345 457.423 55.2345C458.085 55.2345 458.721 55.4976 459.189 55.966C459.657 56.4344 459.92 57.0697 459.921 57.7321Z" fill="#16CA4D"/>
</g>
<g style="mix-blend-mode:overlay">
<path d="M480.826 57.7321C480.826 58.2261 480.679 58.7089 480.405 59.1197C480.13 59.5304 479.74 59.8505 479.284 60.0396C478.828 60.2286 478.325 60.2781 477.841 60.1817C477.356 60.0853 476.911 59.8475 476.562 59.4982C476.213 59.1489 475.975 58.7038 475.879 58.2193C475.782 57.7349 475.832 57.2327 476.021 56.7763C476.21 56.3199 476.53 55.9298 476.941 55.6554C477.351 55.3809 477.834 55.2345 478.328 55.2345C478.991 55.2345 479.626 55.4976 480.094 55.966C480.563 56.4344 480.826 57.0697 480.826 57.7321Z" fill="#16CA4D"/>
</g>
<g style="mix-blend-mode:overlay">
<path d="M501.731 57.7321C501.731 58.2261 501.585 58.709 501.31 59.1197C501.036 59.5304 500.646 59.8505 500.189 60.0396C499.733 60.2286 499.231 60.2781 498.746 60.1817C498.262 60.0853 497.817 59.8474 497.467 59.4981C497.118 59.1488 496.88 58.7038 496.784 58.2193C496.687 57.7348 496.737 57.2326 496.926 56.7762C497.115 56.3198 497.435 55.9298 497.846 55.6553C498.257 55.3809 498.74 55.2344 499.234 55.2345C499.896 55.2345 500.531 55.4976 501 55.966C501.468 56.4344 501.731 57.0697 501.731 57.7321Z" fill="#16CA4D"/>
</g>
<g style="mix-blend-mode:overlay">
<path d="M522.637 57.7321C522.637 58.2261 522.49 58.7089 522.216 59.1197C521.941 59.5304 521.551 59.8505 521.095 60.0396C520.639 60.2286 520.136 60.2781 519.652 60.1817C519.167 60.0853 518.722 59.8475 518.373 59.4982C518.024 59.1489 517.786 58.7038 517.69 58.2193C517.593 57.7349 517.643 57.2327 517.832 56.7763C518.021 56.3199 518.341 55.9298 518.752 55.6554C519.162 55.3809 519.645 55.2345 520.139 55.2345C520.802 55.2345 521.437 55.4976 521.905 55.966C522.374 56.4344 522.637 57.0697 522.637 57.7321Z" fill="#16CA4D"/>
</g>
<g style="mix-blend-mode:overlay">
<path d="M436.517 73.735C437.897 73.735 439.015 72.6168 439.015 71.2374C439.015 69.858 437.897 68.7398 436.517 68.7398C435.138 68.7398 434.02 69.858 434.02 71.2374C434.02 72.6168 435.138 73.735 436.517 73.735Z" fill="#16CA4D"/>
</g>
<g style="mix-blend-mode:overlay">
<path d="M457.423 73.735C458.802 73.735 459.921 72.6168 459.921 71.2374C459.921 69.858 458.802 68.7398 457.423 68.7398C456.043 68.7398 454.925 69.858 454.925 71.2374C454.925 72.6168 456.043 73.735 457.423 73.735Z" fill="#16CA4D"/>
</g>
<g style="mix-blend-mode:overlay">
<path d="M478.328 73.735C479.708 73.735 480.826 72.6168 480.826 71.2374C480.826 69.858 479.708 68.7398 478.328 68.7398C476.949 68.7398 475.831 69.858 475.831 71.2374C475.831 72.6168 476.949 73.735 478.328 73.735Z" fill="#16CA4D"/>
</g>
<g style="mix-blend-mode:overlay">
<path d="M499.233 73.735C500.613 73.735 501.731 72.6168 501.731 71.2374C501.731 69.858 500.613 68.7398 499.233 68.7398C497.854 68.7398 496.736 69.858 496.736 71.2374C496.736 72.6168 497.854 73.735 499.233 73.735Z" fill="#16CA4D"/>
</g>
<g style="mix-blend-mode:overlay">
<path d="M520.139 73.735C521.519 73.735 522.637 72.6168 522.637 71.2374C522.637 69.858 521.519 68.7398 520.139 68.7398C518.76 68.7398 517.642 69.858 517.642 71.2374C517.642 72.6168 518.76 73.735 520.139 73.735Z" fill="#16CA4D"/>
</g>
<g style="mix-blend-mode:overlay">
<path d="M436.517 87.2403C437.897 87.2403 439.015 86.1221 439.015 84.7427C439.015 83.3633 437.897 82.2451 436.517 82.2451C435.138 82.2451 434.02 83.3633 434.02 84.7427C434.02 86.1221 435.138 87.2403 436.517 87.2403Z" fill="#16CA4D"/>
</g>
<g style="mix-blend-mode:overlay">
<path d="M457.423 87.2403C458.802 87.2403 459.921 86.1221 459.921 84.7427C459.921 83.3633 458.802 82.2451 457.423 82.2451C456.043 82.2451 454.925 83.3633 454.925 84.7427C454.925 86.1221 456.043 87.2403 457.423 87.2403Z" fill="#16CA4D"/>
</g>
<g style="mix-blend-mode:overlay">
<path d="M478.328 87.2403C479.708 87.2403 480.826 86.1221 480.826 84.7427C480.826 83.3633 479.708 82.2451 478.328 82.2451C476.949 82.2451 475.831 83.3633 475.831 84.7427C475.831 86.1221 476.949 87.2403 478.328 87.2403Z" fill="#16CA4D"/>
</g>
<g style="mix-blend-mode:overlay">
<path d="M499.233 87.2403C500.613 87.2403 501.731 86.1221 501.731 84.7427C501.731 83.3633 500.613 82.2451 499.233 82.2451C497.854 82.2451 496.736 83.3633 496.736 84.7427C496.736 86.1221 497.854 87.2403 499.233 87.2403Z" fill="#16CA4D"/>
</g>
<g style="mix-blend-mode:overlay">
<path d="M520.139 87.2403C521.519 87.2403 522.637 86.1221 522.637 84.7427C522.637 83.3633 521.519 82.2451 520.139 82.2451C518.76 82.2451 517.642 83.3633 517.642 84.7427C517.642 86.1221 518.76 87.2403 520.139 87.2403Z" fill="#16CA4D"/>
</g>
<g style="mix-blend-mode:overlay">
<path d="M436.517 100.746C437.897 100.746 439.015 99.6273 439.015 98.2479C439.015 96.8685 437.897 95.7503 436.517 95.7503C435.138 95.7503 434.02 96.8685 434.02 98.2479C434.02 99.6273 435.138 100.746 436.517 100.746Z" fill="#16CA4D"/>
</g>
<g style="mix-blend-mode:overlay">
<path d="M457.423 100.746C458.802 100.746 459.921 99.6273 459.921 98.2479C459.921 96.8685 458.802 95.7503 457.423 95.7503C456.043 95.7503 454.925 96.8685 454.925 98.2479C454.925 99.6273 456.043 100.746 457.423 100.746Z" fill="#16CA4D"/>
</g>
<g style="mix-blend-mode:overlay">
<path d="M478.328 100.746C479.708 100.746 480.826 99.6273 480.826 98.2479C480.826 96.8685 479.708 95.7503 478.328 95.7503C476.949 95.7503 475.831 96.8685 475.831 98.2479C475.831 99.6273 476.949 100.746 478.328 100.746Z" fill="#16CA4D"/>
</g>
<g style="mix-blend-mode:overlay">
<path d="M499.233 100.746C500.613 100.746 501.731 99.6273 501.731 98.2479C501.731 96.8685 500.613 95.7503 499.233 95.7503C497.854 95.7503 496.736 96.8685 496.736 98.2479C496.736 99.6273 497.854 100.746 499.233 100.746Z" fill="#16CA4D"/>
</g>
<g style="mix-blend-mode:overlay">
<path d="M520.139 100.746C521.519 100.746 522.637 99.6273 522.637 98.2479C522.637 96.8685 521.519 95.7503 520.139 95.7503C518.76 95.7503 517.642 96.8685 517.642 98.2479C517.642 99.6273 518.76 100.746 520.139 100.746Z" fill="#16CA4D"/>
</g>
</g>
<g style="mix-blend-mode:overlay" opacity="0.25">
<g style="mix-blend-mode:overlay">
<path d="M263.382 319.968C264.762 319.968 265.88 318.85 265.88 317.47C265.88 316.091 264.762 314.973 263.382 314.973C262.003 314.973 260.885 316.091 260.885 317.47C260.885 318.85 262.003 319.968 263.382 319.968Z" fill="#16CA4D"/>
</g>
<g style="mix-blend-mode:overlay">
<path d="M284.288 319.968C285.668 319.968 286.786 318.85 286.786 317.47C286.786 316.091 285.668 314.973 284.288 314.973C282.909 314.973 281.791 316.091 281.791 317.47C281.791 318.85 282.909 319.968 284.288 319.968Z" fill="#16CA4D"/>
</g>
<g style="mix-blend-mode:overlay">
<path d="M305.193 319.968C306.573 319.968 307.691 318.85 307.691 317.47C307.691 316.091 306.573 314.973 305.193 314.973C303.814 314.973 302.696 316.091 302.696 317.47C302.696 318.85 303.814 319.968 305.193 319.968Z" fill="#16CA4D"/>
</g>
<g style="mix-blend-mode:overlay">
<path d="M328.597 317.47C328.597 317.964 328.45 318.447 328.176 318.858C327.902 319.269 327.512 319.589 327.055 319.778C326.599 319.967 326.097 320.017 325.612 319.92C325.128 319.824 324.682 319.586 324.333 319.237C323.984 318.888 323.746 318.442 323.65 317.958C323.553 317.473 323.603 316.971 323.792 316.515C323.981 316.058 324.301 315.668 324.712 315.394C325.122 315.119 325.605 314.973 326.099 314.973C326.762 314.973 327.397 315.236 327.865 315.704C328.334 316.173 328.597 316.808 328.597 317.47Z" fill="#16CA4D"/>
</g>
<g style="mix-blend-mode:overlay">
<path d="M347.004 319.968C348.384 319.968 349.502 318.85 349.502 317.47C349.502 316.091 348.384 314.973 347.004 314.973C345.625 314.973 344.507 316.091 344.507 317.47C344.507 318.85 345.625 319.968 347.004 319.968Z" fill="#16CA4D"/>
</g>
<g style="mix-blend-mode:overlay">
<path d="M263.382 333.473C264.762 333.473 265.88 332.355 265.88 330.976C265.88 329.596 264.762 328.478 263.382 328.478C262.003 328.478 260.885 329.596 260.885 330.976C260.885 332.355 262.003 333.473 263.382 333.473Z" fill="#16CA4D"/>
</g>
<g style="mix-blend-mode:overlay">
<path d="M284.288 333.473C285.668 333.473 286.786 332.355 286.786 330.976C286.786 329.596 285.668 328.478 284.288 328.478C282.909 328.478 281.791 329.596 281.791 330.976C281.791 332.355 282.909 333.473 284.288 333.473Z" fill="#16CA4D"/>
</g>
<g style="mix-blend-mode:overlay">
<path d="M305.193 333.473C306.573 333.473 307.691 332.355 307.691 330.976C307.691 329.596 306.573 328.478 305.193 328.478C303.814 328.478 302.696 329.596 302.696 330.976C302.696 332.355 303.814 333.473 305.193 333.473Z" fill="#16CA4D"/>
</g>
<g style="mix-blend-mode:overlay">
<path d="M328.597 330.976C328.597 331.47 328.45 331.952 328.176 332.363C327.902 332.774 327.511 333.094 327.055 333.283C326.599 333.472 326.096 333.522 325.612 333.425C325.128 333.329 324.682 333.091 324.333 332.742C323.984 332.393 323.746 331.947 323.65 331.463C323.553 330.978 323.603 330.476 323.792 330.02C323.981 329.564 324.301 329.173 324.712 328.899C325.122 328.625 325.605 328.478 326.099 328.478C326.762 328.478 327.397 328.741 327.865 329.21C328.334 329.678 328.597 330.313 328.597 330.976Z" fill="#16CA4D"/>
</g>
<g style="mix-blend-mode:overlay">
<path d="M347.004 333.473C348.384 333.473 349.502 332.355 349.502 330.976C349.502 329.596 348.384 328.478 347.004 328.478C345.625 328.478 344.507 329.596 344.507 330.976C344.507 332.355 345.625 333.473 347.004 333.473Z" fill="#16CA4D"/>
</g>
<g style="mix-blend-mode:overlay">
<path d="M263.382 346.979C264.762 346.979 265.88 345.86 265.88 344.481C265.88 343.101 264.762 341.983 263.382 341.983C262.003 341.983 260.885 343.101 260.885 344.481C260.885 345.86 262.003 346.979 263.382 346.979Z" fill="#16CA4D"/>
</g>
<g style="mix-blend-mode:overlay">
<path d="M284.288 346.979C285.668 346.979 286.786 345.86 286.786 344.481C286.786 343.101 285.668 341.983 284.288 341.983C282.909 341.983 281.791 343.101 281.791 344.481C281.791 345.86 282.909 346.979 284.288 346.979Z" fill="#16CA4D"/>
</g>
<g style="mix-blend-mode:overlay">
<path d="M305.193 346.979C306.573 346.979 307.691 345.86 307.691 344.481C307.691 343.101 306.573 341.983 305.193 341.983C303.814 341.983 302.696 343.101 302.696 344.481C302.696 345.86 303.814 346.979 305.193 346.979Z" fill="#16CA4D"/>
</g>
<g style="mix-blend-mode:overlay">
<path d="M328.597 344.481C328.597 344.975 328.45 345.458 328.176 345.868C327.901 346.279 327.511 346.599 327.055 346.788C326.599 346.977 326.096 347.027 325.612 346.931C325.127 346.834 324.682 346.596 324.333 346.247C323.984 345.898 323.746 345.453 323.65 344.968C323.553 344.484 323.603 343.981 323.792 343.525C323.981 343.069 324.301 342.679 324.712 342.404C325.122 342.13 325.605 341.983 326.099 341.983C326.427 341.983 326.752 342.048 327.055 342.173C327.358 342.299 327.633 342.483 327.865 342.715C328.097 342.947 328.281 343.222 328.407 343.525C328.532 343.828 328.597 344.153 328.597 344.481Z" fill="#16CA4D"/>
</g>
<g style="mix-blend-mode:overlay">
<path d="M347.004 346.979C348.384 346.979 349.502 345.86 349.502 344.481C349.502 343.101 348.384 341.983 347.004 341.983C345.625 341.983 344.507 343.101 344.507 344.481C344.507 345.86 345.625 346.979 347.004 346.979Z" fill="#16CA4D"/>
</g>
<g style="mix-blend-mode:overlay">
<path d="M263.382 360.484C264.762 360.484 265.88 359.366 265.88 357.986C265.88 356.607 264.762 355.489 263.382 355.489C262.003 355.489 260.885 356.607 260.885 357.986C260.885 359.366 262.003 360.484 263.382 360.484Z" fill="#16CA4D"/>
</g>
<g style="mix-blend-mode:overlay">
<path d="M284.288 360.484C285.668 360.484 286.786 359.366 286.786 357.986C286.786 356.607 285.668 355.489 284.288 355.489C282.909 355.489 281.791 356.607 281.791 357.986C281.791 359.366 282.909 360.484 284.288 360.484Z" fill="#16CA4D"/>
</g>
<g style="mix-blend-mode:overlay">
<path d="M305.193 360.484C306.573 360.484 307.691 359.366 307.691 357.986C307.691 356.607 306.573 355.489 305.193 355.489C303.814 355.489 302.696 356.607 302.696 357.986C302.696 359.366 303.814 360.484 305.193 360.484Z" fill="#16CA4D"/>
</g>
<g style="mix-blend-mode:overlay">
<path d="M328.597 357.986C328.597 358.48 328.45 358.963 328.176 359.374C327.902 359.785 327.511 360.105 327.055 360.294C326.599 360.483 326.097 360.533 325.612 360.436C325.128 360.34 324.682 360.102 324.333 359.753C323.984 359.403 323.746 358.958 323.65 358.474C323.553 357.989 323.603 357.487 323.792 357.031C323.981 356.574 324.301 356.184 324.712 355.91C325.122 355.635 325.605 355.489 326.099 355.489C326.762 355.489 327.397 355.752 327.865 356.22C328.334 356.689 328.597 357.324 328.597 357.986Z" fill="#16CA4D"/>
</g>
<g style="mix-blend-mode:overlay">
<path d="M347.004 360.484C348.384 360.484 349.502 359.366 349.502 357.986C349.502 356.607 348.384 355.489 347.004 355.489C345.625 355.489 344.507 356.607 344.507 357.986C344.507 359.366 345.625 360.484 347.004 360.484Z" fill="#16CA4D"/>
</g>
<g style="mix-blend-mode:overlay">
<path d="M263.382 373.989C264.762 373.989 265.88 372.871 265.88 371.492C265.88 370.112 264.762 368.994 263.382 368.994C262.003 368.994 260.885 370.112 260.885 371.492C260.885 372.871 262.003 373.989 263.382 373.989Z" fill="#16CA4D"/>
</g>
<g style="mix-blend-mode:overlay">
<path d="M284.288 373.989C285.668 373.989 286.786 372.871 286.786 371.492C286.786 370.112 285.668 368.994 284.288 368.994C282.909 368.994 281.791 370.112 281.791 371.492C281.791 372.871 282.909 373.989 284.288 373.989Z" fill="#16CA4D"/>
</g>
<g style="mix-blend-mode:overlay">
<path d="M305.193 373.989C306.573 373.989 307.691 372.871 307.691 371.492C307.691 370.112 306.573 368.994 305.193 368.994C303.814 368.994 302.696 370.112 302.696 371.492C302.696 372.871 303.814 373.989 305.193 373.989Z" fill="#16CA4D"/>
</g>
<g style="mix-blend-mode:overlay">
<path d="M328.597 371.492C328.597 371.986 328.45 372.468 328.176 372.879C327.902 373.29 327.511 373.61 327.055 373.799C326.599 373.988 326.096 374.038 325.612 373.941C325.128 373.845 324.682 373.607 324.333 373.258C323.984 372.908 323.746 372.463 323.65 371.979C323.553 371.494 323.603 370.992 323.792 370.536C323.981 370.079 324.301 369.689 324.712 369.415C325.122 369.141 325.605 368.994 326.099 368.994C326.762 368.994 327.397 369.257 327.865 369.725C328.334 370.194 328.597 370.829 328.597 371.492Z" fill="#16CA4D"/>
</g>
<g style="mix-blend-mode:overlay">
<path d="M347.004 373.989C348.384 373.989 349.502 372.871 349.502 371.492C349.502 370.112 348.384 368.994 347.004 368.994C345.625 368.994 344.507 370.112 344.507 371.492C344.507 372.871 345.625 373.989 347.004 373.989Z" fill="#16CA4D"/>
</g>
<g style="mix-blend-mode:overlay">
<path d="M263.382 387.495C264.762 387.495 265.88 386.376 265.88 384.997C265.88 383.618 264.762 382.499 263.382 382.499C262.003 382.499 260.885 383.618 260.885 384.997C260.885 386.376 262.003 387.495 263.382 387.495Z" fill="#16CA4D"/>
</g>
<g style="mix-blend-mode:overlay">
<path d="M284.288 387.495C285.668 387.495 286.786 386.376 286.786 384.997C286.786 383.618 285.668 382.499 284.288 382.499C282.909 382.499 281.791 383.618 281.791 384.997C281.791 386.376 282.909 387.495 284.288 387.495Z" fill="#16CA4D"/>
</g>
<g style="mix-blend-mode:overlay">
<path d="M305.193 387.495C306.573 387.495 307.691 386.376 307.691 384.997C307.691 383.618 306.573 382.499 305.193 382.499C303.814 382.499 302.696 383.618 302.696 384.997C302.696 386.376 303.814 387.495 305.193 387.495Z" fill="#16CA4D"/>
</g>
<g style="mix-blend-mode:overlay">
<path d="M328.597 384.997C328.597 385.491 328.45 385.974 328.176 386.385C327.901 386.795 327.511 387.115 327.055 387.304C326.599 387.493 326.096 387.543 325.612 387.447C325.127 387.35 324.682 387.112 324.333 386.763C323.984 386.414 323.746 385.969 323.65 385.484C323.553 385 323.603 384.498 323.792 384.041C323.981 383.585 324.301 383.195 324.712 382.92C325.122 382.646 325.605 382.499 326.099 382.499C326.427 382.499 326.752 382.564 327.055 382.689C327.358 382.815 327.633 382.999 327.865 383.231C328.097 383.463 328.281 383.738 328.407 384.041C328.532 384.344 328.597 384.669 328.597 384.997Z" fill="#16CA4D"/>
</g>
<g style="mix-blend-mode:overlay">
<path d="M347.004 387.495C348.384 387.495 349.502 386.376 349.502 384.997C349.502 383.618 348.384 382.499 347.004 382.499C345.625 382.499 344.507 383.618 344.507 384.997C344.507 386.376 345.625 387.495 347.004 387.495Z" fill="#16CA4D"/>
</g>
<g style="mix-blend-mode:overlay">
<path d="M263.382 401C264.762 401 265.88 399.882 265.88 398.502C265.88 397.123 264.762 396.005 263.382 396.005C262.003 396.005 260.885 397.123 260.885 398.502C260.885 399.882 262.003 401 263.382 401Z" fill="#16CA4D"/>
</g>
<g style="mix-blend-mode:overlay">
<path d="M284.288 401C285.668 401 286.786 399.882 286.786 398.502C286.786 397.123 285.668 396.005 284.288 396.005C282.909 396.005 281.791 397.123 281.791 398.502C281.791 399.882 282.909 401 284.288 401Z" fill="#16CA4D"/>
</g>
<g style="mix-blend-mode:overlay">
<path d="M305.193 401C306.573 401 307.691 399.882 307.691 398.502C307.691 397.123 306.573 396.005 305.193 396.005C303.814 396.005 302.696 397.123 302.696 398.502C302.696 399.882 303.814 401 305.193 401Z" fill="#16CA4D"/>
</g>
<g style="mix-blend-mode:overlay">
<path d="M328.597 398.502C328.597 398.996 328.45 399.479 328.176 399.89C327.902 400.301 327.511 400.621 327.055 400.81C326.599 400.999 326.097 401.048 325.612 400.952C325.128 400.856 324.682 400.618 324.333 400.269C323.984 399.919 323.746 399.474 323.65 398.99C323.553 398.505 323.603 398.003 323.792 397.547C323.981 397.09 324.301 396.7 324.712 396.426C325.122 396.151 325.605 396.005 326.099 396.005C326.762 396.005 327.397 396.268 327.865 396.736C328.334 397.205 328.597 397.84 328.597 398.502Z" fill="#16CA4D"/>
</g>
<g style="mix-blend-mode:overlay">
<path d="M347.004 401C348.384 401 349.502 399.882 349.502 398.502C349.502 397.123 348.384 396.005 347.004 396.005C345.625 396.005 344.507 397.123 344.507 398.502C344.507 399.882 345.625 401 347.004 401Z" fill="#16CA4D"/>
</g>
</g>
<path d="M79.3706 265.281C79.3706 265.281 81.3184 277.512 86.7261 273.423C93.5252 268.27 79.3706 265.281 79.3706 265.281ZM103.603 245.041C104.474 251.756 114.551 244.582 114.551 244.582C114.551 244.582 102.502 236.585 103.603 245.042V245.041ZM106.7 231.504C115.059 229.822 103.615 220.979 103.615 220.979C103.615 220.979 100.627 230.972 105.272 231.576C104.685 234.854 103.917 238.097 102.974 241.291C101.377 238.448 92.8356 239.041 92.8356 239.041C92.8356 239.041 97.6747 249.433 101.667 245.392C100.349 249.193 98.8184 252.917 97.0819 256.547C97.2029 252.518 86.6777 253.244 86.6777 253.244C86.6777 253.244 91.6016 263.805 95.6181 259.486C90.7762 268.749 84.8906 277.427 78.0761 285.352C79.1287 281.71 69.3899 278.867 69.3899 278.867C69.3899 278.867 70.4061 291.207 76.1042 287.541C76.1647 287.493 76.2252 287.457 76.2856 287.408C74.846 289.054 73.4063 290.614 72.0151 292.078C70.4182 293.76 68.8454 295.344 67.2848 296.869C68.1438 294.546 64.2966 291.727 61.8166 290.203C60.7036 289.501 59.8688 289.078 59.8688 289.078C59.7551 290.284 59.7268 291.497 59.7841 292.707C59.9293 296.107 60.8608 300.462 64.841 298.853C65.0801 298.76 65.3142 298.655 65.5427 298.538C60.1713 303.619 55.2111 307.684 51.3882 310.636C51.5245 310.943 51.6779 311.242 51.8479 311.531C56.8613 307.674 61.6745 303.564 66.2686 299.216C66.1703 299.397 66.0814 299.582 66.0024 299.772C63.2804 305.979 75.6324 305.023 75.6324 305.023C75.6324 305.023 71.5796 296.494 68.2164 297.341C69.7044 295.889 71.2126 294.365 72.741 292.768C74.3379 291.086 75.9832 289.283 77.6527 287.36C77.568 287.626 77.4833 287.904 77.4108 288.219C75.8985 294.824 87.8512 291.582 87.8512 291.582C87.8512 291.582 82.5887 284.384 79.4069 285.315C82.3104 281.855 85.2623 278.057 88.0932 273.943C88.088 273.963 88.0839 273.983 88.0811 274.004C87.077 280.706 98.7514 276.556 98.7514 276.556C98.7514 276.556 93.3074 270.193 90.1498 270.87C92.8076 266.785 95.2232 262.548 97.3844 258.18C97.3821 258.536 97.4023 258.891 97.4449 259.244C98.3159 265.959 108.406 258.785 108.406 258.785C108.406 258.785 101.461 254.175 98.5942 255.663C102.19 247.997 104.776 239.896 106.288 231.564C106.422 231.552 106.555 231.528 106.7 231.504V231.504Z" stroke="#16CA4D" stroke-width="0.5" stroke-miterlimit="10"/>
<path d="M55.6026 215.75C55.409 216.174 55.1912 216.609 54.9614 217.045C52.1984 222.299 50.0936 227.874 48.6947 233.643C47.539 238.332 46.6224 243.077 45.9484 247.858C45.4161 251.488 44.9685 255.008 44.5088 258.335C43.6498 264.505 42.7183 269.985 41.0004 274.208C40.6012 269.913 40.3995 265.562 40.3955 261.154C40.3955 260.392 40.4076 259.63 40.4076 258.867C40.4681 255.153 40.6738 251.463 41.0246 247.822C42.0067 237.457 44.1494 227.235 47.4123 217.347C49.1958 211.923 51.3129 206.614 53.7516 201.451C57.2842 203.943 58.6754 209.157 55.6026 215.75Z" fill="#16CA4D"/>
<g style="mix-blend-mode:overlay" opacity="0.25">
<path d="M55.6145 215.751H55.6024C54.4652 215.46 50.9447 216.319 47.4121 217.347" stroke="white" stroke-width="0.5742" stroke-miterlimit="10"/>
</g>
<g style="mix-blend-mode:overlay" opacity="0.25">
<path d="M43.0205 234.091C45.1376 233.51 47.3516 233.159 48.6944 233.643" stroke="white" stroke-width="0.5742" stroke-miterlimit="10"/>
</g>
<g style="mix-blend-mode:overlay" opacity="0.25">
<path d="M41.0244 247.822C42.6111 247.211 44.3707 247.224 45.9483 247.858" stroke="white" stroke-width="0.5742" stroke-miterlimit="10"/>
</g>
<g style="mix-blend-mode:overlay" opacity="0.25">
<path d="M40.4077 258.867C41.8958 258.154 43.4201 257.767 44.5089 258.335" stroke="white" stroke-width="0.5742" stroke-miterlimit="10"/>
</g>
<path d="M79.8226 233.51C80.6574 234.95 72.1767 266.404 66.0431 273.615C59.9095 280.825 54.9009 280.22 55.1792 283.741C55.4695 287.273 63.3695 280.801 63.3695 283.523C63.3695 284.031 63.7566 284.491 64.2768 285.035C63.1759 286.511 62.0548 287.967 60.9136 289.402C60.2361 290.249 59.5707 291.084 58.8811 291.907C55.3123 296.25 51.574 300.387 47.7148 304.295C47.5091 303.859 47.3035 303.424 47.1099 302.988C46.7591 302.238 46.4082 301.464 46.0695 300.702C43.8644 293.201 42.2942 285.528 41.3755 277.764C41.69 276.313 41.9683 274.8 42.1861 273.155C43.7709 261.202 45.1863 267.009 50.7151 266.525C56.2559 266.054 48.7794 260.924 49.3601 253.278C49.9529 245.632 56.4737 235.107 56.8971 225.344C57.3084 215.593 62.0145 217.335 63.1759 218.521C64.3252 219.707 67.2529 219.38 67.2166 214.94C67.1803 210.5 61.4459 211.661 61.9056 207.234C62.3048 203.447 69.8297 187.042 70.7492 174.17C70.9327 172.094 70.8758 170.003 70.5798 167.94C71.9739 168.24 73.2513 168.937 74.2576 169.948C82.0607 177.473 81.9639 202.782 82.2422 215.424C82.5446 229.784 70.483 229.736 70.4225 233.667C70.35 237.575 78.9757 232.071 79.8226 233.51Z" fill="#16CA4D"/>
<g style="mix-blend-mode:overlay" opacity="0.25">
<path d="M70.5798 167.94C71.767 168.707 72.7046 169.805 73.2776 171.097C75.3947 174.981 77.6087 183.328 75.3222 200.749C71.5355 229.53 61.7483 246.346 59.3408 259.98C57.0906 272.647 47.255 294.29 47.1099 302.988" stroke="white" stroke-width="0.5742" stroke-miterlimit="10"/>
</g>
<path d="M470.427 248.726C473.609 254.715 480.529 244.444 480.529 244.444C480.529 244.444 466.435 241.189 470.427 248.726ZM457.325 210.848C457.325 210.848 463.459 221.615 467.076 215.881C471.625 208.67 457.325 210.848 457.325 210.848V210.848ZM478.194 278.173C477.42 276.14 476.657 274.031 475.907 271.845C475.266 269.934 474.625 267.914 474.008 265.809C474.044 265.869 474.081 265.942 474.117 266.002C477.746 271.737 483.868 260.969 483.868 260.969C483.868 260.969 473.827 259.445 473.258 263.183C470.411 253.129 468.722 242.783 468.225 232.346C470.052 237.959 478.968 230.446 478.968 230.446C478.968 230.446 469.725 225.353 468.141 229.055C468.091 225.032 468.269 221.009 468.673 217.006C470.596 222.365 479.367 214.973 479.367 214.973C479.367 214.973 471.855 210.836 469.217 212.735C469.706 209.442 470.377 206.179 471.226 202.96C475.69 204.363 477.19 194.044 477.19 194.044C477.19 194.044 463.084 197.25 469.955 202.295C470.076 202.379 470.197 202.452 470.306 202.524C468.172 210.716 467.106 219.15 467.136 227.615C465.164 225.063 456.926 226.321 456.926 226.321C456.926 226.321 463.059 237.076 466.677 231.354C466.86 231.053 467.026 230.742 467.173 230.422C467.295 235.294 467.707 240.153 468.407 244.976C465.818 243.028 458.208 246.512 458.208 246.512C458.208 246.512 467.04 255.187 468.951 248.678C468.963 248.666 468.963 248.642 468.975 248.617C469.81 253.541 470.875 258.235 472.06 262.603C469.568 260.413 461.765 264.732 461.765 264.732C461.765 264.732 471.238 272.704 472.641 266.075C472.71 265.784 472.758 265.489 472.786 265.192C473.488 267.635 474.226 269.97 474.976 272.172C475.678 274.253 476.399 276.269 477.141 278.221C474.456 276.031 467.185 282.068 467.185 282.068C467.185 282.068 477.988 288.129 478.133 281.354C478.133 281.137 478.133 280.931 478.121 280.737C479.029 283.024 479.948 285.201 480.843 287.234C481.097 286.98 481.339 286.726 481.581 286.472C480.759 284.572 479.912 282.552 479.065 280.435C479.222 280.616 479.379 280.81 479.573 281.016C484.194 285.964 488.199 274.241 488.199 274.241C488.199 274.241 478.472 274.604 478.194 278.173V278.173Z" stroke="#16CA4D" stroke-width="0.5" stroke-miterlimit="10"/>
<path d="M472.726 295.73C470.935 297.351 469.113 298.923 467.258 300.448C466.786 300.835 466.314 301.222 465.842 301.597C465.395 301.972 464.947 302.323 464.499 302.686C463.072 303.823 461.62 304.924 460.144 306.013C459.079 305.287 458.003 304.537 456.926 303.775C452.14 300.541 447.603 296.954 443.352 293.044H443.34C438.682 288.58 435.017 283.668 433.626 278.127C433.529 277.776 433.456 277.425 433.384 277.075C431.436 267.203 434.98 260.5 439.82 258.48C444.247 256.629 449.764 258.722 453.079 265.944C453.285 266.368 453.466 266.816 453.648 267.275C455.857 272.786 458.738 278.004 462.225 282.809C465.05 286.721 468.07 290.488 471.274 294.096H471.286C471.77 294.653 472.254 295.197 472.726 295.73Z" fill="#16CA4D"/>
<g style="mix-blend-mode:overlay" opacity="0.25">
<path d="M439.82 258.48C438.432 265.21 439.541 272.216 442.941 278.188C443.682 279.423 444.532 280.589 445.482 281.672C449.044 285.652 452.808 289.447 456.757 293.044H456.769C459.685 295.79 462.794 298.669 465.842 301.597" stroke="white" stroke-width="0.5742" stroke-miterlimit="10"/>
</g>
<g style="mix-blend-mode:overlay" opacity="0.25">
<path d="M433.616 278.129L445.484 281.674C445.484 281.674 450.964 267.408 453.074 265.941" stroke="white" stroke-width="0.5742" stroke-miterlimit="10"/>
</g>
<g style="mix-blend-mode:overlay" opacity="0.25">
<path d="M443.345 293.044C443.345 293.044 453.119 292.957 456.768 293.044C456.768 293.044 459.274 284.492 462.224 282.806" stroke="white" stroke-width="0.5742" stroke-miterlimit="10"/>
</g>
<g style="mix-blend-mode:overlay" opacity="0.25">
<path d="M456.926 303.775C459.427 303.266 461.956 302.903 464.499 302.686" stroke="white" stroke-width="0.5742" stroke-miterlimit="10"/>
</g>
<g style="mix-blend-mode:overlay" opacity="0.25">
<path d="M471.286 294.096H471.274C468.77 295.246 467.705 298.319 467.257 300.448" stroke="white" stroke-width="0.5742" stroke-miterlimit="10"/>
</g>
<path d="M514.524 236.885C510.483 245.451 505.487 246.152 506.673 249.492C507.011 250.435 507.737 250.447 508.62 250.012C506.939 253.145 505.164 256.214 503.297 259.218C500.454 263.791 497.41 268.207 494.163 272.465C490.812 257.658 492.627 252.177 491.369 242.656C489.784 230.703 492.663 235.942 497.877 234.03C503.104 232.131 494.538 229.131 493.123 221.594C491.695 214.057 495.252 202.201 493.123 192.668C490.982 183.135 495.966 183.594 497.406 184.441C498.821 185.276 501.555 184.211 500.37 179.929C499.184 175.646 493.946 178.259 493.232 173.868C492.53 169.464 496.764 145.8 491.369 133.666C503.104 132.952 510.955 162.689 514.996 176.481C519.049 190.272 507.386 193.369 508.342 197.168C509.286 200.967 516.182 193.406 517.379 194.579C518.565 195.741 518.565 228.32 514.524 236.885Z" fill="#16CA4D"/>
<g style="mix-blend-mode:overlay" opacity="0.25">
<path d="M491.369 133.666C491.369 133.666 500.66 135.336 504.495 164.117C508.342 192.886 503.273 211.674 504.495 225.465C505.293 234.43 503.636 248.621 503.297 259.218" stroke="white" stroke-width="0.5742" stroke-miterlimit="10"/>
</g>
<path d="M294.234 167.157H294.227C290.914 167.288 288.088 166.414 287.003 162.12C286.793 159.039 286.905 155.246 288.784 155.295C291.936 155.378 294.234 167.157 294.234 167.157Z" fill="white" stroke="black" stroke-width="0.75" stroke-miterlimit="10"/>
<path d="M294.227 167.157H294.234C295.666 169.374 296.629 171.861 297.063 174.464C291.824 172.459 285.124 173.632 281.722 174.995C279.41 169.895 273.94 166.8 269.196 165.249C264.132 163.594 262.057 161.191 262.057 158.033C262.057 154.882 270.691 160.024 276.252 161.023C278.83 161.484 283.015 161.016 287.004 162.12C287.975 162.379 288.916 162.742 289.809 163.202" fill="white"/>
<path d="M294.227 167.157H294.234C295.666 169.374 296.629 171.861 297.063 174.464C291.824 172.459 285.124 173.632 281.722 174.995C279.41 169.895 273.94 166.8 269.196 165.249C264.132 163.594 262.057 161.191 262.057 158.033C262.057 154.882 270.691 160.024 276.252 161.023C278.83 161.484 283.015 161.016 287.004 162.12C287.975 162.379 288.916 162.742 289.809 163.202" stroke="black" stroke-width="0.75" stroke-miterlimit="10"/>
<path d="M389.976 336.439C379.948 338.256 369.777 339.167 359.586 339.161C358.34 339.161 357.106 339.149 355.86 339.125C355.85 339.037 355.846 338.948 355.848 338.859C355.8 337.927 355.751 336.996 355.691 336.052C355.63 335.048 355.57 334.032 355.509 333.015L355.255 329.205C355.146 327.547 355.038 325.902 354.904 324.257C354.868 323.7 354.82 323.131 354.783 322.575C354.614 320.325 354.445 318.087 354.251 315.861C354.154 314.723 354.07 313.586 353.973 312.461C353.888 311.384 353.791 310.308 353.695 309.243C353.55 307.61 353.404 306.001 353.259 304.404L353.114 302.807L352.969 301.174C352.884 300.254 352.799 299.359 352.715 298.464C352.703 298.355 352.691 298.246 352.678 298.125C352.606 297.339 352.533 296.564 352.461 295.802C352.352 294.568 352.231 293.359 352.11 292.173C351.856 289.536 351.614 287.023 351.384 284.636C351.311 283.934 351.251 283.233 351.178 282.555C351.094 281.696 351.009 280.861 350.936 280.051C350.827 278.829 350.707 277.668 350.598 276.555C350.501 275.442 350.392 274.365 350.307 273.349C350.259 272.84 350.21 272.332 350.174 271.848C350.09 270.953 350.017 270.094 349.956 269.308C349.932 269.066 349.92 268.824 349.896 268.594C349.896 268.509 349.884 268.425 349.884 268.34C349.872 268.195 349.86 268.05 349.848 267.917C349.835 267.687 349.811 267.469 349.799 267.263C349.751 266.55 349.702 265.86 349.666 265.17C349.594 263.803 349.545 262.509 349.521 261.275V261.263C349.485 259.509 349.509 257.875 349.557 256.363C349.555 256.302 349.559 256.242 349.569 256.182C349.593 255.504 349.63 254.839 349.666 254.198C349.702 253.556 349.751 252.939 349.811 252.347C349.835 252.056 349.86 251.766 349.896 251.476C349.92 251.185 349.944 250.907 349.981 250.641C350.029 250.254 350.077 249.879 350.126 249.516C350.186 249.104 350.247 248.705 350.307 248.33C350.368 247.919 350.44 247.52 350.513 247.132C350.61 246.624 350.706 246.153 350.803 245.705C350.864 245.415 350.936 245.148 350.997 244.882C351.13 244.35 351.263 243.854 351.396 243.394C351.457 243.176 351.517 242.971 351.59 242.765C351.711 242.354 351.844 241.991 351.965 241.652C352.249 240.822 352.618 240.023 353.066 239.269L353.646 239.087C354.094 238.954 354.554 238.797 355.013 238.628C360.568 236.67 365.933 234.212 371.043 231.284C371.95 230.764 372.846 230.232 373.717 229.687C373.73 229.702 373.742 229.719 373.753 229.736C373.783 229.753 373.808 229.778 373.826 229.808C373.959 229.953 374.201 230.22 374.527 230.643C374.612 230.752 374.709 230.885 374.806 231.018C374.89 231.127 374.975 231.26 375.072 231.393C375.205 231.587 375.35 231.792 375.495 232.022C376.214 233.103 376.861 234.231 377.431 235.397C377.576 235.676 377.721 235.966 377.854 236.269C377.963 236.474 378.06 236.692 378.157 236.91C378.205 237.019 378.253 237.127 378.302 237.248C378.862 238.505 379.359 239.789 379.79 241.096C379.887 241.374 379.983 241.664 380.08 241.967C380.165 242.257 380.262 242.559 380.358 242.874C380.54 243.491 380.721 244.132 380.891 244.798C381.169 245.862 381.423 246.987 381.653 248.185C381.738 248.584 381.81 248.983 381.883 249.395C381.992 249.963 382.088 250.556 382.173 251.149C382.187 251.192 382.195 251.237 382.197 251.282C382.282 251.851 382.355 252.431 382.427 253.024C382.437 253.055 382.441 253.088 382.439 253.121C382.5 253.581 382.548 254.04 382.597 254.512C382.693 255.359 382.766 256.242 382.826 257.137C383.71 270.179 388.367 306.775 389.976 336.439Z" fill="#16CA4D"/>
<path d="M374.592 213.228C373.517 213.003 372.4 213.098 371.378 213.5C371.378 213.5 368.765 202.42 368.144 202.05C367.522 201.673 351.084 205.536 342.121 200.681C331.167 196.818 325.934 181.881 334.779 171.423C343.616 160.965 357.56 181.008 366.028 183.621C374.495 186.234 383.332 182.748 385.952 194.575C387.928 203.517 379.517 207.904 374.592 213.228Z" fill="black"/>
<path d="M370.626 239.106C369.625 241.163 368.162 242.96 366.351 244.359C362.243 247.342 353.524 244.855 353.65 240.251C353.667 239.196 353.613 238.142 353.49 237.094C353.378 236.116 353.231 235.124 353.063 234.174C357.579 230.938 360.778 224.079 369.026 224.875C369.795 229.353 371.828 232.693 372.079 233.775C372.086 235.651 371.584 237.493 370.626 239.106Z" fill="white" stroke="black" stroke-width="0.75" stroke-miterlimit="10"/>
<path d="M361.462 231.929C359.094 233.238 356.462 233.996 353.761 234.148C351.061 234.299 348.36 233.84 345.861 232.804C333.831 227.788 338.386 210.847 340.901 203.798C341.586 201.87 342.123 200.683 342.123 200.683C351.086 205.538 367.524 201.675 368.146 202.052C368.725 202.394 371.038 212.063 371.345 213.355C371.366 213.453 371.38 213.502 371.38 213.502C372.402 213.099 373.519 213.005 374.594 213.229C375.119 213.359 375.612 213.594 376.045 213.919C376.477 214.244 376.839 214.654 377.109 215.123C379.1 218.357 376.613 226.824 370.011 223.338C369.689 223.876 369.361 224.386 369.026 224.875" fill="white"/>
<path d="M361.462 231.929C359.094 233.238 356.462 233.996 353.761 234.148C351.061 234.299 348.36 233.84 345.861 232.804C333.831 227.788 338.386 210.847 340.901 203.798C341.586 201.87 342.123 200.683 342.123 200.683C351.086 205.538 367.524 201.675 368.146 202.052C368.725 202.394 371.038 212.063 371.345 213.355C371.366 213.453 371.38 213.502 371.38 213.502C372.402 213.099 373.519 213.005 374.594 213.229C375.119 213.359 375.612 213.594 376.045 213.919C376.477 214.244 376.839 214.654 377.109 215.123C379.1 218.357 376.613 226.824 370.011 223.338C369.689 223.876 369.361 224.386 369.026 224.875" stroke="black" stroke-width="0.75" stroke-miterlimit="10"/>
<path d="M335.911 337.504C342.432 313.852 349.146 294.205 332.862 274.74C325.059 265.424 317.038 260.355 309.598 254.633C298.71 246.261 289.08 236.474 283.309 209.992C280.043 195.063 279.014 186.945 278.869 182.36C278.736 178.525 279.232 177.17 279.571 176.384C280.13 175.711 280.881 175.226 281.724 174.993C285.124 173.638 291.826 172.464 297.065 174.46C298.013 174.82 298.912 175.299 299.738 175.888C299.727 177.746 299.815 179.604 300.004 181.453C302.194 204.342 318.091 247.084 350.247 239.995C351.178 239.801 352.11 239.559 353.066 239.269C352.618 240.023 352.249 240.822 351.965 241.652C351.844 241.979 351.711 242.354 351.59 242.765C351.517 242.959 351.457 243.176 351.396 243.394C351.263 243.854 351.13 244.35 350.997 244.882C350.924 245.148 350.864 245.414 350.803 245.705C350.707 246.152 350.61 246.624 350.513 247.132C350.44 247.519 350.368 247.907 350.307 248.33C350.247 248.705 350.186 249.104 350.126 249.516C350.078 249.879 350.029 250.254 349.981 250.641C349.944 250.907 349.92 251.185 349.896 251.475C349.86 251.766 349.823 252.056 349.811 252.347C349.751 252.939 349.703 253.556 349.666 254.198C349.63 254.585 349.618 254.984 349.594 255.395C349.582 255.649 349.569 255.915 349.569 256.182C349.559 256.242 349.555 256.302 349.557 256.363C349.497 257.875 349.485 259.508 349.521 261.263V261.275C349.545 262.509 349.594 263.815 349.666 265.17C349.703 265.86 349.751 266.549 349.799 267.263C349.811 267.469 349.836 267.687 349.848 267.917C349.86 268.05 349.872 268.195 349.884 268.34C349.884 268.425 349.896 268.509 349.896 268.594C349.92 268.824 349.932 269.066 349.957 269.308C350.017 270.094 350.09 270.953 350.174 271.848C350.211 272.332 350.259 272.84 350.307 273.348C350.392 274.365 350.501 275.441 350.598 276.554C350.707 277.68 350.816 278.841 350.936 280.051C351.009 280.861 351.094 281.696 351.178 282.555C351.239 283.232 351.312 283.922 351.384 284.636C351.614 287.019 351.856 289.531 352.11 292.173C352.219 293.358 352.34 294.568 352.461 295.802C352.533 296.564 352.606 297.351 352.679 298.125C352.691 298.246 352.703 298.355 352.715 298.464C352.8 299.359 352.872 300.266 352.969 301.174L353.114 302.807L353.259 304.404C353.404 306.001 353.55 307.61 353.695 309.243C353.779 310.32 353.876 311.384 353.973 312.461C354.07 313.586 354.155 314.723 354.251 315.86C354.433 318.087 354.614 320.325 354.784 322.575C354.82 323.131 354.868 323.7 354.905 324.256C355.026 325.914 355.147 327.559 355.255 329.204L355.509 333.015C355.57 334.032 355.63 335.036 355.691 336.052C355.739 336.996 355.788 337.927 355.848 338.859C355.846 338.947 355.85 339.036 355.86 339.125C349.184 338.984 342.522 338.443 335.911 337.504Z" fill="white" stroke="black" stroke-width="0.75" stroke-miterlimit="10"/>
<path d="M409.139 331.781C402.85 333.713 396.451 335.268 389.976 336.439C388.367 306.775 383.71 270.179 382.827 257.137C382.766 256.242 382.693 255.359 382.597 254.512C382.56 254.04 382.5 253.568 382.439 253.121C382.441 253.088 382.437 253.055 382.427 253.024C382.367 252.431 382.282 251.851 382.197 251.282C382.195 251.237 382.187 251.192 382.173 251.149C382.089 250.544 381.992 249.963 381.883 249.395C381.822 248.983 381.738 248.584 381.653 248.185C381.423 246.987 381.169 245.862 380.891 244.797C380.722 244.132 380.54 243.491 380.359 242.874C380.262 242.559 380.165 242.257 380.08 241.967C379.984 241.664 379.887 241.374 379.79 241.095C379.359 239.789 378.862 238.505 378.302 237.248C378.254 237.127 378.205 237.018 378.157 236.91C378.06 236.692 377.963 236.474 377.854 236.268C377.721 235.966 377.576 235.676 377.431 235.397C376.861 234.231 376.214 233.103 375.495 232.022C375.35 231.792 375.205 231.587 375.072 231.393C374.975 231.26 374.89 231.127 374.806 231.018C374.709 230.885 374.612 230.752 374.527 230.643C374.201 230.219 373.959 229.953 373.826 229.808C373.805 229.781 373.78 229.757 373.753 229.736C373.742 229.718 373.73 229.702 373.717 229.687C374.527 229.167 375.326 228.659 376.1 228.127C398.118 213.198 405.401 191.954 401.082 174.884C396.872 158.225 383.988 140.102 378.58 131.597C376.959 129.033 376.015 127.339 376.185 126.831C376.723 125.545 377.418 124.33 378.254 123.214C380.455 120.056 384.23 116.003 388.755 114.842C390.014 114.514 391.326 114.44 392.614 114.624C394.162 114.842 396.304 116.342 398.784 118.81C410.265 130.315 428.968 162.955 428.968 187.332C428.968 216.972 409.055 244.362 407.567 256.811C406.345 266.912 403.502 306.073 409.139 331.781Z" fill="white" stroke="black" stroke-width="0.75" stroke-miterlimit="10"/>
<path d="M389.384 98.3167C389.133 103.172 386.939 105.659 387.393 110.395C387.559 111.952 388.021 113.463 388.755 114.845C384.228 116.005 380.456 120.057 378.248 123.208C372.597 118.737 371.423 116.005 370.71 110.766C369.963 105.289 368.468 100.433 369.963 98.9383C371.458 97.4433 374.692 103.794 377.061 105.414C379.422 107.028 382.538 100.182 383.53 95.8226C384.529 91.4704 381.539 84.1211 385.647 84.4984C389.754 84.8686 389.635 93.4614 389.384 98.3167Z" fill="white" stroke="black" stroke-width="0.75" stroke-miterlimit="10"/>
<path d="M167.711 206.931C156.422 201.453 141.98 205.77 136.834 212.077C131.688 218.385 132.02 233.99 126.708 243.286C121.396 252.582 102.637 266.195 109.776 278.977C116.914 291.759 178.501 291.095 182.651 277.815C186.801 264.534 178.999 259.554 179.829 247.602C180.659 235.65 184.312 223.365 178.335 213.737C172.359 204.109 167.711 206.931 167.711 206.931Z" fill="black"/>
<path d="M261.715 283.729C261.68 283.638 261.639 283.549 261.594 283.462C261.497 283.233 261.388 283.003 261.279 282.773C261.231 282.688 261.195 282.603 261.146 282.519C261.049 282.325 260.94 282.144 260.832 281.95C260.723 281.757 260.614 281.575 260.493 281.394C260.36 281.188 260.227 280.994 260.094 280.801C259.751 280.304 259.379 279.827 258.981 279.373C258.799 279.168 258.606 278.962 258.412 278.756C256.879 277.129 255.084 275.771 253.101 274.74C252.272 274.251 251.339 273.965 250.379 273.905C247.887 274.074 234.446 295.246 212.029 293.504C197.051 292.342 191.741 283.874 182.957 276.76C177.965 272.594 172.057 269.667 165.718 268.219C165.754 268.304 165.791 268.413 165.827 268.521C166.165 270.262 166.283 272.038 166.178 273.808C166.184 273.822 166.187 273.836 166.187 273.851C166.187 273.865 166.184 273.88 166.178 273.893C166.178 274.389 166.166 274.921 166.153 275.466C166.057 278.442 165.827 282.192 165.5 286.523C163.189 316.562 156.064 374.753 157.879 399.179C162.294 399.893 166.779 400.393 171.331 400.679C174.065 397.183 176.219 393.202 176.485 390.117C177.175 382.145 166.468 348.356 169.456 338.484C172.444 328.612 183.647 326.12 178.663 306.702C178.669 306.709 178.678 306.713 178.687 306.715C199.12 326.12 240.931 325.261 262.586 288.35C262.628 286.765 262.331 285.189 261.715 283.729ZM108.906 277.063C90.2392 289.765 86.3195 307.332 75.5765 319.151C71.7397 323.216 67.4815 326.862 62.8737 330.027C47.6546 340.843 29.5682 348.489 29.7618 350.775C29.8633 351.402 30.1645 351.979 30.6207 352.42C32.5806 354.719 37.4319 357.707 40.2144 363.599C40.7277 364.677 41.1447 365.798 41.4605 366.95C55.8086 363.381 68.6202 356.473 78.9155 349.323C88.5968 342.663 97.4503 334.874 105.289 326.12C105.365 332.107 105.09 338.093 104.466 344.049C103.898 348.61 100.692 357.743 98.1391 366.744C106.629 373.41 115.638 379.385 125.081 384.613C124.004 355.735 128.009 312.582 129.69 298.065C130.107 294.47 130.713 290.901 131.505 287.37C133.151 279.703 135.596 272.23 138.8 265.074L138.824 265.025C125.734 267.868 116.189 272.102 108.906 277.063Z" fill="#16CA4D"/>
<path d="M157.383 398.607C153.81 397.359 150.164 395.969 146.608 394.488C139.395 391.504 132.357 388.116 125.525 384.34C124.476 355.352 128.498 312.299 130.141 298.116C130.556 294.538 131.159 290.984 131.947 287.469C133.584 279.891 135.994 272.501 139.14 265.415C140.161 265.196 141.2 265.084 142.244 265.079C142.491 265.072 142.74 265.07 142.993 265.07C148.714 265.07 156.714 266.646 160.975 267.585C163.055 268.033 164.635 268.416 165.466 268.624C165.534 268.694 165.631 268.79 165.774 268.928C165.931 269.083 166.107 269.25 166.201 269.356C166.192 269.774 166.146 270.189 166.065 270.599C165.888 271.654 165.774 272.72 165.724 273.789L165.722 273.912C165.699 274.394 165.687 274.91 165.699 275.475C165.608 278.279 165.394 281.89 165.047 286.488C164.423 294.61 163.434 304.91 162.388 315.816C159.617 344.69 156.177 380.545 157.383 398.607Z" fill="white"/>
<path d="M142.992 265.524C148.665 265.524 156.632 267.093 160.881 268.029C161.938 268.257 163.524 268.61 165.232 269.034C165.294 269.095 165.366 269.166 165.453 269.25C165.532 269.327 165.651 269.444 165.747 269.541C165.733 269.783 165.674 270.161 165.617 270.53C165.437 271.602 165.321 272.684 165.271 273.77L165.261 274.004L165.263 274.01C165.241 274.517 165.236 274.997 165.246 275.436C165.154 278.257 164.941 281.862 164.595 286.454C163.971 294.571 162.983 304.867 161.937 315.767C159.199 344.296 155.808 379.635 156.887 397.946C153.497 396.753 150.102 395.451 146.78 394.07C139.663 391.124 132.715 387.784 125.969 384.067C124.955 355.112 128.954 312.301 130.591 298.169C131.004 294.605 131.605 291.065 132.391 287.564C134.011 280.094 136.379 272.805 139.459 265.809C140.382 265.632 141.319 265.539 142.259 265.533C142.498 265.527 142.742 265.524 142.992 265.524M142.992 264.616C142.735 264.616 142.483 264.619 142.236 264.626C141.087 264.629 139.943 264.763 138.824 265.025L138.8 265.073C135.596 272.23 133.151 279.703 131.505 287.37C130.713 290.9 130.107 294.47 129.69 298.064C128.009 312.582 124.004 355.735 125.081 384.613C131.997 388.447 139.126 391.885 146.434 394.908C150.1 396.432 153.785 397.836 157.491 399.118C157.624 399.142 157.745 399.154 157.878 399.179C156.064 374.753 163.189 316.562 165.5 286.523C165.827 282.192 166.057 278.442 166.153 275.465C166.141 274.897 166.153 274.377 166.178 273.893C166.184 273.879 166.187 273.865 166.187 273.85C166.187 273.836 166.184 273.821 166.178 273.808C166.286 271.255 166.758 269.876 166.637 269.187C166.601 269.066 165.754 268.304 165.718 268.219C165.379 268.134 163.601 267.687 161.072 267.142C156.193 266.067 148.52 264.616 142.992 264.616V264.616Z" fill="black"/>
<path d="M281.754 265.03C280.887 268.977 279.015 274.454 272.043 277.067C268.176 278.544 264.659 280.812 261.718 283.725C259.941 279.843 256.902 276.677 253.097 274.741C255.368 270.906 257.659 259.616 259.343 258.268C261.215 256.773 262.717 263.249 262.591 266.239C262.458 269.222 275.306 259.386 276.354 255.655C277.401 251.918 279.511 253.538 279.763 255.655C280.014 257.773 282.627 261.083 281.754 265.03Z" fill="white" stroke="black" stroke-width="0.75" stroke-miterlimit="10"/>
<path d="M40.2193 363.596C34.8821 368.863 23.1037 378.664 17.6825 378.664C11.3323 378.664 7.22449 374.927 5.98094 372.314C4.7374 369.701 1 368.954 1 367.459C1 365.964 15.3212 363.973 19.925 360.983C17.438 360.731 14.0708 356.002 14.6995 354.633C15.3212 353.263 17.8087 354.758 23.411 354.633C29.0133 354.507 30.6206 352.425 30.6206 352.425C32.5766 354.723 37.4316 357.706 40.2193 363.596Z" fill="white" stroke="black" stroke-width="0.75" stroke-miterlimit="10"/>
<path d="M161.356 263.647C161.273 264.171 161.217 264.716 161.182 265.261C160.972 268.125 161.154 271.157 159.491 272.421C152.778 277.179 144.017 269.669 142.361 266.155C142.242 265.965 142.162 265.754 142.125 265.533C142.087 265.313 142.094 265.087 142.145 264.869C142.864 263.171 143.018 256.269 143.046 253.412C143.409 253.357 144.123 253.123 144.514 253.011C148.407 258.159 155.65 261.789 161.356 263.647Z" fill="white" stroke="black" stroke-width="0.75" stroke-miterlimit="10"/>
<path d="M144.179 253.161C143.807 253.268 143.429 253.352 143.047 253.412C142.056 253.585 141.039 253.533 140.071 253.261C139.102 252.99 138.207 252.505 137.45 251.843C136.693 251.18 136.094 250.357 135.697 249.433C135.299 248.509 135.113 247.508 135.153 246.503C135.257 245.334 135.701 244.221 136.431 243.302C137.161 242.384 138.145 241.699 139.26 241.333C140.629 240.837 141.132 245.944 142.564 246.377C143.514 246.664 143.417 244.142 143.473 242.241C143.494 241.284 143.556 240.488 143.808 240.278C144.555 239.657 155.761 234.92 157.689 231.19C159.492 234.801 160.239 234.983 161.608 234.55C162.977 234.117 170.012 228.821 170.886 225.831C171.223 228.964 172.458 231.934 174.442 234.382C174.711 234.725 175 235.051 175.308 235.36C175.308 235.36 180.037 256.772 170.571 261.502C167.703 262.908 164.551 263.641 161.357 263.647C156.588 263.785 151.929 262.202 148.231 259.189" fill="white"/>
<path d="M144.179 253.161C143.807 253.268 143.429 253.352 143.047 253.412C142.056 253.585 141.039 253.533 140.071 253.261C139.102 252.99 138.207 252.505 137.45 251.843C136.693 251.18 136.094 250.357 135.697 249.433C135.299 248.509 135.113 247.508 135.153 246.503C135.257 245.334 135.701 244.221 136.431 243.302C137.161 242.384 138.145 241.699 139.26 241.333C140.629 240.837 141.132 245.944 142.564 246.377C143.514 246.664 143.417 244.142 143.473 242.241C143.494 241.284 143.556 240.488 143.808 240.278C144.555 239.657 155.761 234.92 157.689 231.19C159.492 234.801 160.239 234.983 161.608 234.55C162.977 234.117 170.012 228.821 170.886 225.831C171.223 228.964 172.458 231.934 174.442 234.382C174.711 234.725 175 235.051 175.308 235.36C175.308 235.36 180.037 256.772 170.571 261.502C167.703 262.908 164.551 263.641 161.357 263.647C156.588 263.785 151.929 262.202 148.231 259.189" stroke="black" stroke-width="0.75" stroke-miterlimit="10"/>
<path d="M70.7491 174.17C65.0954 181.269 60.1481 188.902 55.9776 196.962C55.2154 198.438 54.4654 199.938 53.7516 201.451C51.3129 206.614 49.1958 211.923 47.4123 217.347C44.1494 227.234 42.0067 237.457 41.0246 247.822C40.6738 251.463 40.4681 255.153 40.4076 258.867C40.4076 259.629 40.3955 260.392 40.3955 261.154C40.3955 265.557 40.5971 269.909 41.0004 274.207C41.1093 275.393 41.2303 276.579 41.3754 277.764C42.2942 285.528 43.8644 293.201 46.0694 300.702C46.4082 301.464 46.759 302.238 47.1098 302.988C47.3034 303.424 47.5091 303.859 47.7147 304.295C48.5979 306.17 49.5213 308.017 50.4851 309.836C50.6214 310.143 50.7749 310.441 50.9449 310.731C54.4761 317.428 58.4615 323.875 62.8734 330.027M78.9152 349.323C80.1734 350.642 81.4517 351.937 82.7502 353.207C87.6283 357.997 92.7655 362.517 98.1388 366.744C106.628 373.41 115.638 379.385 125.081 384.613C131.997 388.447 139.126 391.885 146.434 394.908C150.099 396.432 153.785 397.836 157.491 399.118C157.624 399.142 157.745 399.154 157.878 399.179C162.294 399.893 166.778 400.393 171.331 400.679C174.271 400.86 177.227 400.953 180.199 400.957C205.101 400.965 229.554 394.319 251.026 381.706C272.497 369.093 290.209 350.972 302.327 329.217C319.523 335.374 337.599 338.72 355.86 339.125C357.106 339.149 358.34 339.161 359.586 339.161C369.777 339.167 379.948 338.256 389.976 336.439C396.451 335.268 402.85 333.713 409.139 331.781C427.486 326.163 444.736 317.448 460.144 306.013C461.62 304.924 463.072 303.823 464.499 302.686C464.947 302.323 465.395 301.972 465.842 301.597C466.314 301.222 466.786 300.835 467.258 300.448C469.109 298.923 470.931 297.351 472.726 295.73C475.52 293.225 478.226 290.62 480.844 287.914C481.098 287.66 481.34 287.406 481.582 287.152C486.049 282.497 490.249 277.594 494.163 272.465C497.406 268.207 500.45 263.791 503.297 259.218C505.16 256.218 506.935 253.149 508.62 250.012C520.773 227.416 527.589 202.337 528.546 176.698C528.618 174.509 528.667 172.295 528.667 170.081C528.663 129.409 514 90.1017 487.367 59.3639C460.733 28.626 423.913 8.5174 383.656 2.72443C343.399 -3.06854 302.403 5.84225 268.183 27.8233C233.964 49.8043 208.813 83.3828 197.341 122.403C174.498 119.603 151.317 122.476 129.848 130.769C108.38 139.062 89.2865 152.518 74.2575 169.948M142.03 4.47273C132.603 4.47273 123.387 7.26828 115.548 12.5059C107.71 17.7434 101.6 25.1878 97.9926 33.8976C94.3848 42.6073 93.4409 52.1913 95.2801 61.4375C97.1193 70.6838 101.659 79.177 108.325 85.8432C114.991 92.5093 123.485 97.0491 132.731 98.8883C141.977 100.727 151.561 99.7835 160.271 96.1758C168.981 92.5681 176.425 86.4587 181.663 78.6201C186.9 70.7815 189.696 61.5658 189.696 52.1384C189.696 39.4967 184.674 27.3727 175.735 18.4337C166.796 9.49464 154.672 4.47273 142.03 4.47273V4.47273Z" stroke="black" stroke-width="0.75" stroke-miterlimit="10" stroke-linecap="round"/>
</svg>
