<svg width="68" height="68" viewBox="0 0 68 68" fill="none" xmlns="http://www.w3.org/2000/svg">
<path d="M4.83333 29.8333C3.72222 29.8333 2.75 29.4167 1.91666 28.5833C1.08333 27.75 0.666664 26.7778 0.666664 25.6667V4.83332C0.666664 3.72221 1.08333 2.74999 1.91666 1.91666C2.75 1.08332 3.72222 0.666656 4.83333 0.666656H25.6667C26.7778 0.666656 27.75 1.08332 28.5833 1.91666C29.4167 2.74999 29.8333 3.72221 29.8333 4.83332V25.6667C29.8333 26.7778 29.4167 27.75 28.5833 28.5833C27.75 29.4167 26.7778 29.8333 25.6667 29.8333H4.83333ZM4.83333 25.6667H25.6667V4.83332H4.83333V25.6667ZM4.83333 67.3333C3.72222 67.3333 2.75 66.9167 1.91666 66.0833C1.08333 65.25 0.666664 64.2778 0.666664 63.1667V42.3333C0.666664 41.2222 1.08333 40.25 1.91666 39.4167C2.75 38.5833 3.72222 38.1667 4.83333 38.1667H25.6667C26.7778 38.1667 27.75 38.5833 28.5833 39.4167C29.4167 40.25 29.8333 41.2222 29.8333 42.3333V63.1667C29.8333 64.2778 29.4167 65.25 28.5833 66.0833C27.75 66.9167 26.7778 67.3333 25.6667 67.3333H4.83333ZM4.83333 63.1667H25.6667V42.3333H4.83333V63.1667ZM42.3333 29.8333C41.2222 29.8333 40.25 29.4167 39.4167 28.5833C38.5833 27.75 38.1667 26.7778 38.1667 25.6667V4.83332C38.1667 3.72221 38.5833 2.74999 39.4167 1.91666C40.25 1.08332 41.2222 0.666656 42.3333 0.666656H63.1667C64.2778 0.666656 65.25 1.08332 66.0833 1.91666C66.9167 2.74999 67.3333 3.72221 67.3333 4.83332V25.6667C67.3333 26.7778 66.9167 27.75 66.0833 28.5833C65.25 29.4167 64.2778 29.8333 63.1667 29.8333H42.3333ZM42.3333 25.6667H63.1667V4.83332H42.3333V25.6667ZM61.8125 67.3333C61.3264 67.3333 60.9097 67.1597 60.5625 66.8125C60.2153 66.4653 60.0417 66.0486 60.0417 65.5625V61.8125C60.0417 61.3264 60.2153 60.9097 60.5625 60.5625C60.9097 60.2153 61.3264 60.0417 61.8125 60.0417H65.5625C66.0486 60.0417 66.4653 60.2153 66.8125 60.5625C67.1597 60.9097 67.3333 61.3264 67.3333 61.8125V65.5625C67.3333 66.0486 67.1597 66.4653 66.8125 66.8125C66.4653 67.1597 66.0486 67.3333 65.5625 67.3333H61.8125ZM39.9375 45.4583C39.4514 45.4583 39.0347 45.2847 38.6875 44.9375C38.3403 44.5903 38.1667 44.1736 38.1667 43.6875V39.9375C38.1667 39.4514 38.3403 39.0347 38.6875 38.6875C39.0347 38.3403 39.4514 38.1667 39.9375 38.1667H43.6875C44.1736 38.1667 44.5903 38.3403 44.9375 38.6875C45.2847 39.0347 45.4583 39.4514 45.4583 39.9375V43.6875C45.4583 44.1736 45.2847 44.5903 44.9375 44.9375C44.5903 45.2847 44.1736 45.4583 43.6875 45.4583H39.9375ZM47.2292 52.75C46.7431 52.75 46.3264 52.5764 45.9792 52.2292C45.6319 51.8819 45.4583 51.4653 45.4583 50.9792V47.2292C45.4583 46.743 45.6319 46.3264 45.9792 45.9792C46.3264 45.6319 46.7431 45.4583 47.2292 45.4583H50.9792C51.4653 45.4583 51.8819 45.6319 52.2292 45.9792C52.5764 46.3264 52.75 46.743 52.75 47.2292V50.9792C52.75 51.4653 52.5764 51.8819 52.2292 52.2292C51.8819 52.5764 51.4653 52.75 50.9792 52.75H47.2292ZM39.9375 60.0417C39.4514 60.0417 39.0347 59.868 38.6875 59.5208C38.3403 59.1736 38.1667 58.7569 38.1667 58.2708V54.5208C38.1667 54.0347 38.3403 53.618 38.6875 53.2708C39.0347 52.9236 39.4514 52.75 39.9375 52.75H43.6875C44.1736 52.75 44.5903 52.9236 44.9375 53.2708C45.2847 53.618 45.4583 54.0347 45.4583 54.5208V58.2708C45.4583 58.7569 45.2847 59.1736 44.9375 59.5208C44.5903 59.868 44.1736 60.0417 43.6875 60.0417H39.9375ZM47.2292 67.3333C46.7431 67.3333 46.3264 67.1597 45.9792 66.8125C45.6319 66.4653 45.4583 66.0486 45.4583 65.5625V61.8125C45.4583 61.3264 45.6319 60.9097 45.9792 60.5625C46.3264 60.2153 46.7431 60.0417 47.2292 60.0417H50.9792C51.4653 60.0417 51.8819 60.2153 52.2292 60.5625C52.5764 60.9097 52.75 61.3264 52.75 61.8125V65.5625C52.75 66.0486 52.5764 66.4653 52.2292 66.8125C51.8819 67.1597 51.4653 67.3333 50.9792 67.3333H47.2292ZM54.5208 60.0417C54.0347 60.0417 53.618 59.868 53.2708 59.5208C52.9236 59.1736 52.75 58.7569 52.75 58.2708V54.5208C52.75 54.0347 52.9236 53.618 53.2708 53.2708C53.618 52.9236 54.0347 52.75 54.5208 52.75H58.2708C58.7569 52.75 59.1736 52.9236 59.5208 53.2708C59.868 53.618 60.0417 54.0347 60.0417 54.5208V58.2708C60.0417 58.7569 59.868 59.1736 59.5208 59.5208C59.1736 59.868 58.7569 60.0417 58.2708 60.0417H54.5208ZM54.5208 45.4583C54.0347 45.4583 53.618 45.2847 53.2708 44.9375C52.9236 44.5903 52.75 44.1736 52.75 43.6875V39.9375C52.75 39.4514 52.9236 39.0347 53.2708 38.6875C53.618 38.3403 54.0347 38.1667 54.5208 38.1667H58.2708C58.7569 38.1667 59.1736 38.3403 59.5208 38.6875C59.868 39.0347 60.0417 39.4514 60.0417 39.9375V43.6875C60.0417 44.1736 59.868 44.5903 59.5208 44.9375C59.1736 45.2847 58.7569 45.4583 58.2708 45.4583H54.5208ZM61.8125 52.75C61.3264 52.75 60.9097 52.5764 60.5625 52.2292C60.2153 51.8819 60.0417 51.4653 60.0417 50.9792V47.2292C60.0417 46.743 60.2153 46.3264 60.5625 45.9792C60.9097 45.6319 61.3264 45.4583 61.8125 45.4583H65.5625C66.0486 45.4583 66.4653 45.6319 66.8125 45.9792C67.1597 46.3264 67.3333 46.743 67.3333 47.2292V50.9792C67.3333 51.4653 67.1597 51.8819 66.8125 52.2292C66.4653 52.5764 66.0486 52.75 65.5625 52.75H61.8125Z" fill="#F5F5F5"/>
</svg>
